<svg xmlns="http://www.w3.org/2000/svg" width="65.43" height="65.43" viewBox="0 0 65.43 65.43"><defs><style>.a{fill:#fff;}</style></defs><g transform="translate(-9286.498 -6191.131)"><path class="a" d="M9340.027,6256.561h-40.387a13.158,13.158,0,0,1-13.143-13.143v-39.144a13.158,13.158,0,0,1,13.143-13.143h39.145a13.158,13.158,0,0,1,13.143,13.143v40.385A11.916,11.916,0,0,1,9340.027,6256.561Zm-40.387-61.394a9.117,9.117,0,0,0-9.106,9.107v39.144a9.118,9.118,0,0,0,9.106,9.107h40.387a7.872,7.872,0,0,0,7.864-7.866v-40.385a9.117,9.117,0,0,0-9.106-9.107Z"/><path class="a" d="M9336.129,6243.012a3.023,3.023,0,0,1-2.116-.863l-33.832-33.054a3.028,3.028,0,0,1,4.232-4.331l33.832,33.058a3.026,3.026,0,0,1-2.116,5.19Z"/><path class="a" d="M9302.3,6243.785a3.027,3.027,0,0,1-2.164-5.143l33.061-33.828a3.026,3.026,0,1,1,4.326,4.232l-33.059,33.828A3.017,3.017,0,0,1,9302.3,6243.785Z"/></g></svg>