<svg xmlns="http://www.w3.org/2000/svg" width="65.43" height="65.43" viewBox="0 0 65.43 65.43"><defs><style>.a{fill:gray;}</style></defs><g transform="translate(-1905.108 -6148.473)"><path class="a" d="M1958.636,6213.9h-40.385a13.157,13.157,0,0,1-13.143-13.143v-39.144a13.157,13.157,0,0,1,13.143-13.143H1957.4a13.158,13.158,0,0,1,13.143,13.143V6202A11.916,11.916,0,0,1,1958.636,6213.9Zm-40.385-61.394a9.118,9.118,0,0,0-9.108,9.107v39.144a9.119,9.119,0,0,0,9.108,9.107h40.385A7.873,7.873,0,0,0,1966.5,6202v-40.386a9.117,9.117,0,0,0-9.107-9.107Z"/><path class="a" d="M1954.739,6200.354a3.018,3.018,0,0,1-2.116-.863l-33.832-33.053a3.028,3.028,0,0,1,4.232-4.331l33.832,33.057a3.027,3.027,0,0,1-2.116,5.19Z"/><path class="a" d="M1920.907,6201.127a3.027,3.027,0,0,1-2.164-5.143l33.06-33.828a3.026,3.026,0,1,1,4.327,4.232l-33.06,33.828A3.011,3.011,0,0,1,1920.907,6201.127Z"/></g></svg>