<svg xmlns="http://www.w3.org/2000/svg" width="92.93097" height="90.7082" viewBox="0 0 92.93097 90.7082"><defs><style>.cls-1{fill:gray;}</style></defs><g id="Camada_2" data-name="Camada 2"><g id="Layer_1" data-name="Layer 1"><path class="cls-1" d="M71.06,90.7082H17.447C7.826,90.7082,0,82.5912,0,72.6142v-53.89C0,8.7462,7.826.6292,17.447.6292h43.558v5.556H17.447a12.33361,12.33361,0,0,0-12.09,12.539v53.89a12.33464,12.33464,0,0,0,12.09,12.538H71.06a10.65017,10.65017,0,0,0,10.44195-10.829V32.3072h5.357v42.016c0,9.033-7.08795,16.385-15.79895,16.385"/><path class="cls-1" d="M26.39838,69.5212V24.6052h11.407l8.991,16.478a130.78588,130.78588,0,0,1,7.073,15.403l.16706-.022a184.70549,184.70549,0,0,1-.79-18.762V24.6052h8.988v44.916h-10.254l-9.286-17.3a168.0254,168.0254,0,0,1-7.52-15.864l-.215.022c.304,5.952.427,12.305.427,19.64v13.502Z"/><path class="cls-1" d="M80.524,17.731l.57794-2.132.194-.532v-.065c0-.315-.129-.467-.385-.467-.217,0-.345.044-.387.131l-.385.466L78.79,16.597a16.27992,16.27992,0,0,1-1.094,1.27,2.7606,2.7606,0,0,1-2.058.868,2.58412,2.58412,0,0,1-1.959-.868,3.0146,3.0146,0,0,1-.803-2.133q0-2.604,3.599-3.266l2.121-.401c.686-.136,1.028-.31,1.028-.532,0-.271-.128-.402-.384-.402l-2.702-.466q-3.858-.6675-3.856-3.136a3.19423,3.19423,0,0,1,.834-2.198A2.58818,2.58818,0,0,1,75.51,4.4q1.41147,0,3.28,2.133l1.284,1.464c.387.445.665.668.837.668.343,0,.513-.223.513-.668-.042-.222-.063-.309-.063-.265l-.194-.597L80.524,4.932l-.322-.798a3.20314,3.20314,0,0,1-.191-1.204q0-2.9295,2.82794-2.93,2.7615,0,2.765,2.93a3.19822,3.19822,0,0,1-.194,1.204l-.321.798-.835,2.8a.76246.76246,0,0,0-.065.336c0,.396.17.597.515.597.17,0,.45-.223.834-.668l1.287-1.464Q88.68942,4.4,90.103,4.4a2.58459,2.58459,0,0,1,1.993.933,3.195,3.195,0,0,1,.835,2.198q0,2.466-3.856,3.136l-2.699.466c-.259,0-.388.131-.388.402,0,.222.343.396,1.028.532l2.122.401q3.6015.6675,3.602,3.266a3.09957,3.09957,0,0,1-.772,2.133,2.48975,2.48975,0,0,1-1.93.868q-1.413,0-3.278-2.138l-1.671-1.931c-.042-.131-.173-.201-.385-.201-.301,0-.45.179-.45.537l.063.065.128.532.644,2.132.256.933a5.02342,5.02342,0,0,1,.193,1.27q0,3.13348-2.699,3.13-2.7,0-2.7-3a9.17267,9.17267,0,0,1,.385-2.333"/></g></g></svg>