<svg xmlns="http://www.w3.org/2000/svg" width="90.431" height="91.079"><defs><style>.a{fill:gray}</style></defs><path class="a" d="M49.5 91.079H26.139v-66.55h23.36zm-19.454-3.9h15.549V28.433H30.046z"/><path class="a" d="M28.093 66.171v22.958h19.455V66.171zm15.953 19.131H31.465V72.721h12.581zM88.024 91.079H70.499V29.847h17.525zm-13.619-3.9h9.713V33.751h-9.713z"/><path class="a" d="M72.451 68.12v21.009H86.07V68.12zm11.168 17.507h-8.807V74.11h8.807zM68.762 91.079H51.239V38.926h17.524zm-13.619-3.9h9.714V42.831h-9.718z"/><path class="a" d="M53.19 71.447v17.682h13.619V71.447zm11.168 14.735h-8.807v-9.69h8.807zM24.332 90.431h-6.165A18.191 18.191 0 010 72.262v-54.1A18.187 18.187 0 0118.167-.002h54.1a18.187 18.187 0 0118.167 18.164v4.3h-5.577v-4.3a12.6 12.6 0 00-12.59-12.587h-54.1a12.6 12.6 0 00-12.59 12.587v54.1a12.6 12.6 0 0012.59 12.592h6.165z"/></svg>