<svg xmlns="http://www.w3.org/2000/svg" width="90" height="89.82" viewBox="0 0 90 89.82"><defs><style>.a{fill:gray;}</style></defs><g transform="translate(-222.143 -5126.172)"><path class="a" d="M260.42,5202.726a38.277,38.277,0,1,1,38.277-38.277A38.32,38.32,0,0,1,260.42,5202.726Zm0-68.284a30.007,30.007,0,1,0,30.008,30.007A30.041,30.041,0,0,0,260.42,5134.442Z"/><path class="a" d="M308.008,5215.992a4.118,4.118,0,0,1-2.923-1.212L283.31,5193a4.134,4.134,0,1,1,5.847-5.846l21.775,21.774a4.136,4.136,0,0,1-2.924,7.059Z"/><path class="a" d="M260.42,5190.051a4.136,4.136,0,0,1-4.135-4.135v-42.937a4.135,4.135,0,0,1,8.27,0v42.937A4.135,4.135,0,0,1,260.42,5190.051Z"/><path class="a" d="M281.887,5168.584H238.953a4.135,4.135,0,1,1,0-8.27h42.934a4.135,4.135,0,1,1,0,8.27Z"/></g></svg>