<svg xmlns="http://www.w3.org/2000/svg" width="90" height="89.82" viewBox="0 0 90 89.82"><defs><style>.a{fill:#fff;}</style></defs><g transform="translate(-6633.434 -6826.307)"><path class="a" d="M6671.711,6902.862a38.277,38.277,0,1,1,38.277-38.278A38.32,38.32,0,0,1,6671.711,6902.862Zm0-68.285a30.007,30.007,0,1,0,30.007,30.007A30.041,30.041,0,0,0,6671.711,6834.577Z"/><path class="a" d="M6719.3,6916.127a4.118,4.118,0,0,1-2.924-1.212l-21.774-21.774a4.134,4.134,0,1,1,5.846-5.847l21.775,21.775a4.135,4.135,0,0,1-2.923,7.058Z"/><path class="a" d="M6671.711,6890.186a4.134,4.134,0,0,1-4.135-4.135v-42.937a4.135,4.135,0,0,1,8.27,0v42.937A4.135,4.135,0,0,1,6671.711,6890.186Z"/><path class="a" d="M6693.178,6868.719h-42.934a4.135,4.135,0,1,1,0-8.27h42.934a4.135,4.135,0,0,1,0,8.27Z"/></g></svg>