<svg xmlns="http://www.w3.org/2000/svg" width="92.93" height="90.708" viewBox="0 0 92.93 90.708"><defs><style>.a{fill:gray;}</style></defs><g transform="translate(-538.408 -1417.061)"><path class="a" d="M609.468,1507.769H555.855c-9.621,0-17.447-8.116-17.447-18.094v-53.89c0-9.978,7.826-18.094,17.447-18.094h43.558v5.555H555.855a12.333,12.333,0,0,0-12.09,12.539v53.89a12.335,12.335,0,0,0,12.09,12.539h53.613a10.65,10.65,0,0,0,10.442-10.83v-42.016h5.357v42.016C625.267,1500.418,618.178,1507.769,609.468,1507.769Z"/><path class="a" d="M564.806,1486.582v-44.916h11.408l8.99,16.478a130.469,130.469,0,0,1,7.073,15.4l.167-.021a184.738,184.738,0,0,1-.79-18.762v-13.1h8.988v44.916H590.388l-9.286-17.3a168.277,168.277,0,0,1-7.52-15.865l-.214.022c.3,5.952.426,12.305.426,19.641v13.5Z"/><path class="a" d="M618.932,1434.792l.578-2.132.193-.532v-.065c0-.315-.128-.467-.384-.467-.217,0-.345.044-.387.131l-.385.466-1.349,1.465a16.25,16.25,0,0,1-1.094,1.27,2.76,2.76,0,0,1-2.058.868,2.586,2.586,0,0,1-1.96-.868,3.016,3.016,0,0,1-.8-2.132c0-1.737,1.2-2.822,3.6-3.267l2.121-.4c.685-.136,1.028-.309,1.028-.532,0-.271-.128-.4-.385-.4l-2.7-.467q-3.856-.668-3.855-3.136a3.192,3.192,0,0,1,.834-2.2,2.584,2.584,0,0,1,1.993-.934q1.413,0,3.281,2.133l1.284,1.465c.387.445.664.667.837.667.343,0,.513-.222.513-.667-.042-.223-.063-.31-.063-.266l-.194-.6-.643-2.2-.322-.8a3.213,3.213,0,0,1-.191-1.205q0-2.93,2.828-2.93,2.762,0,2.765,2.93a3.208,3.208,0,0,1-.194,1.205l-.322.8-.834,2.8a.752.752,0,0,0-.066.336c0,.4.17.6.516.6.17,0,.45-.222.834-.667l1.287-1.465q1.865-2.133,3.278-2.133a2.584,2.584,0,0,1,1.993.934,3.192,3.192,0,0,1,.834,2.2q0,2.466-3.855,3.136l-2.7.467c-.259,0-.387.13-.387.4,0,.223.343.4,1.028.532l2.121.4c2.4.445,3.6,1.53,3.6,3.267a3.1,3.1,0,0,1-.771,2.132,2.492,2.492,0,0,1-1.931.868q-1.411,0-3.277-2.138l-1.672-1.931c-.042-.131-.172-.2-.384-.2-.3,0-.45.179-.45.537l.063.065.128.532.643,2.132.257.933a5.068,5.068,0,0,1,.193,1.27q0,3.133-2.7,3.131t-2.7-3A9.136,9.136,0,0,1,618.932,1434.792Z"/></g></svg>