<svg xmlns="http://www.w3.org/2000/svg" width="480.55667" height="214.08695" viewBox="0 0 480.55667 214.08695"><defs><style>.cls-1{fill:#1e84b0;}.cls-2{fill:#fff;}</style></defs><g id="Camada_2" data-name="Camada 2"><g id="Layer_1" data-name="Layer 1"><path class="cls-1" d="M411.1155,0H0V214.087H411.1155a8.51608,8.51608,0,0,0,7.20158-3.97067l59.8578-94.83674a15.43077,15.43077,0,0,0,0-16.47213L418.31708,3.97067A8.51608,8.51608,0,0,0,411.1155,0Z"/><path class="cls-2" d="M48.36731,40.387a8.78164,8.78164,0,0,1,8.73828,8.80468,8.82262,8.82262,0,0,1-15.04883,6.23291A8.80515,8.80515,0,0,1,48.36731,40.387Zm-.12305,2.0664a6.76924,6.76924,0,0,0-6.69336,6.73828A6.74237,6.74237,0,0,0,53.06262,53.9534a6.73847,6.73847,0,0,0-4.81836-11.5Z"/><path class="cls-2" d="M58.94153,56.00858l.832-.584a.43643.43643,0,0,1,.67383.11231,1.46232,1.46232,0,0,0,1.123.50537,1.32519,1.32519,0,0,0,.97657-.39307,1.21821,1.21821,0,0,0,.38086-.8872q0-1.1565-2.41407-2.60547a5.61729,5.61729,0,0,1-1.24609-.93213,2.56517,2.56517,0,0,1-.68555-1.80811,3.15306,3.15306,0,0,1,.97657-2.30224,3.11537,3.11537,0,0,1,2.26953-.977,3.41153,3.41153,0,0,1,2.291.89843.72311.72311,0,0,1,.31446.49414.50876.50876,0,0,1-.19141.35938l-.80859.69629a.47884.47884,0,0,1-.31446.15722.58036.58036,0,0,1-.38086-.22461,1.34749,1.34749,0,0,0-.97851-.42675,1.22726,1.22726,0,0,0-.90821.33691,1.07543,1.07543,0,0,0-.31445.79736,1.05425,1.05425,0,0,0,.22461.64014,5.67086,5.67086,0,0,0,1.291.96582,8.08546,8.08546,0,0,1,2.0332,1.62842,3.54316,3.54316,0,0,1,.79687,2.291,3.10278,3.10278,0,0,1-.91015,2.291,3.29523,3.29523,0,0,1-2.41406.95459,3.44487,3.44487,0,0,1-2.4375-.94336,1.0599,1.0599,0,0,1-.42579-.67383A.46468.46468,0,0,1,58.94153,56.00858Z"/><path class="cls-2" d="M75.14856,47.12528a5.71259,5.71259,0,0,1,3.43555-.98828H78.797c.32226-.00733.48047.146.47265.46044v1.04444c.01368.30713-.123.46435-.416.47168h-.06641q-3.62988.09009-3.63867,2.89746v6.334a.407.407,0,0,1-.47266.47168H73.66614a.40626.40626,0,0,1-.47266-.47168V46.78836a.40627.40627,0,0,1,.47266-.47168H74.6759a.407.407,0,0,1,.47266.47168Z"/><path class="cls-2" d="M82.12317,52.85282a4.09306,4.09306,0,0,0,1.32422,2.26855,4.003,4.003,0,0,0,2.65039.89844,6.2059,6.2059,0,0,0,3.07812-.74121.54759.54759,0,0,1,.25782-.08985c.14257,0,.25781.08985.34765.26953l.38281.77491a.64952.64952,0,0,1,.08985.28076c0,.13476-.1211.27344-.35938.41553a7.28512,7.28512,0,0,1-3.81836,1.06689,6.02789,6.02789,0,0,1-4.26757-10.231A5.39727,5.39727,0,0,1,85.795,46.137a4.96783,4.96783,0,0,1,3.66016,1.47119,5.56852,5.56852,0,0,1,1.61719,4.11035v.6626a.405.405,0,0,1-.47071.47168Zm6.90625-1.68457a3.18005,3.18005,0,0,0-.94336-2.07764,3.22638,3.22638,0,0,0-2.38086-.99951,3.40125,3.40125,0,0,0-2.15625.71875,4.19594,4.19594,0,0,0-1.38086,2.3584Z"/><path class="cls-2" d="M92.82434,56.00858l.83008-.584a.56166.56166,0,0,1,.293-.1123.54911.54911,0,0,1,.38086.22461,1.46232,1.46232,0,0,0,1.123.50537,1.32962,1.32962,0,0,0,.97852-.39307,1.21817,1.21817,0,0,0,.38086-.8872q0-1.1565-2.41406-2.60547a5.57059,5.57059,0,0,1-1.2461-.93213,2.56516,2.56516,0,0,1-.68554-1.80811,3.15305,3.15305,0,0,1,.97656-2.30224,3.11537,3.11537,0,0,1,2.26953-.977,3.41158,3.41158,0,0,1,2.291.89843.72313.72313,0,0,1,.31445.49414.50872.50872,0,0,1-.19141.35938l-.80859.69629a.48288.48288,0,0,1-.31445.15722.57959.57959,0,0,1-.38282-.22461,1.34008,1.34008,0,0,0-.97656-.42675,1.23191,1.23191,0,0,0-.91016.33691,1.083,1.083,0,0,0-.31445.79736,1.06675,1.06675,0,0,0,.22461.64014,5.697,5.697,0,0,0,1.293.96582,8.10576,8.10576,0,0,1,2.03125,1.62842,3.54489,3.54489,0,0,1,.79883,2.291,3.11037,3.11037,0,0,1-.91016,2.291,3.29835,3.29835,0,0,1-2.41406.95459A3.44491,3.44491,0,0,1,93.004,57.053a1.05624,1.05624,0,0,1-.42774-.67383A.46288.46288,0,0,1,92.82434,56.00858Z"/><path class="cls-2" d="M108.547,56.96317a5.09108,5.09108,0,0,1-3.08789,1.0332,5.00607,5.00607,0,0,1-3.67188-1.52734,4.42764,4.42764,0,0,1-1.38281-3.23438V46.81082a.407.407,0,0,1,.47266-.47168h1.00976a.40627.40627,0,0,1,.47266.47168v6.1543a2.90606,2.90606,0,0,0,.91992,2.13379,3.04739,3.04739,0,0,0,2.23633.9209q2.96484,0,2.96484-2.94238V46.81082a.405.405,0,0,1,.4707-.47168H109.963a.405.405,0,0,1,.47071.47168V57.345a.40495.40495,0,0,1-.47071.47168h-.94336a.40626.40626,0,0,1-.47265-.47168Z"/><path class="cls-2" d="M112.68176,57.345V42.20633a.40627.40627,0,0,1,.47266-.47168h1.00976a.407.407,0,0,1,.47266.47168V57.345a.407.407,0,0,1-.47266.47168h-1.00976A.40626.40626,0,0,1,112.68176,57.345Z"/><path class="cls-2" d="M119.33411,46.49637V43.43045a.40563.40563,0,0,1,.4707-.47168h1.01172a.405.405,0,0,1,.4707.47168v3.06592h2.8418a.40626.40626,0,0,1,.47265.47168v.83105a.40626.40626,0,0,1-.47265.47168h-2.8418V57.345a.40495.40495,0,0,1-.4707.47168h-1.01172a.40563.40563,0,0,1-.4707-.47168V48.27078h-2.86328a.40626.40626,0,0,1-.47266-.47168v-.83105a.40627.40627,0,0,1,.47266-.47168Z"/><path class="cls-2" d="M135.21106,47.65311V46.7659a.40495.40495,0,0,1,.4707-.47168h1.01172a.40563.40563,0,0,1,.4707.47168V57.345a.40563.40563,0,0,1-.4707.47168h-1.01172a.40495.40495,0,0,1-.4707-.47168v-.86474a6.05262,6.05262,0,0,1-3.95313,1.51611,5.93973,5.93973,0,0,1-4.24609-10.11865,5.8018,5.8018,0,0,1,4.24609-1.74072A6.05262,6.05262,0,0,1,135.21106,47.65311Zm-3.98828.438a3.9142,3.9142,0,1,0,2.8418,1.1455A3.842,3.842,0,0,0,131.22278,48.0911Z"/><path class="cls-2" d="M148.76575,47.65311v-5.4917a.40494.40494,0,0,1,.4707-.47168h1.01172a.40495.40495,0,0,1,.4707.47168V57.345a.40495.40495,0,0,1-.4707.47168h-1.01172a.40494.40494,0,0,1-.4707-.47168v-.86474a5.91163,5.91163,0,0,1-3.95313,1.51611,5.94112,5.94112,0,0,1-4.24609-10.11865,5.80178,5.80178,0,0,1,4.24609-1.74072A5.91163,5.91163,0,0,1,148.76575,47.65311Zm-3.98633.438a3.91416,3.91416,0,1,0,2.83984,1.1455A3.84325,3.84325,0,0,0,144.77942,48.0911Z"/><path class="cls-2" d="M158.45325,46.137a5.90345,5.90345,0,0,1,5.86133,5.90722,5.93136,5.93136,0,0,1-10.12891,4.21143,5.94019,5.94019,0,0,1-.02344-8.37793A5.80959,5.80959,0,0,1,158.45325,46.137Zm-.07813,1.9541a3.91414,3.91414,0,1,0,2.83985,1.1455A3.84327,3.84327,0,0,0,158.37512,48.0911Z"/><path class="cls-2" d="M165.99622,56.00858l.832-.584a.43643.43643,0,0,1,.67383.11231,1.46232,1.46232,0,0,0,1.123.50537,1.32517,1.32517,0,0,0,.97656-.39307,1.21817,1.21817,0,0,0,.38086-.8872q0-1.1565-2.41406-2.60547a5.61729,5.61729,0,0,1-1.24609-.93213,2.56517,2.56517,0,0,1-.68555-1.80811,3.15305,3.15305,0,0,1,.97656-2.30224,3.1154,3.1154,0,0,1,2.26953-.977,3.41154,3.41154,0,0,1,2.291.89843.72313.72313,0,0,1,.31445.49414.50874.50874,0,0,1-.1914.35938l-.8086.69629a.47879.47879,0,0,1-.31445.15722.58036.58036,0,0,1-.38086-.22461,1.34752,1.34752,0,0,0-.97851-.42675,1.22726,1.22726,0,0,0-.90821.33691,1.07539,1.07539,0,0,0-.31445.79736,1.05425,1.05425,0,0,0,.22461.64014,5.67073,5.67073,0,0,0,1.291.96582,8.08554,8.08554,0,0,1,2.03321,1.62842,3.54316,3.54316,0,0,1,.79687,2.291,3.10278,3.10278,0,0,1-.91015,2.291,3.29524,3.29524,0,0,1-2.41407.95459,3.44491,3.44491,0,0,1-2.4375-.94336,1.05992,1.05992,0,0,1-.42578-.67383A.46466.46466,0,0,1,165.99622,56.00858Z"/><path class="cls-2" d="M189.82825,47.65311v-5.4917a.40494.40494,0,0,1,.4707-.47168h1.01172a.40495.40495,0,0,1,.4707.47168V57.345a.40495.40495,0,0,1-.4707.47168H190.299a.40494.40494,0,0,1-.4707-.47168v-.86474a5.91163,5.91163,0,0,1-3.95313,1.51611A5.94112,5.94112,0,0,1,181.629,47.87772a5.80178,5.80178,0,0,1,4.24609-1.74072A5.91163,5.91163,0,0,1,189.82825,47.65311Zm-3.98633.438a3.91416,3.91416,0,1,0,2.83984,1.1455A3.84325,3.84325,0,0,0,185.84192,48.0911Z"/><path class="cls-2" d="M195.52942,52.85282a4.09306,4.09306,0,0,0,1.32422,2.26855,4.003,4.003,0,0,0,2.65039.89844,6.2059,6.2059,0,0,0,3.07812-.74121.54759.54759,0,0,1,.25782-.08985c.14257,0,.25781.08985.34765.26953l.38281.77491a.64952.64952,0,0,1,.08985.28076c0,.13476-.1211.27344-.35938.41553a7.28512,7.28512,0,0,1-3.81836,1.06689,6.02789,6.02789,0,0,1-4.26757-10.231,5.39727,5.39727,0,0,1,3.98632-1.62841,4.96783,4.96783,0,0,1,3.66016,1.47119,5.56852,5.56852,0,0,1,1.61719,4.11035v.6626a.405.405,0,0,1-.47071.47168Zm6.90625-1.68457a3.18005,3.18005,0,0,0-.94336-2.07764,3.22638,3.22638,0,0,0-2.38086-.99951,3.40125,3.40125,0,0,0-2.15625.71875,4.19594,4.19594,0,0,0-1.38086,2.3584Z"/><path class="cls-2" d="M214.66614,52.85282a4.09306,4.09306,0,0,0,1.32422,2.26855,4.003,4.003,0,0,0,2.65039.89844,6.2059,6.2059,0,0,0,3.07812-.74121.5476.5476,0,0,1,.25781-.08985c.14258,0,.25782.08985.34766.26953l.38281.77491a.64952.64952,0,0,1,.08985.28076c0,.13476-.1211.27344-.35938.41553a7.28512,7.28512,0,0,1-3.81836,1.06689,6.0279,6.0279,0,0,1-4.26758-10.231A5.3973,5.3973,0,0,1,218.338,46.137a4.96783,4.96783,0,0,1,3.66016,1.47119,5.56856,5.56856,0,0,1,1.61719,4.11035v.6626a.405.405,0,0,1-.47071.47168Zm6.90625-1.68457a3.18005,3.18005,0,0,0-.94336-2.07764,3.22638,3.22638,0,0,0-2.38086-.99951,3.40125,3.40125,0,0,0-2.15625.71875,4.19594,4.19594,0,0,0-1.38086,2.3584Z"/><path class="cls-2" d="M225.36731,56.00858l.83008-.584a.56166.56166,0,0,1,.293-.1123.54911.54911,0,0,1,.38086.22461,1.46232,1.46232,0,0,0,1.123.50537,1.32962,1.32962,0,0,0,.97852-.39307,1.21821,1.21821,0,0,0,.38086-.8872q0-1.1565-2.41406-2.60547a5.57059,5.57059,0,0,1-1.2461-.93213,2.56517,2.56517,0,0,1-.68555-1.80811,3.15306,3.15306,0,0,1,.97657-2.30224,3.11537,3.11537,0,0,1,2.26953-.977,3.41153,3.41153,0,0,1,2.291.89843.72311.72311,0,0,1,.31446.49414.50876.50876,0,0,1-.19141.35938l-.80859.69629a.48288.48288,0,0,1-.31446.15722.57959.57959,0,0,1-.38281-.22461,1.34008,1.34008,0,0,0-.97656-.42675,1.23191,1.23191,0,0,0-.91016.33691,1.083,1.083,0,0,0-.31445.79736,1.06675,1.06675,0,0,0,.22461.64014,5.697,5.697,0,0,0,1.293.96582,8.10576,8.10576,0,0,1,2.03125,1.62842,3.54489,3.54489,0,0,1,.79883,2.291,3.11037,3.11037,0,0,1-.91016,2.291,3.29835,3.29835,0,0,1-2.41406.95459,3.44491,3.44491,0,0,1-2.4375-.94336,1.05624,1.05624,0,0,1-.42774-.67383A.46286.46286,0,0,1,225.36731,56.00858Z"/><path class="cls-2" d="M235.713,46.49637V43.43045a.405.405,0,0,1,.47071-.47168h1.01171a.40564.40564,0,0,1,.47071.47168v3.06592h2.84179a.405.405,0,0,1,.47071.47168v.83105a.40495.40495,0,0,1-.47071.47168h-2.84179V57.345a.40563.40563,0,0,1-.47071.47168h-1.01171a.40495.40495,0,0,1-.47071-.47168V48.27078h-2.86523a.40494.40494,0,0,1-.4707-.47168v-.83105a.40494.40494,0,0,1,.4707-.47168Z"/><path class="cls-2" d="M250.48059,56.96317a5.09106,5.09106,0,0,1-3.08789,1.0332,5.01041,5.01041,0,0,1-3.67383-1.52734,4.43318,4.43318,0,0,1-1.38086-3.23438V46.81082a.40627.40627,0,0,1,.47266-.47168h1.00976a.407.407,0,0,1,.47266.47168v6.1543a2.90606,2.90606,0,0,0,.91992,2.13379,3.043,3.043,0,0,0,2.23438.9209q2.96484,0,2.96484-2.94238V46.81082a.40627.40627,0,0,1,.47266-.47168h1.00976a.40627.40627,0,0,1,.47266.47168V57.345a.40626.40626,0,0,1-.47266.47168h-.94336a.40495.40495,0,0,1-.4707-.47168Z"/><path class="cls-2" d="M263.99231,47.65311v-5.4917a.40495.40495,0,0,1,.4707-.47168h1.01172a.40494.40494,0,0,1,.4707.47168V57.345a.40494.40494,0,0,1-.4707.47168H264.463a.40495.40495,0,0,1-.4707-.47168v-.86474a5.91163,5.91163,0,0,1-3.95313,1.51611,5.94112,5.94112,0,0,1-4.24609-10.11865,5.8018,5.8018,0,0,1,4.24609-1.74072A5.91163,5.91163,0,0,1,263.99231,47.65311Zm-3.98633.438a3.91414,3.91414,0,1,0,2.83985,1.1455A3.84327,3.84327,0,0,0,260.006,48.0911Z"/><path class="cls-2" d="M273.67981,46.137a5.90345,5.90345,0,0,1,5.86133,5.90722,5.93136,5.93136,0,0,1-10.12891,4.21143,5.94022,5.94022,0,0,1-.02344-8.37793A5.80959,5.80959,0,0,1,273.67981,46.137Zm-.07813,1.9541a3.91414,3.91414,0,1,0,2.83985,1.1455A3.84327,3.84327,0,0,0,273.60168,48.0911Z"/><path class="cls-2" d="M281.22278,56.00858l.832-.584a.43643.43643,0,0,1,.67383.11231,1.46232,1.46232,0,0,0,1.123.50537,1.32519,1.32519,0,0,0,.97657-.39307,1.21821,1.21821,0,0,0,.38086-.8872q0-1.1565-2.41407-2.60547a5.61729,5.61729,0,0,1-1.24609-.93213,2.56517,2.56517,0,0,1-.68555-1.80811,3.15306,3.15306,0,0,1,.97657-2.30224,3.11537,3.11537,0,0,1,2.26953-.977,3.41153,3.41153,0,0,1,2.291.89843.72311.72311,0,0,1,.31446.49414.50876.50876,0,0,1-.19141.35938l-.80859.69629a.47884.47884,0,0,1-.31446.15722.58036.58036,0,0,1-.38086-.22461,1.34749,1.34749,0,0,0-.97851-.42675,1.22726,1.22726,0,0,0-.90821.33691,1.07543,1.07543,0,0,0-.31445.79736,1.05425,1.05425,0,0,0,.22461.64014,5.67086,5.67086,0,0,0,1.291.96582,8.08546,8.08546,0,0,1,2.0332,1.62842,3.54316,3.54316,0,0,1,.79687,2.291,3.10278,3.10278,0,0,1-.91015,2.291,3.29523,3.29523,0,0,1-2.41406.95459,3.44487,3.44487,0,0,1-2.4375-.94336,1.0599,1.0599,0,0,1-.42579-.67383A.46468.46468,0,0,1,281.22278,56.00858Z"/><path class="cls-2" d="M39.65247,85.345l2.24609-10.624a.4496.4496,0,0,1,.50586-.4043h1.05469q.40429,0,.40429.30323a.88871.88871,0,0,1-.02148.16845l-2.25781,10.624a.44306.44306,0,0,1-.49414.40429H40.03528q-.4043,0-.4043-.31445A.62324.62324,0,0,1,39.65247,85.345Zm4.05468-14.49853a.73309.73309,0,0,1,.55078.23584.70838.70838,0,0,1,.23438.52783,1.13467,1.13467,0,0,1-.39258.81982,1.15725,1.15725,0,0,1-.80859.34815.69971.69971,0,0,1-.79688-.78613,1.03256,1.03256,0,0,1,.35938-.77491A1.19675,1.19675,0,0,1,43.70715,70.84647Z"/><path class="cls-2" d="M48.01184,75.12528a5.928,5.928,0,0,1,3.21094-.98828,4.1779,4.1779,0,0,1,3.05469,1.168,3.5698,3.5698,0,0,1,1.11132,2.67286,4.14294,4.14294,0,0,1-.08984.86474l-1.39258,6.56983a.44305.44305,0,0,1-.49414.40429H52.35754q-.4043,0-.40429-.32568a.99177.99177,0,0,1,.01172-.146l1.3125-6.22168a3.11345,3.11345,0,0,0,.05664-.584,2.39884,2.39884,0,0,0-.83008-1.88672,2.50064,2.50064,0,0,0-1.69727-.584A3.35077,3.35077,0,0,0,47.17981,79.011l-1.34766,6.40137a.44305.44305,0,0,1-.49414.40429H44.28333q-.40431,0-.4043-.31445a.62364.62364,0,0,1,.02148-.15723l2.2461-10.624a.4496.4496,0,0,1,.50586-.4043h1.05468c.26172,0,.39453.1084.39453.32569a.51239.51239,0,0,1-.02343.146Z"/><path class="cls-2" d="M67.24817,82.71707l4.37891-8.01855a.61606.61606,0,0,1,.5957-.37061h1.21289c.21094,0,.31445.07862.31445.23584a.38847.38847,0,0,1-.0664.19092L67.60754,85.45731a.63774.63774,0,0,1-.61718.35937h-.79883a.42964.42964,0,0,1-.48242-.42675L64.22668,74.78836a.72408.72408,0,0,1-.01171-.12353q0-.34791.42773-.34815h1.20117a.42146.42146,0,0,1,.48242.42676Z"/><path class="cls-2" d="M72.713,85.345l2.2461-10.624a.45064.45064,0,0,1,.50586-.4043h1.05664q.4043,0,.40429.30323a.77235.77235,0,0,1-.02343.16845l-2.25782,10.624a.442.442,0,0,1-.49414.40429H73.09583q-.40431,0-.4043-.31445A.72781.72781,0,0,1,72.713,85.345ZM76.7677,70.84647a.73309.73309,0,0,1,.55078.23584.71042.71042,0,0,1,.23633.52783,1.13,1.13,0,0,1-.39453.81982,1.15729,1.15729,0,0,1-.8086.34815.6997.6997,0,0,1-.79687-.78613,1.03943,1.03943,0,0,1,.35937-.77491A1.20011,1.20011,0,0,1,76.7677,70.84647Z"/><path class="cls-2" d="M81.547,74.49637l.67383-3.1333a.44306.44306,0,0,1,.49414-.4043h1.05468q.4043,0,.4043.31446a.62357.62357,0,0,1-.02148.15722l-.65235,3.06592h2.82031c.27735,0,.41407.105.41407.31445a.85133.85133,0,0,1-.02149.15723l-.1914.89844a.435.435,0,0,1-.49414.40429H83.131l-1.94336,9.14161a.44305.44305,0,0,1-.49414.40429H79.63684q-.4043,0-.4043-.31445A.54807.54807,0,0,1,79.256,85.345l1.91992-9.07422H78.32434q-.4043,0-.4043-.32568a.69924.69924,0,0,1,.02149-.146l.17969-.89843a.4496.4496,0,0,1,.50586-.4043Z"/><path class="cls-2" d="M89.93176,75.12528a6.63741,6.63741,0,0,1,3.627-.98828h.20117q.4043,0,.40429.33691a1.26356,1.26356,0,0,1-.00976.13477l-.23633,1.10058a.42731.42731,0,0,1-.46094.4043h-.10156q-3.67089.07836-4.25586,2.89746l-1.34765,6.40137a.44307.44307,0,0,1-.49415.40429H86.20325q-.4043,0-.4043-.31445a.62364.62364,0,0,1,.02148-.15723l2.2461-10.624a.4496.4496,0,0,1,.50586-.4043h1.05469c.26171,0,.39453.1084.39453.32569a.51242.51242,0,0,1-.02344.146Z"/><path class="cls-2" d="M100.94934,74.137a4.69751,4.69751,0,0,1,3.40234,1.30273,4.53132,4.53132,0,0,1,1.35938,3.3916,6.80861,6.80861,0,0,1-2.28125,4.99756,7.05147,7.05147,0,0,1-5.03125,2.16748,4.76066,4.76066,0,0,1-3.46875-1.314,4.48094,4.48094,0,0,1-1.35938-3.36914,6.80434,6.80434,0,0,1,2.2793-5.02A7.14479,7.14479,0,0,1,100.94934,74.137Zm-.49414,1.9541a4.69716,4.69716,0,0,0-3.52734,1.61718A4.5671,4.5671,0,0,0,95.59192,80.909a2.94839,2.94839,0,0,0,1.00976,2.34717,3.27392,3.27392,0,0,0,2.2129.76367,4.717,4.717,0,0,0,3.54882-1.61719,4.5615,4.5615,0,0,0,1.34766-3.18945,2.964,2.964,0,0,0-1.0332-2.36963A3.28981,3.28981,0,0,0,100.4552,76.0911Z"/><path class="cls-2" d="M114.57043,80.85282a4.09537,4.09537,0,0,0,1.32618,2.26855,3.99936,3.99936,0,0,0,2.65039.89844,6.19313,6.19313,0,0,0,3.07617-.74121.56047.56047,0,0,1,.25976-.08985.40062.40062,0,0,1,.34766.26953l.38086.77491a.62384.62384,0,0,1,.08984.28076c0,.13476-.11914.27344-.35937.41553a7.27513,7.27513,0,0,1-3.81836,1.06689,6.0279,6.0279,0,0,1-4.26758-10.231,5.40167,5.40167,0,0,1,3.98828-1.62841,4.96783,4.96783,0,0,1,3.66016,1.47119,5.56856,5.56856,0,0,1,1.61719,4.11035v.6626a.40564.40564,0,0,1-.47071.47168Zm6.90821-1.68457a3.18005,3.18005,0,0,0-.94336-2.07764,3.22949,3.22949,0,0,0-2.38086-.99951,3.40125,3.40125,0,0,0-2.15625.71875,4.18706,4.18706,0,0,0-1.38281,2.3584Z"/><path class="cls-2" d="M131.87708,85.345l2.24609-10.624a.4496.4496,0,0,1,.50586-.4043h1.05469q.40429,0,.40429.30323a.88871.88871,0,0,1-.02148.16845l-2.25781,10.624a.44306.44306,0,0,1-.49414.40429h-1.05469q-.4043,0-.4043-.31445A.62324.62324,0,0,1,131.87708,85.345Zm4.05468-14.49853a.73309.73309,0,0,1,.55078.23584.70838.70838,0,0,1,.23438.52783,1.13467,1.13467,0,0,1-.39258.81982,1.15725,1.15725,0,0,1-.80859.34815.69971.69971,0,0,1-.79688-.78613,1.03256,1.03256,0,0,1,.35938-.77491A1.19675,1.19675,0,0,1,135.93176,70.84647Z"/><path class="cls-2" d="M140.23645,75.12528a5.928,5.928,0,0,1,3.21094-.98828,4.1779,4.1779,0,0,1,3.05469,1.168,3.5698,3.5698,0,0,1,1.11132,2.67286,4.14294,4.14294,0,0,1-.08984.86474L146.131,85.41239a.44306.44306,0,0,1-.49414.40429h-1.05469q-.40429,0-.40429-.32568a.99177.99177,0,0,1,.01172-.146l1.3125-6.22168a3.11428,3.11428,0,0,0,.05664-.584,2.39884,2.39884,0,0,0-.83008-1.88672,2.50064,2.50064,0,0,0-1.69727-.584,3.35077,3.35077,0,0,0-3.627,2.94238l-1.34766,6.40137a.44305.44305,0,0,1-.49414.40429h-1.05469q-.40429,0-.40429-.31445a.62364.62364,0,0,1,.02148-.15723l2.2461-10.624a.4496.4496,0,0,1,.50586-.4043h1.05468c.26172,0,.39453.1084.39453.32569a.51239.51239,0,0,1-.02343.146Z"/><path class="cls-2" d="M159.47473,82.71707l4.37891-8.01855a.61429.61429,0,0,1,.5957-.37061h1.21289c.209,0,.31445.07862.31445.23584a.39442.39442,0,0,1-.06835.19092l-6.07422,10.70264a.64051.64051,0,0,1-.61914.35937h-.79688a.4287.4287,0,0,1-.48242-.42675l-1.48242-10.60157a.72315.72315,0,0,1-.01172-.12353q0-.34791.42773-.34815h1.20117a.42236.42236,0,0,1,.48243.42676Z"/><path class="cls-2" d="M164.93958,85.345l2.24609-10.624a.4496.4496,0,0,1,.50586-.4043h1.05469q.40429,0,.40429.30323a.88871.88871,0,0,1-.02148.16845l-2.25781,10.624a.44306.44306,0,0,1-.49414.40429h-1.05469q-.4043,0-.4043-.31445A.62324.62324,0,0,1,164.93958,85.345Zm4.05468-14.49853a.73309.73309,0,0,1,.55078.23584.70838.70838,0,0,1,.23438.52783,1.13467,1.13467,0,0,1-.39258.81982,1.15725,1.15725,0,0,1-.80859.34815.69971.69971,0,0,1-.79688-.78613,1.03256,1.03256,0,0,1,.35938-.77491A1.19675,1.19675,0,0,1,168.99426,70.84647Z"/><path class="cls-2" d="M173.381,82.71707l4.37891-8.01855a.61429.61429,0,0,1,.5957-.37061h1.21289c.209,0,.31445.07862.31445.23584a.39442.39442,0,0,1-.06835.19092l-6.07422,10.70264a.64051.64051,0,0,1-.61914.35937h-.79688a.4287.4287,0,0,1-.48242-.42675L170.3595,74.78836a.72315.72315,0,0,1-.01172-.12353q0-.34791.42773-.34815h1.20117a.42236.42236,0,0,1,.48243.42676Z"/><path class="cls-2" d="M186.54309,74.137a4.69751,4.69751,0,0,1,3.40234,1.30273,4.53132,4.53132,0,0,1,1.35938,3.3916,6.80861,6.80861,0,0,1-2.28125,4.99756,7.05147,7.05147,0,0,1-5.03125,2.16748,4.76066,4.76066,0,0,1-3.46875-1.314,4.48094,4.48094,0,0,1-1.35938-3.36914,6.80434,6.80434,0,0,1,2.2793-5.02A7.14479,7.14479,0,0,1,186.54309,74.137Zm-.49414,1.9541a4.69716,4.69716,0,0,0-3.52734,1.61718,4.5671,4.5671,0,0,0-1.33594,3.20069,2.94839,2.94839,0,0,0,1.00976,2.34717,3.27392,3.27392,0,0,0,2.2129.76367,4.717,4.717,0,0,0,3.54882-1.61719,4.5615,4.5615,0,0,0,1.34766-3.18945,2.964,2.964,0,0,0-1.0332-2.36963A3.28981,3.28981,0,0,0,186.049,76.0911Z"/><path class="cls-2" d="M207.86926,75.65311v-5.4917a.405.405,0,0,1,.47071-.47168h1.01171a.405.405,0,0,1,.47071.47168V85.345a.40495.40495,0,0,1-.47071.47168H208.34a.40495.40495,0,0,1-.47071-.47168v-.86474a5.91162,5.91162,0,0,1-3.95312,1.51611A5.94113,5.94113,0,0,1,199.67,75.87772a5.8018,5.8018,0,0,1,4.2461-1.74072A5.91162,5.91162,0,0,1,207.86926,75.65311Zm-3.98633.438a3.91414,3.91414,0,1,0,2.83985,1.1455A3.84327,3.84327,0,0,0,203.88293,76.0911Z"/><path class="cls-2" d="M213.57043,80.85282a4.09317,4.09317,0,0,0,1.32422,2.26855,4.003,4.003,0,0,0,2.65039.89844,6.206,6.206,0,0,0,3.07813-.74121.54753.54753,0,0,1,.25781-.08985c.14258,0,.25781.08985.34766.26953l.38281.77491a.64962.64962,0,0,1,.08984.28076c0,.13476-.12109.27344-.35937.41553a7.28512,7.28512,0,0,1-3.81836,1.06689,6.0279,6.0279,0,0,1-4.26758-10.231,5.3973,5.3973,0,0,1,3.98633-1.62841,4.96785,4.96785,0,0,1,3.66016,1.47119,5.56856,5.56856,0,0,1,1.61718,4.11035v.6626a.40495.40495,0,0,1-.4707.47168Zm6.90625-1.68457a3.18,3.18,0,0,0-.94335-2.07764,3.2264,3.2264,0,0,0-2.38086-.99951,3.40125,3.40125,0,0,0-2.15625.71875,4.19588,4.19588,0,0,0-1.38086,2.3584Z"/><path class="cls-2" d="M233.44934,76.06864a5.17679,5.17679,0,0,1,7.70508-.4043,4.35087,4.35087,0,0,1,1.35742,3.17822V85.345a.40495.40495,0,0,1-.4707.47168h-1.01172a.40563.40563,0,0,1-.4707-.47168V79.12332a3.15,3.15,0,0,0-3.06641-3.05468,3.14213,3.14213,0,0,0-2.0332.74121,2.60749,2.60749,0,0,0-1.06641,2.08886V85.345a.40495.40495,0,0,1-.4707.47168h-.9668a.40494.40494,0,0,1-.4707-.47168V79.12332a2.90066,2.90066,0,0,0-.92188-2.13379,3.03208,3.03208,0,0,0-2.24609-.92089q-2.95312,0-2.95313,2.89746V85.345a.40626.40626,0,0,1-.47265.47168H224.881a.407.407,0,0,1-.47265-.47168V74.78836a.407.407,0,0,1,.47265-.47168h1.00977a.40627.40627,0,0,1,.47265.47168v.33692a4.955,4.955,0,0,1,3.02149-.98828A5.10217,5.10217,0,0,1,233.44934,76.06864Z"/><path class="cls-2" d="M250.27161,74.137a5.90343,5.90343,0,0,1,5.86132,5.90722,5.93136,5.93136,0,0,1-10.1289,4.21143,5.94019,5.94019,0,0,1-.02344-8.37793A5.80959,5.80959,0,0,1,250.27161,74.137Zm-.07813,1.9541a3.91414,3.91414,0,1,0,2.83985,1.1455A3.84327,3.84327,0,0,0,250.19348,76.0911Z"/><path class="cls-2" d="M259.97668,75.12528a4.93338,4.93338,0,0,1,3.00977-.98828,5.04571,5.04571,0,0,1,3.70508,1.52734,4.35287,4.35287,0,0,1,1.35937,3.17822V85.345a.40626.40626,0,0,1-.47265.47168h-1.00977a.40626.40626,0,0,1-.47265-.47168V79.12332a2.90608,2.90608,0,0,0-.91993-2.13379,3.02132,3.02132,0,0,0-2.23437-.92089,2.67419,2.67419,0,0,0-2.96485,2.94238v6.334a.407.407,0,0,1-.47265.47168h-1.00977a.40626.40626,0,0,1-.47265-.47168V74.78836a.40627.40627,0,0,1,.47265-.47168H259.504a.407.407,0,0,1,.47265.47168Z"/><path class="cls-2" d="M270.14075,84.00858l.83008-.584a.56163.56163,0,0,1,.293-.1123.54909.54909,0,0,1,.38086.22461,1.46232,1.46232,0,0,0,1.123.50537,1.32964,1.32964,0,0,0,.97852-.39307,1.21821,1.21821,0,0,0,.38086-.8872q0-1.1565-2.41407-2.60547a5.57073,5.57073,0,0,1-1.24609-.93213,2.56517,2.56517,0,0,1-.68555-1.80811,3.15305,3.15305,0,0,1,.97656-2.30224,3.11541,3.11541,0,0,1,2.26954-.97705,3.41153,3.41153,0,0,1,2.291.89843.72309.72309,0,0,1,.31445.49414.50874.50874,0,0,1-.1914.35938l-.8086.69629a.48286.48286,0,0,1-.31445.15722.57959.57959,0,0,1-.38281-.22461,1.3401,1.3401,0,0,0-.97656-.42675,1.23191,1.23191,0,0,0-.91016.33691,1.083,1.083,0,0,0-.31445.79736,1.06675,1.06675,0,0,0,.22461.64014,5.69646,5.69646,0,0,0,1.293.96582,8.10576,8.10576,0,0,1,2.03125,1.62842,3.54488,3.54488,0,0,1,.79882,2.291,3.11036,3.11036,0,0,1-.91015,2.291,3.29836,3.29836,0,0,1-2.41407.95459,3.44491,3.44491,0,0,1-2.4375-.94336,1.05626,1.05626,0,0,1-.42773-.67383A.46286.46286,0,0,1,270.14075,84.00858Z"/><path class="cls-2" d="M280.48645,74.49637V71.43045a.405.405,0,0,1,.4707-.47168h1.01172a.40564.40564,0,0,1,.47071.47168v3.06592h2.84179a.405.405,0,0,1,.47071.47168v.831a.40495.40495,0,0,1-.47071.47168h-2.84179V85.345a.40564.40564,0,0,1-.47071.47168h-1.01172a.40495.40495,0,0,1-.4707-.47168V76.27078h-2.86523a.40495.40495,0,0,1-.47071-.47168v-.831a.405.405,0,0,1,.47071-.47168Z"/><path class="cls-2" d="M289.08411,75.12528a5.71258,5.71258,0,0,1,3.43554-.98828h.21289c.32227-.00733.48047.146.47266.46044v1.04444c.01367.30713-.123.46435-.416.47168h-.0664q-3.62988.09009-3.63867,2.89746v6.334a.407.407,0,0,1-.47266.47168h-1.00977a.40626.40626,0,0,1-.47265-.47168V74.78836a.40627.40627,0,0,1,.47265-.47168h1.00977a.407.407,0,0,1,.47266.47168Z"/><path class="cls-2" d="M303.89661,75.65311V74.7659a.40494.40494,0,0,1,.4707-.47168H305.379a.40563.40563,0,0,1,.4707.47168V85.345a.40563.40563,0,0,1-.4707.47168h-1.01172a.40494.40494,0,0,1-.4707-.47168v-.86474a6.05262,6.05262,0,0,1-3.95313,1.51611,5.93973,5.93973,0,0,1-4.24609-10.11865,5.80178,5.80178,0,0,1,4.24609-1.74072A6.05262,6.05262,0,0,1,303.89661,75.65311Zm-3.98828.438a3.91422,3.91422,0,1,0,2.84179,1.1455A3.842,3.842,0,0,0,299.90833,76.0911Z"/><path class="cls-2" d="M317.11731,76.06864a5.17461,5.17461,0,0,1,7.70312-.4043,4.35288,4.35288,0,0,1,1.35938,3.17822V85.345a.40563.40563,0,0,1-.4707.47168h-1.01172a.40495.40495,0,0,1-.47071-.47168V79.12332a3.15,3.15,0,0,0-3.0664-3.05468,3.13834,3.13834,0,0,0-2.0332.74121,2.60749,2.60749,0,0,0-1.06641,2.08886V85.345a.40626.40626,0,0,1-.47266.47168h-.96484a.40626.40626,0,0,1-.47266-.47168V79.12332a2.90607,2.90607,0,0,0-.91992-2.13379,3.03515,3.03515,0,0,0-2.24609-.92089q-2.95312,0-2.95313,2.89746V85.345a.407.407,0,0,1-.47265.47168H308.549a.40626.40626,0,0,1-.47266-.47168V74.78836a.40627.40627,0,0,1,.47266-.47168h1.00977a.407.407,0,0,1,.47265.47168v.33692a4.94932,4.94932,0,0,1,3.01953-.98828A5.106,5.106,0,0,1,317.11731,76.06864Z"/><path class="cls-2" d="M49.16418,103.63065v-.86475a.40627.40627,0,0,1,.47266-.47168h1.00977a.40626.40626,0,0,1,.47265.47168v15.2959a.40626.40626,0,0,1-.47265.47168H49.63684a.40627.40627,0,0,1-.47266-.47168v-5.604a5.908,5.908,0,0,1-3.95312,1.51611,5.79743,5.79743,0,0,1-4.24414-1.74072,5.93493,5.93493,0,0,1,4.24414-10.11866A5.908,5.908,0,0,1,49.16418,103.63065Zm-3.998.46045a3.97852,3.97852,0,0,0-2.80664,6.76074,4.04047,4.04047,0,0,0,5.66015.02246,3.81719,3.81719,0,0,0,1.14453-2.80762,3.93139,3.93139,0,0,0-3.998-3.97558Z"/><path class="cls-2" d="M61.34973,112.96317a5.09106,5.09106,0,0,1-3.08789,1.0332A5.01041,5.01041,0,0,1,54.588,112.469a4.43318,4.43318,0,0,1-1.38086-3.23438v-6.42383a.40627.40627,0,0,1,.47266-.47168h1.00977a.407.407,0,0,1,.47265.47168v6.1543a2.90606,2.90606,0,0,0,.91992,2.13379,3.043,3.043,0,0,0,2.23438.9209q2.96484,0,2.96484-2.94238v-6.26661a.40627.40627,0,0,1,.47266-.47168h1.00976a.40627.40627,0,0,1,.47266.47168V113.345a.40626.40626,0,0,1-.47266.47168h-.94336a.40495.40495,0,0,1-.4707-.47168Z"/><path class="cls-2" d="M67.09192,108.85282a4.0953,4.0953,0,0,0,1.32617,2.26855,3.99936,3.99936,0,0,0,2.65039.89844,6.19313,6.19313,0,0,0,3.07617-.74121.56047.56047,0,0,1,.25977-.08985.40064.40064,0,0,1,.34766.26953l.38085.77491a.62387.62387,0,0,1,.08985.28076c0,.13476-.11914.27344-.35938.41553a7.27511,7.27511,0,0,1-3.81836,1.06689,6.02789,6.02789,0,0,1-4.26757-10.231,5.40165,5.40165,0,0,1,3.98828-1.62841,4.96782,4.96782,0,0,1,3.66015,1.47119,5.56852,5.56852,0,0,1,1.61719,4.11035v.6626a.40564.40564,0,0,1-.4707.47168Zm6.9082-1.68457a3.18,3.18,0,0,0-.94336-2.07764,3.22946,3.22946,0,0,0-2.38086-.99951,3.40125,3.40125,0,0,0-2.15625.71875,4.18712,4.18712,0,0,0-1.38281,2.3584Z"/><path class="cls-2" d="M94.12512,103.65311v-.88721a.405.405,0,0,1,.47071-.47168h1.01171a.40564.40564,0,0,1,.47071.47168V113.345a.40563.40563,0,0,1-.47071.47168H94.59583a.40495.40495,0,0,1-.47071-.47168v-.86474a6.05261,6.05261,0,0,1-3.95312,1.51611,5.93973,5.93973,0,0,1-4.2461-10.11865A5.8018,5.8018,0,0,1,90.172,102.137,6.05261,6.05261,0,0,1,94.12512,103.65311Zm-3.98828.438a3.9142,3.9142,0,1,0,2.8418,1.1455A3.842,3.842,0,0,0,90.13684,104.0911Z"/><path class="cls-2" d="M106.34387,103.12528a5.71259,5.71259,0,0,1,3.43555-.98828h.21289c.32227-.00733.48047.146.47266.46044v1.04444c.01367.30713-.123.46435-.416.47168h-.06641q-3.62988.09009-3.63867,2.89746v6.334a.407.407,0,0,1-.47265.47168h-1.00977a.40626.40626,0,0,1-.47266-.47168V102.78836a.40627.40627,0,0,1,.47266-.47168h1.00977a.407.407,0,0,1,.47265.47168Z"/><path class="cls-2" d="M117.24817,102.137a5.90345,5.90345,0,0,1,5.86133,5.90722,5.93136,5.93136,0,0,1-10.12891,4.21143,5.93545,5.93545,0,0,1-.02344-8.37793A5.80651,5.80651,0,0,1,117.24817,102.137Zm-.08008,1.9541a3.9142,3.9142,0,1,0,2.8418,1.1455A3.842,3.842,0,0,0,117.16809,104.0911Z"/><path class="cls-2" d="M124.79114,112.00858l.83008-.584a.56163.56163,0,0,1,.293-.1123.54907.54907,0,0,1,.38086.22461,1.46232,1.46232,0,0,0,1.12305.50537,1.32964,1.32964,0,0,0,.97852-.39307,1.21821,1.21821,0,0,0,.38086-.8872q0-1.1565-2.41407-2.60547a5.57073,5.57073,0,0,1-1.24609-.93213,2.56517,2.56517,0,0,1-.68555-1.80811,3.153,3.153,0,0,1,.97657-2.30224,3.11537,3.11537,0,0,1,2.26953-.97705,3.41153,3.41153,0,0,1,2.291.89843.72311.72311,0,0,1,.31446.49414.50876.50876,0,0,1-.19141.35938l-.80859.69629a.4829.4829,0,0,1-.31446.15722.57959.57959,0,0,1-.38281-.22461,1.3401,1.3401,0,0,0-.97656-.42675,1.23191,1.23191,0,0,0-.91016.33691,1.083,1.083,0,0,0-.31445.79736,1.06675,1.06675,0,0,0,.22461.64014,5.69671,5.69671,0,0,0,1.293.96582,8.10576,8.10576,0,0,1,2.03125,1.62842,3.54488,3.54488,0,0,1,.79882,2.291,3.11036,3.11036,0,0,1-.91015,2.291,3.29835,3.29835,0,0,1-2.41406.95459,3.44487,3.44487,0,0,1-2.4375-.94336,1.05624,1.05624,0,0,1-.42774-.67383A.46286.46286,0,0,1,124.79114,112.00858Z"/><path class="cls-2" d="M140.51575,112.96317a5.09108,5.09108,0,0,1-3.08789,1.0332A5.01041,5.01041,0,0,1,133.754,112.469a4.43318,4.43318,0,0,1-1.38086-3.23438v-6.42383a.40627.40627,0,0,1,.47266-.47168h1.00976a.407.407,0,0,1,.47266.47168v6.1543a2.90606,2.90606,0,0,0,.91992,2.13379,3.043,3.043,0,0,0,2.23437.9209q2.96486,0,2.96485-2.94238v-6.26661a.40627.40627,0,0,1,.47265-.47168h1.00977a.40627.40627,0,0,1,.47266.47168V113.345a.40626.40626,0,0,1-.47266.47168h-.94336a.40494.40494,0,0,1-.4707-.47168Z"/><path class="cls-2" d="M148.4552,110.69461l2.66211-7.97363a.49964.49964,0,0,1,.52734-.39307h1.22461v-.01123q.09082-.06738.26953.08985a.2426.2426,0,0,1,.08985.19091.60539.60539,0,0,1-.03321.17969l-3.79687,10.65772a.50989.50989,0,0,1-.53906.38183h-.83008a.492.492,0,0,1-.52734-.38183l-3.76368-10.65772a.60566.60566,0,0,1-.0332-.17969c0-.187.12305-.28076.37109-.28076h1.22461a.492.492,0,0,1,.52735.38184Z"/><path class="cls-2" d="M163.78918,103.65311v-.88721a.405.405,0,0,1,.47071-.47168h1.01172a.40563.40563,0,0,1,.4707.47168V113.345a.40563.40563,0,0,1-.4707.47168h-1.01172a.40495.40495,0,0,1-.47071-.47168v-.86474a6.05261,6.05261,0,0,1-3.95312,1.51611A5.93973,5.93973,0,0,1,155.59,103.87772a5.80177,5.80177,0,0,1,4.24609-1.74072A6.05261,6.05261,0,0,1,163.78918,103.65311Zm-3.98828.438a3.9142,3.9142,0,1,0,2.8418,1.1455A3.842,3.842,0,0,0,159.8009,104.0911Z"/><path class="cls-2" d="M167.94543,112.00858l.832-.584a.43642.43642,0,0,1,.67382.11231,1.46232,1.46232,0,0,0,1.12305.50537,1.32519,1.32519,0,0,0,.97656-.39307,1.21817,1.21817,0,0,0,.38086-.8872q0-1.1565-2.41406-2.60547a5.61729,5.61729,0,0,1-1.24609-.93213,2.56517,2.56517,0,0,1-.68555-1.80811,3.15305,3.15305,0,0,1,.97656-2.30224,3.1154,3.1154,0,0,1,2.26953-.97705,3.41156,3.41156,0,0,1,2.291.89843.72313.72313,0,0,1,.31445.49414.50874.50874,0,0,1-.1914.35938l-.8086.69629a.47882.47882,0,0,1-.31445.15722.58036.58036,0,0,1-.38086-.22461,1.34752,1.34752,0,0,0-.97852-.42675,1.22724,1.22724,0,0,0-.9082.33691,1.07539,1.07539,0,0,0-.31445.79736,1.05425,1.05425,0,0,0,.22461.64014,5.67049,5.67049,0,0,0,1.291.96582,8.08554,8.08554,0,0,1,2.03321,1.62842,3.54316,3.54316,0,0,1,.79687,2.291,3.10275,3.10275,0,0,1-.91016,2.291,3.2952,3.2952,0,0,1-2.41406.95459,3.44491,3.44491,0,0,1-2.4375-.94336,1.05992,1.05992,0,0,1-.42578-.67383A.46467.46467,0,0,1,167.94543,112.00858Z"/><path class="cls-2" d="M178.29114,102.49637V99.43045a.40564.40564,0,0,1,.4707-.47168h1.01172a.40495.40495,0,0,1,.4707.47168v3.06592h2.8418a.40627.40627,0,0,1,.47266.47168v.831a.40626.40626,0,0,1-.47266.47168h-2.8418V113.345a.40494.40494,0,0,1-.4707.47168h-1.01172a.40563.40563,0,0,1-.4707-.47168v-9.07422h-2.86328a.40626.40626,0,0,1-.47266-.47168v-.831a.40627.40627,0,0,1,.47266-.47168Z"/><path class="cls-2" d="M194.16809,103.65311v-.88721a.40495.40495,0,0,1,.4707-.47168h1.01172a.40564.40564,0,0,1,.47071.47168V113.345a.40563.40563,0,0,1-.47071.47168h-1.01172a.40495.40495,0,0,1-.4707-.47168v-.86474a6.05261,6.05261,0,0,1-3.95312,1.51611,5.93973,5.93973,0,0,1-4.2461-10.11865,5.8018,5.8018,0,0,1,4.2461-1.74072A6.05261,6.05261,0,0,1,194.16809,103.65311Zm-3.98828.438a3.9142,3.9142,0,1,0,2.8418,1.1455A3.842,3.842,0,0,0,190.17981,104.0911Z"/><path class="cls-2" d="M200.756,102.49637V99.43045a.40564.40564,0,0,1,.4707-.47168h1.01172a.405.405,0,0,1,.47071.47168v3.06592h2.84179a.40627.40627,0,0,1,.47266.47168v.831a.40626.40626,0,0,1-.47266.47168h-2.84179V113.345a.40495.40495,0,0,1-.47071.47168h-1.01172a.40563.40563,0,0,1-.4707-.47168v-9.07422H197.8927a.40626.40626,0,0,1-.47266-.47168v-.831a.40627.40627,0,0,1,.47266-.47168Z"/><path class="cls-2" d="M207.381,113.345V102.78836a.407.407,0,0,1,.47266-.47168h1.00976a.40627.40627,0,0,1,.47266.47168V113.345a.40626.40626,0,0,1-.47266.47168h-1.00976A.407.407,0,0,1,207.381,113.345Zm.97852-14.50976a.93732.93732,0,0,1,.67383.30322.90593.90593,0,0,1,.291.65137.99247.99247,0,0,1-.291.70752.97348.97348,0,0,1-1.38282-1.37012A.96676.96676,0,0,1,208.3595,98.83524Z"/><path class="cls-2" d="M213.545,103.12528a4.93749,4.93749,0,0,1,3.00977-.98828,5.0426,5.0426,0,0,1,3.70508,1.52734,4.35287,4.35287,0,0,1,1.35937,3.17822V113.345a.40494.40494,0,0,1-.4707.47168h-1.01172a.40495.40495,0,0,1-.4707-.47168v-6.22168a2.90066,2.90066,0,0,0-.92188-2.13379,3.01825,3.01825,0,0,0-2.23437-.92089A2.67419,2.67419,0,0,0,213.545,107.011v6.334a.40626.40626,0,0,1-.47265.47168h-1.00977a.407.407,0,0,1-.47265-.47168V102.78836a.407.407,0,0,1,.47265-.47168h1.00977a.40627.40627,0,0,1,.47265.47168Z"/><path class="cls-2" d="M233.32629,103.65311v-.88721a.405.405,0,0,1,.47071-.47168h1.01172a.40563.40563,0,0,1,.4707.47168V113.345a.40563.40563,0,0,1-.4707.47168H233.797a.40495.40495,0,0,1-.47071-.47168v-.86474a6.05261,6.05261,0,0,1-3.95312,1.51611,5.93973,5.93973,0,0,1-4.24609-10.11865,5.80177,5.80177,0,0,1,4.24609-1.74072A6.05261,6.05261,0,0,1,233.32629,103.65311Zm-3.98828.438a3.9142,3.9142,0,1,0,2.8418,1.1455A3.842,3.842,0,0,0,229.338,104.0911Z"/><path class="cls-2" d="M245.545,103.12528a4.93338,4.93338,0,0,1,3.00977-.98828,5.04571,5.04571,0,0,1,3.70508,1.52734,4.35287,4.35287,0,0,1,1.35937,3.17822V113.345a.40626.40626,0,0,1-.47265.47168h-1.00977a.40627.40627,0,0,1-.47266-.47168v-6.22168a2.90607,2.90607,0,0,0-.91992-2.13379,3.02132,3.02132,0,0,0-2.23437-.92089A2.67419,2.67419,0,0,0,245.545,107.011v6.334a.407.407,0,0,1-.47265.47168h-1.00977a.40626.40626,0,0,1-.47265-.47168V102.78836a.40627.40627,0,0,1,.47265-.47168h1.00977a.407.407,0,0,1,.47265.47168Z"/><path class="cls-2" d="M265.32434,103.65311v-.88721a.40563.40563,0,0,1,.4707-.47168h1.01172a.405.405,0,0,1,.47071.47168V113.345a.40495.40495,0,0,1-.47071.47168H265.795a.40563.40563,0,0,1-.4707-.47168v-.86474a6.05261,6.05261,0,0,1-3.95312,1.51611,5.94113,5.94113,0,0,1-4.2461-10.11865,5.8018,5.8018,0,0,1,4.2461-1.74072A6.05261,6.05261,0,0,1,265.32434,103.65311Zm-3.98633.438a3.91414,3.91414,0,1,0,2.83985,1.1455A3.84327,3.84327,0,0,0,261.338,104.0911Zm-3.49414-5.30078-.14453-.20215a.55406.55406,0,0,1-.13476-.31446,1.02094,1.02094,0,0,1,.35937-.584,2.616,2.616,0,0,1,1.875-.86475,5.06082,5.06082,0,0,1,1.59375.4043,4.70211,4.70211,0,0,0,1.52734.39307,1.75885,1.75885,0,0,0,1.21289-.5166.5941.5941,0,0,1,.34961-.20215.396.396,0,0,1,.31446.16845l.14453.19092a.54735.54735,0,0,1,.14648.33692.88821.88821,0,0,1-.24609.50537,2.18822,2.18822,0,0,1-1.707.94336,5.40062,5.40062,0,0,1-1.69727-.438,5.06858,5.06858,0,0,0-1.61719-.4043,1.81779,1.81779,0,0,0-1.08789.438,1.32528,1.32528,0,0,1-.5625.32568A.42084.42084,0,0,1,257.84387,98.79032Z"/><path class="cls-2" d="M275.09973,102.137a5.90345,5.90345,0,0,1,5.86133,5.90722,5.93136,5.93136,0,0,1-10.12891,4.21143,5.93546,5.93546,0,0,1-.02343-8.37793A5.80647,5.80647,0,0,1,275.09973,102.137Zm-.08008,1.9541a3.9142,3.9142,0,1,0,2.8418,1.1455A3.842,3.842,0,0,0,275.01965,104.0911Z"/><path class="cls-2" d="M291.14661,108.85282a4.0953,4.0953,0,0,0,1.32617,2.26855,3.99936,3.99936,0,0,0,2.65039.89844,6.19313,6.19313,0,0,0,3.07617-.74121.56047.56047,0,0,1,.25977-.08985.40061.40061,0,0,1,.34765.26953l.38086.77491a.61431.61431,0,0,1,.08985.26953c0,.14209-.11914.28467-.35938.42676a7.27513,7.27513,0,0,1-3.81836,1.06689,6.0279,6.0279,0,0,1-4.26758-10.231,5.40169,5.40169,0,0,1,3.98828-1.62841,4.96783,4.96783,0,0,1,3.66016,1.47119,5.56852,5.56852,0,0,1,1.61719,4.11035v.6626a.40564.40564,0,0,1-.4707.47168Zm6.9082-1.68457a3.18005,3.18005,0,0,0-.94336-2.07764,3.22948,3.22948,0,0,0-2.38086-.99951,3.40125,3.40125,0,0,0-2.15625.71875,4.18706,4.18706,0,0,0-1.38281,2.3584Zm-5.57031-6.52491-.13477-.33691a.61772.61772,0,0,1-.06836-.24707c0-.1499.10547-.26953.31446-.35938l3.54882-1.46a.77855.77855,0,0,1,.25782-.06738c.15039,0,.26953.105.35937.31445l.13477.31446a.69778.69778,0,0,1,.06836.2583c0,.1499-.10547.26953-.31446.35937l-3.54883,1.47119a.69763.69763,0,0,1-.25781.06739C292.69348,100.9578,292.57434,100.85282,292.4845,100.64334Z"/><path class="cls-2" d="M41.56262,131.12528a4.93338,4.93338,0,0,1,3.00977-.98828,5.04571,5.04571,0,0,1,3.70508,1.52734,4.35287,4.35287,0,0,1,1.35937,3.17822V141.345a.40626.40626,0,0,1-.47266.47168H48.15442a.40626.40626,0,0,1-.47266-.47168v-6.22168a2.90607,2.90607,0,0,0-.91992-2.13379,3.02132,3.02132,0,0,0-2.23437-.92089,2.67419,2.67419,0,0,0-2.96485,2.94238v6.334a.407.407,0,0,1-.47265.47168H40.0802a.40626.40626,0,0,1-.47266-.47168V130.78836a.40627.40627,0,0,1,.47266-.47168H41.09a.407.407,0,0,1,.47265.47168Z"/><path class="cls-2" d="M53.44739,136.85282a4.09306,4.09306,0,0,0,1.32422,2.26855,4.003,4.003,0,0,0,2.65039.89844,6.2059,6.2059,0,0,0,3.07812-.74121.5476.5476,0,0,1,.25781-.08985c.14258,0,.25782.08985.34766.26953l.38281.77491a.64952.64952,0,0,1,.08985.28076c0,.13476-.1211.27344-.35938.41553a7.28512,7.28512,0,0,1-3.81836,1.06689,6.0279,6.0279,0,0,1-4.26758-10.231,5.3973,5.3973,0,0,1,3.98633-1.62841,4.96783,4.96783,0,0,1,3.66016,1.47119,5.56856,5.56856,0,0,1,1.61719,4.11035v.6626a.405.405,0,0,1-.47071.47168Zm6.90625-1.68457a3.18005,3.18005,0,0,0-.94336-2.07764,3.22638,3.22638,0,0,0-2.38086-.99951,3.40125,3.40125,0,0,0-2.15625.71875,4.19594,4.19594,0,0,0-1.38086,2.3584Z"/><path class="cls-2" d="M73.32629,132.06864a5.17679,5.17679,0,0,1,7.70508-.4043,4.35087,4.35087,0,0,1,1.35742,3.17822V141.345a.40494.40494,0,0,1-.4707.47168H80.90637a.40563.40563,0,0,1-.4707-.47168v-6.22168a3.15,3.15,0,0,0-3.06641-3.05468,3.14215,3.14215,0,0,0-2.0332.74121,2.60749,2.60749,0,0,0-1.06641,2.08886V141.345a.40494.40494,0,0,1-.4707.47168h-.9668a.40495.40495,0,0,1-.4707-.47168v-6.22168a2.90069,2.90069,0,0,0-.92187-2.13379,3.03208,3.03208,0,0,0-2.2461-.92089q-2.95312,0-2.95312,2.89746v6.3789a.40626.40626,0,0,1-.47266.47168H64.75793a.407.407,0,0,1-.47265-.47168V130.78836a.407.407,0,0,1,.47265-.47168H65.7677a.40627.40627,0,0,1,.47266.47168v.33692a4.95492,4.95492,0,0,1,3.02148-.98828A5.10216,5.10216,0,0,1,73.32629,132.06864Z"/><path class="cls-2" d="M98.92,140.96317a5.091,5.091,0,0,1-3.08789,1.0332,5.00607,5.00607,0,0,1-3.67187-1.52734,4.42761,4.42761,0,0,1-1.38281-3.23438v-6.42383a.407.407,0,0,1,.47265-.47168h1.00977a.40627.40627,0,0,1,.47265.47168v6.1543a2.906,2.906,0,0,0,.91993,2.13379,3.04738,3.04738,0,0,0,2.23632.9209q2.96486,0,2.96485-2.94238v-6.26661a.405.405,0,0,1,.4707-.47168h1.01172a.40495.40495,0,0,1,.4707.47168V141.345a.40494.40494,0,0,1-.4707.47168H99.3927A.40626.40626,0,0,1,98.92,141.345Z"/><path class="cls-2" d="M112.09583,132.06864a5.17461,5.17461,0,0,1,7.70312-.4043,4.35288,4.35288,0,0,1,1.35938,3.17822V141.345a.40564.40564,0,0,1-.47071.47168H119.6759a.40495.40495,0,0,1-.4707-.47168v-6.22168a3.15,3.15,0,0,0-3.06641-3.05468,3.13834,3.13834,0,0,0-2.0332.74121,2.60749,2.60749,0,0,0-1.06641,2.08886V141.345a.40626.40626,0,0,1-.47265.47168h-.96485a.40626.40626,0,0,1-.47265-.47168v-6.22168a2.90607,2.90607,0,0,0-.91992-2.13379,3.03517,3.03517,0,0,0-2.2461-.92089q-2.95312,0-2.95312,2.89746v6.3789a.407.407,0,0,1-.47266.47168h-1.00976a.40626.40626,0,0,1-.47266-.47168V130.78836a.40627.40627,0,0,1,.47266-.47168h1.00976a.407.407,0,0,1,.47266.47168v.33692a4.94928,4.94928,0,0,1,3.01953-.98828A5.106,5.106,0,0,1,112.09583,132.06864Z"/><path class="cls-2" d="M129.547,141.345V130.78836a.407.407,0,0,1,.47265-.47168h1.00977a.40628.40628,0,0,1,.47266.47168V141.345a.40627.40627,0,0,1-.47266.47168h-1.00977A.407.407,0,0,1,129.547,141.345Zm.97851-14.50976a.93729.93729,0,0,1,.67383.30322.9059.9059,0,0,1,.291.65137.99244.99244,0,0,1-.291.70752.97348.97348,0,0,1-1.38281-1.37012A.96674.96674,0,0,1,130.52551,126.83524Z"/><path class="cls-2" d="M135.71106,131.12528a4.93745,4.93745,0,0,1,3.00977-.98828,5.04256,5.04256,0,0,1,3.70507,1.52734,4.35288,4.35288,0,0,1,1.35938,3.17822V141.345a.40495.40495,0,0,1-.4707.47168h-1.01172a.40495.40495,0,0,1-.47071-.47168v-6.22168a2.90069,2.90069,0,0,0-.92187-2.13379,3.01825,3.01825,0,0,0-2.23438-.92089,2.67419,2.67419,0,0,0-2.96484,2.94238v6.334a.40626.40626,0,0,1-.47266.47168h-1.00976a.407.407,0,0,1-.47266-.47168V130.78836a.407.407,0,0,1,.47266-.47168h1.00976a.40627.40627,0,0,1,.47266.47168Z"/><path class="cls-2" d="M146.01184,141.345V130.78836a.40627.40627,0,0,1,.47266-.47168h1.00976a.407.407,0,0,1,.47266.47168V141.345a.407.407,0,0,1-.47266.47168H146.4845A.40626.40626,0,0,1,146.01184,141.345Zm.97656-14.50976a.93077.93077,0,0,1,.67383.30322.90062.90062,0,0,1,.293.65137.98637.98637,0,0,1-.293.70752.92066.92066,0,0,1-.67383.28076.908.908,0,0,1-.68359-.292.96178.96178,0,0,1-.02344-1.35889A.96238.96238,0,0,1,146.9884,126.83524Z"/><path class="cls-2" d="M152.174,140.48026v.86474a.40626.40626,0,0,1-.47266.47168h-1.00976a.407.407,0,0,1-.47266-.47168V126.16141a.407.407,0,0,1,.47266-.47168h1.00976a.40627.40627,0,0,1,.47266.47168v5.4917a5.908,5.908,0,0,1,3.95313-1.51611,5.763,5.763,0,0,1,4.23437,1.74072,5.93561,5.93561,0,0,1-4.23437,10.11865A5.93716,5.93716,0,0,1,152.174,140.48026Zm3.91992-8.38916a3.93257,3.93257,0,1,0,2.88477,1.168A3.87036,3.87036,0,0,0,156.09387,132.0911Z"/><path class="cls-2" d="M164.01379,141.345V130.78836a.40627.40627,0,0,1,.47266-.47168h1.00977a.407.407,0,0,1,.47265.47168V141.345a.407.407,0,0,1-.47265.47168h-1.00977A.40626.40626,0,0,1,164.01379,141.345Zm.97657-14.50976a.93077.93077,0,0,1,.67382.30322.90058.90058,0,0,1,.293.65137.98633.98633,0,0,1-.293.70752.92064.92064,0,0,1-.67382.28076.908.908,0,0,1-.6836-.292.96177.96177,0,0,1-.02343-1.35889A.96236.96236,0,0,1,164.99036,126.83524Z"/><path class="cls-2" d="M177.59973,131.65311v-5.4917a.40495.40495,0,0,1,.4707-.47168h1.01172a.405.405,0,0,1,.47071.47168V141.345a.40495.40495,0,0,1-.47071.47168h-1.01172a.40495.40495,0,0,1-.4707-.47168v-.86474a5.91162,5.91162,0,0,1-3.95312,1.51611,5.94113,5.94113,0,0,1-4.2461-10.11865,5.8018,5.8018,0,0,1,4.2461-1.74072A5.91162,5.91162,0,0,1,177.59973,131.65311Zm-3.98633.438a3.91414,3.91414,0,1,0,2.83985,1.1455A3.84327,3.84327,0,0,0,173.6134,132.0911Z"/><path class="cls-2" d="M187.28723,130.137a5.90345,5.90345,0,0,1,5.86133,5.90722,5.93136,5.93136,0,0,1-10.12891,4.21143,5.94021,5.94021,0,0,1-.02343-8.37793A5.80955,5.80955,0,0,1,187.28723,130.137Zm-.07812,1.9541a3.91414,3.91414,0,1,0,2.83984,1.1455A3.84328,3.84328,0,0,0,187.20911,132.0911Z"/><path class="cls-2" d="M196.99231,131.12528a5.71691,5.71691,0,0,1,3.43555-.98828h.21484c.32227-.00733.47852.146.4707.46044v1.04444q.02344.4607-.416.47168H200.631q-3.627.09009-3.63867,2.89746v6.334a.40626.40626,0,0,1-.47266.47168h-1.00976a.407.407,0,0,1-.47266-.47168V130.78836a.407.407,0,0,1,.47266-.47168h1.00976a.40627.40627,0,0,1,.47266.47168Z"/><path class="cls-2" d="M211.43567,131.12528a4.93335,4.93335,0,0,1,3.00976-.98828,5.0457,5.0457,0,0,1,3.70508,1.52734,4.35288,4.35288,0,0,1,1.35938,3.17822V141.345a.40626.40626,0,0,1-.47266.47168h-1.00976a.40626.40626,0,0,1-.47266-.47168v-6.22168a2.90607,2.90607,0,0,0-.91992-2.13379,3.02133,3.02133,0,0,0-2.23438-.92089,2.67419,2.67419,0,0,0-2.96484,2.94238v6.334a.407.407,0,0,1-.47266.47168h-1.00976a.40626.40626,0,0,1-.47266-.47168V130.78836a.40627.40627,0,0,1,.47266-.47168H210.963a.407.407,0,0,1,.47266.47168Z"/><path class="cls-2" d="M223.32043,136.85282a4.09317,4.09317,0,0,0,1.32422,2.26855,4.003,4.003,0,0,0,2.65039.89844,6.206,6.206,0,0,0,3.07813-.74121.54753.54753,0,0,1,.25781-.08985c.14258,0,.25781.08985.34766.26953l.38281.77491a.64962.64962,0,0,1,.08984.28076c0,.13476-.12109.27344-.35937.41553a7.28512,7.28512,0,0,1-3.81836,1.06689,6.0279,6.0279,0,0,1-4.26758-10.231,5.3973,5.3973,0,0,1,3.98633-1.62841,4.96785,4.96785,0,0,1,3.66016,1.47119,5.56856,5.56856,0,0,1,1.61718,4.11035v.6626a.40495.40495,0,0,1-.4707.47168Zm6.90625-1.68457a3.18,3.18,0,0,0-.94335-2.07764,3.2264,3.2264,0,0,0-2.38086-.99951,3.40125,3.40125,0,0,0-2.15625.71875,4.19588,4.19588,0,0,0-1.38086,2.3584Z"/><path class="cls-2" d="M243.19934,132.06864a5.17462,5.17462,0,0,1,7.70313-.4043,4.35287,4.35287,0,0,1,1.35937,3.17822V141.345a.40563.40563,0,0,1-.4707.47168h-1.01172a.40494.40494,0,0,1-.4707-.47168v-6.22168a3.15,3.15,0,0,0-3.06641-3.05468,3.13834,3.13834,0,0,0-2.0332.74121,2.60749,2.60749,0,0,0-1.06641,2.08886V141.345a.40626.40626,0,0,1-.47266.47168h-.96484a.40626.40626,0,0,1-.47266-.47168v-6.22168a2.90607,2.90607,0,0,0-.91992-2.13379,3.03515,3.03515,0,0,0-2.24609-.92089q-2.95312,0-2.95313,2.89746v6.3789a.407.407,0,0,1-.47265.47168H234.631a.40626.40626,0,0,1-.47265-.47168V130.78836a.40627.40627,0,0,1,.47265-.47168h1.00977a.407.407,0,0,1,.47265.47168v.33692a4.94932,4.94932,0,0,1,3.01953-.98828A5.106,5.106,0,0,1,243.19934,132.06864Z"/><path class="cls-2" d="M268.79309,140.96317a5.09106,5.09106,0,0,1-3.08789,1.0332,5.006,5.006,0,0,1-3.67187-1.52734,4.42762,4.42762,0,0,1-1.38282-3.23438v-6.42383a.407.407,0,0,1,.47266-.47168h1.00976a.40627.40627,0,0,1,.47266.47168v6.1543a2.90606,2.90606,0,0,0,.91992,2.13379,3.04742,3.04742,0,0,0,2.23633.9209q2.96484,0,2.96484-2.94238v-6.26661a.405.405,0,0,1,.47071-.47168h1.01172a.405.405,0,0,1,.4707.47168V141.345a.40495.40495,0,0,1-.4707.47168h-.94336a.40626.40626,0,0,1-.47266-.47168Z"/><path class="cls-2" d="M281.96887,132.06864a5.17462,5.17462,0,0,1,7.70313-.4043,4.35287,4.35287,0,0,1,1.35937,3.17822V141.345a.40563.40563,0,0,1-.4707.47168H289.549a.40494.40494,0,0,1-.4707-.47168v-6.22168a3.15,3.15,0,0,0-3.06641-3.05468,3.13834,3.13834,0,0,0-2.0332.74121,2.60749,2.60749,0,0,0-1.06641,2.08886V141.345a.40626.40626,0,0,1-.47265.47168h-.96485a.40626.40626,0,0,1-.47265-.47168v-6.22168a2.90608,2.90608,0,0,0-.91993-2.13379,3.03515,3.03515,0,0,0-2.24609-.92089q-2.95312,0-2.95313,2.89746v6.3789a.407.407,0,0,1-.47265.47168h-1.00977a.40626.40626,0,0,1-.47265-.47168V130.78836a.40627.40627,0,0,1,.47265-.47168h1.00977a.407.407,0,0,1,.47265.47168v.33692a4.94933,4.94933,0,0,1,3.01954-.98828A5.10593,5.10593,0,0,1,281.96887,132.06864Z"/><path class="cls-2" d="M299.42,141.345V130.78836a.407.407,0,0,1,.47266-.47168h1.00977a.40627.40627,0,0,1,.47265.47168V141.345a.40626.40626,0,0,1-.47265.47168H299.8927A.407.407,0,0,1,299.42,141.345Zm.97852-14.50976a.93732.93732,0,0,1,.67383.30322.90589.90589,0,0,1,.291.65137.99243.99243,0,0,1-.291.70752.97348.97348,0,0,1-1.38281-1.37012A.96674.96674,0,0,1,300.39856,126.83524Z"/><path class="cls-2" d="M305.58411,131.12528a4.93333,4.93333,0,0,1,3.00976-.98828,5.04571,5.04571,0,0,1,3.70508,1.52734,4.35288,4.35288,0,0,1,1.35938,3.17822V141.345a.40627.40627,0,0,1-.47266.47168H312.1759a.40626.40626,0,0,1-.47265-.47168v-6.22168a2.90607,2.90607,0,0,0-.91992-2.13379,3.02136,3.02136,0,0,0-2.23438-.92089,2.67418,2.67418,0,0,0-2.96484,2.94238v6.334a.407.407,0,0,1-.47266.47168h-1.00977a.40626.40626,0,0,1-.47265-.47168V130.78836a.40627.40627,0,0,1,.47265-.47168h1.00977a.407.407,0,0,1,.47266.47168Z"/><path class="cls-2" d="M325.2345,131.65311v-5.4917a.40626.40626,0,0,1,.47265-.47168h1.00977a.40627.40627,0,0,1,.47266.47168V141.345a.40627.40627,0,0,1-.47266.47168h-1.00977a.40626.40626,0,0,1-.47265-.47168v-.86474a5.908,5.908,0,0,1-3.95313,1.51611,5.94244,5.94244,0,0,1-5.96289-5.95215,5.67016,5.67016,0,0,1,1.71875-4.1665,5.7974,5.7974,0,0,1,4.24414-1.74072A5.908,5.908,0,0,1,325.2345,131.65311Zm-3.98633.438a3.911,3.911,0,1,0,2.8418,1.1455A3.83579,3.83579,0,0,0,321.24817,132.0911Z"/><path class="cls-2" d="M337.3927,140.96317a5.09106,5.09106,0,0,1-3.08789,1.0332A5.01041,5.01041,0,0,1,330.631,140.469a4.43318,4.43318,0,0,1-1.38086-3.23438v-6.42383a.40627.40627,0,0,1,.47266-.47168h1.00976a.407.407,0,0,1,.47266.47168v6.1543a2.90606,2.90606,0,0,0,.91992,2.13379,3.043,3.043,0,0,0,2.23438.9209q2.96484,0,2.96484-2.94238v-6.26661a.40627.40627,0,0,1,.47266-.47168h1.00976a.40627.40627,0,0,1,.47266.47168V141.345a.40626.40626,0,0,1-.47266.47168h-.94336a.40495.40495,0,0,1-.4707-.47168Z"/><path class="cls-2" d="M343.93958,130.49637v-3.06592a.40495.40495,0,0,1,.4707-.47168H345.422a.40564.40564,0,0,1,.4707.47168v3.06592h2.8418a.40495.40495,0,0,1,.4707.47168v.83105a.40495.40495,0,0,1-.4707.47168h-2.8418V141.345a.40563.40563,0,0,1-.4707.47168h-1.01172a.40494.40494,0,0,1-.4707-.47168v-9.07422h-2.86524a.40495.40495,0,0,1-.4707-.47168v-.83105a.40495.40495,0,0,1,.4707-.47168Z"/><path class="cls-2" d="M355.90637,130.137a5.90345,5.90345,0,0,1,5.86133,5.90722,5.93136,5.93136,0,0,1-10.12891,4.21143,5.93546,5.93546,0,0,1-.02343-8.37793A5.80647,5.80647,0,0,1,355.90637,130.137Zm-.08008,1.9541a3.91422,3.91422,0,1,0,2.8418,1.1455A3.842,3.842,0,0,0,355.82629,132.0911Z"/><path class="cls-2" d="M365.61145,131.12528a5.71259,5.71259,0,0,1,3.43555-.98828h.21289c.32226-.00733.48047.146.47265.46044v1.04444c.01368.30713-.123.46435-.416.47168h-.06641q-3.62988.09009-3.63867,2.89746v6.334a.407.407,0,0,1-.47266.47168H364.129a.40626.40626,0,0,1-.47266-.47168V130.78836a.40627.40627,0,0,1,.47266-.47168h1.00976a.407.407,0,0,1,.47266.47168Z"/><path class="cls-2" d="M49.18762,159.65311v-5.4917a.405.405,0,0,1,.47071-.47168H50.67a.405.405,0,0,1,.47071.47168V169.345a.40495.40495,0,0,1-.47071.47168H49.65833a.40495.40495,0,0,1-.47071-.47168v-.86474a5.91162,5.91162,0,0,1-3.95312,1.51611,5.94113,5.94113,0,0,1-4.2461-10.11865,5.8018,5.8018,0,0,1,4.2461-1.74072A5.91162,5.91162,0,0,1,49.18762,159.65311Zm-3.98633.438a3.91414,3.91414,0,1,0,2.83985,1.1455A3.84327,3.84327,0,0,0,45.20129,160.0911Z"/><path class="cls-2" d="M62.78333,159.65311v-.88721a.40563.40563,0,0,1,.4707-.47168h1.01172a.40495.40495,0,0,1,.4707.47168V169.345a.40495.40495,0,0,1-.4707.47168H63.254a.40563.40563,0,0,1-.4707-.47168v-.86474a6.05264,6.05264,0,0,1-3.95313,1.51611,5.94112,5.94112,0,0,1-4.24609-10.11865A5.80178,5.80178,0,0,1,58.8302,158.137,6.05264,6.05264,0,0,1,62.78333,159.65311Zm-3.98633.438a3.91416,3.91416,0,1,0,2.83984,1.1455A3.84328,3.84328,0,0,0,58.797,160.0911Z"/><path class="cls-2" d="M66.94153,168.00858l.83008-.584a.56163.56163,0,0,1,.293-.1123.54907.54907,0,0,1,.38085.22461,1.46235,1.46235,0,0,0,1.123.50537,1.32962,1.32962,0,0,0,.97852-.39307,1.21821,1.21821,0,0,0,.38086-.8872q0-1.1565-2.41407-2.60547a5.57073,5.57073,0,0,1-1.24609-.93213,2.56517,2.56517,0,0,1-.68555-1.80811,3.15306,3.15306,0,0,1,.97657-2.30224,3.11537,3.11537,0,0,1,2.26953-.977,3.41153,3.41153,0,0,1,2.291.89843.72311.72311,0,0,1,.31446.49414.50876.50876,0,0,1-.19141.35938l-.80859.69629a.4829.4829,0,0,1-.31446.15722.57959.57959,0,0,1-.38281-.22461,1.34008,1.34008,0,0,0-.97656-.42675,1.23191,1.23191,0,0,0-.91016.33691,1.083,1.083,0,0,0-.31445.79736,1.06675,1.06675,0,0,0,.22461.64014,5.697,5.697,0,0,0,1.293.96582,8.10576,8.10576,0,0,1,2.03125,1.62842,3.54488,3.54488,0,0,1,.79882,2.291,3.11036,3.11036,0,0,1-.91015,2.291,3.29835,3.29835,0,0,1-2.41406.95459,3.44487,3.44487,0,0,1-2.4375-.94336,1.05624,1.05624,0,0,1-.42774-.67383A.46286.46286,0,0,1,66.94153,168.00858Z"/><path class="cls-2" d="M81.14661,169.345V158.78836a.407.407,0,0,1,.47265-.47168H82.629a.40627.40627,0,0,1,.47265.47168V169.345a.40626.40626,0,0,1-.47265.47168H81.61926A.407.407,0,0,1,81.14661,169.345Zm.97851-14.50976a.93729.93729,0,0,1,.67383.30322.9059.9059,0,0,1,.291.65137.99244.99244,0,0,1-.291.70752.97348.97348,0,0,1-1.38281-1.37012A.96674.96674,0,0,1,82.12512,154.83524Z"/><path class="cls-2" d="M85.33606,168.00858l.83008-.584a.56166.56166,0,0,1,.293-.1123.54911.54911,0,0,1,.38086.22461,1.46232,1.46232,0,0,0,1.123.50537,1.32962,1.32962,0,0,0,.97852-.39307,1.21821,1.21821,0,0,0,.38086-.8872q0-1.1565-2.41406-2.60547a5.57059,5.57059,0,0,1-1.2461-.93213,2.56517,2.56517,0,0,1-.68555-1.80811,3.15306,3.15306,0,0,1,.97657-2.30224,3.11537,3.11537,0,0,1,2.26953-.977,3.41153,3.41153,0,0,1,2.291.89843.72311.72311,0,0,1,.31446.49414.50876.50876,0,0,1-.19141.35938l-.80859.69629a.48288.48288,0,0,1-.31446.15722.57959.57959,0,0,1-.38281-.22461,1.34008,1.34008,0,0,0-.97656-.42675,1.23191,1.23191,0,0,0-.91016.33691,1.083,1.083,0,0,0-.31445.79736,1.06675,1.06675,0,0,0,.22461.64014,5.697,5.697,0,0,0,1.293.96582,8.10576,8.10576,0,0,1,2.03125,1.62842,3.54489,3.54489,0,0,1,.79883,2.291,3.11037,3.11037,0,0,1-.91016,2.291,3.29835,3.29835,0,0,1-2.41406.95459,3.44491,3.44491,0,0,1-2.4375-.94336,1.05624,1.05624,0,0,1-.42774-.67383A.46286.46286,0,0,1,85.33606,168.00858Z"/><path class="cls-2" d="M98.59,158.137a5.90343,5.90343,0,0,1,5.86132,5.90722,5.93136,5.93136,0,0,1-10.1289,4.21143,5.94019,5.94019,0,0,1-.02344-8.37793A5.80957,5.80957,0,0,1,98.59,158.137Zm-.07813,1.9541a3.91416,3.91416,0,1,0,2.83984,1.1455A3.84327,3.84327,0,0,0,98.51184,160.0911Z"/><path class="cls-2" d="M107.94934,164.85282a4.09306,4.09306,0,0,0,1.32422,2.26855,4.003,4.003,0,0,0,2.65039.89844,6.206,6.206,0,0,0,3.07813-.74121.54753.54753,0,0,1,.25781-.08985c.14258,0,.25781.08985.34765.26953l.38282.77491a.64962.64962,0,0,1,.08984.28076c0,.13476-.12109.27344-.35937.41553a7.28517,7.28517,0,0,1-3.81836,1.06689,6.0279,6.0279,0,0,1-4.26758-10.231,5.39728,5.39728,0,0,1,3.98633-1.62841,4.96782,4.96782,0,0,1,3.66015,1.47119,5.56852,5.56852,0,0,1,1.61719,4.11035v.6626a.405.405,0,0,1-.4707.47168Zm6.90625-1.68457a3.18005,3.18005,0,0,0-.94336-2.07764,3.22636,3.22636,0,0,0-2.38086-.99951,3.40125,3.40125,0,0,0-2.15625.71875,4.19594,4.19594,0,0,0-1.38086,2.3584Z"/><path class="cls-2" d="M120.74231,159.12528a4.93336,4.93336,0,0,1,3.00977-.98828,5.04568,5.04568,0,0,1,3.70507,1.52734,4.35288,4.35288,0,0,1,1.35938,3.17822V169.345a.40626.40626,0,0,1-.47266.47168h-1.00976a.40626.40626,0,0,1-.47266-.47168v-6.22168a2.90607,2.90607,0,0,0-.91992-2.13379,3.02133,3.02133,0,0,0-2.23438-.92089,2.67419,2.67419,0,0,0-2.96484,2.94238v6.334a.407.407,0,0,1-.47266.47168h-1.00976a.40626.40626,0,0,1-.47266-.47168V158.78836a.40627.40627,0,0,1,.47266-.47168h1.00976a.407.407,0,0,1,.47266.47168Z"/><path class="cls-2" d="M132.89856,167.99735h5.00781a.40626.40626,0,0,1,.47266.47168v.876a.40626.40626,0,0,1-.47266.47168h-7.041a.407.407,0,0,1-.47266-.47168v-.34814a1.88379,1.88379,0,0,1,.35938-1.0332l4.81835-7.41211.06836-.10108c.04493-.06738.09375-.13867.14454-.21338l.06835-.10107h-4.98632a.407.407,0,0,1-.47266-.47168v-.876a.407.407,0,0,1,.47266-.47168h6.88476a.405.405,0,0,1,.47071.47168v.5166a1.994,1.994,0,0,1-.3711,1.0669Z"/><path class="cls-2" d="M139.96692,169.345V158.78836a.40627.40627,0,0,1,.47266-.47168h1.00976a.407.407,0,0,1,.47266.47168V169.345a.407.407,0,0,1-.47266.47168h-1.00976A.40626.40626,0,0,1,139.96692,169.345Zm.97656-14.50976a.93077.93077,0,0,1,.67383.30322.90062.90062,0,0,1,.293.65137.98637.98637,0,0,1-.293.70752.92066.92066,0,0,1-.67383.28076.908.908,0,0,1-.68359-.292.96178.96178,0,0,1-.02344-1.35889A.96238.96238,0,0,1,140.94348,154.83524Z"/><path class="cls-2" d="M153.215,160.06864a5.17678,5.17678,0,0,1,7.70507-.4043,4.35088,4.35088,0,0,1,1.35743,3.17822V169.345a.40495.40495,0,0,1-.47071.47168H160.795a.40563.40563,0,0,1-.4707-.47168v-6.22168a3.15,3.15,0,0,0-3.06641-3.05468,3.14215,3.14215,0,0,0-2.0332.74121,2.60748,2.60748,0,0,0-1.0664,2.08886V169.345a.40495.40495,0,0,1-.47071.47168h-.96679a.40495.40495,0,0,1-.47071-.47168v-6.22168a2.90069,2.90069,0,0,0-.92187-2.13379,3.03208,3.03208,0,0,0-2.2461-.92089q-2.95312,0-2.95312,2.89746v6.3789a.40626.40626,0,0,1-.47266.47168h-1.00976a.407.407,0,0,1-.47266-.47168V158.78836a.407.407,0,0,1,.47266-.47168h1.00976a.40627.40627,0,0,1,.47266.47168v.33692a4.95494,4.95494,0,0,1,3.02148-.98828A5.10219,5.10219,0,0,1,153.215,160.06864Z"/><path class="cls-2" d="M173.94543,159.65311v-.88721a.40564.40564,0,0,1,.47071-.47168h1.01172a.40495.40495,0,0,1,.4707.47168V169.345a.40495.40495,0,0,1-.4707.47168h-1.01172a.40564.40564,0,0,1-.47071-.47168v-.86474a6.05261,6.05261,0,0,1-3.95312,1.51611,5.94112,5.94112,0,0,1-4.24609-10.11865,5.80177,5.80177,0,0,1,4.24609-1.74072A6.05261,6.05261,0,0,1,173.94543,159.65311Zm-3.98632.438a3.91414,3.91414,0,1,0,2.83984,1.1455A3.84328,3.84328,0,0,0,169.95911,160.0911Z"/><path class="cls-2" d="M178.10364,168.00858l.83008-.584a.56163.56163,0,0,1,.293-.1123.54907.54907,0,0,1,.38086.22461,1.46232,1.46232,0,0,0,1.12305.50537,1.32964,1.32964,0,0,0,.97852-.39307,1.21821,1.21821,0,0,0,.38086-.8872q0-1.1565-2.41407-2.60547a5.57073,5.57073,0,0,1-1.24609-.93213,2.56517,2.56517,0,0,1-.68555-1.80811,3.153,3.153,0,0,1,.97657-2.30224,3.11537,3.11537,0,0,1,2.26953-.977,3.41153,3.41153,0,0,1,2.291.89843.72311.72311,0,0,1,.31446.49414.50876.50876,0,0,1-.19141.35938l-.80859.69629a.4829.4829,0,0,1-.31446.15722.57959.57959,0,0,1-.38281-.22461,1.3401,1.3401,0,0,0-.97656-.42675,1.23191,1.23191,0,0,0-.91016.33691,1.083,1.083,0,0,0-.31445.79736,1.06675,1.06675,0,0,0,.22461.64014,5.69671,5.69671,0,0,0,1.293.96582,8.10576,8.10576,0,0,1,2.03125,1.62842,3.54488,3.54488,0,0,1,.79882,2.291,3.11036,3.11036,0,0,1-.91015,2.291,3.29835,3.29835,0,0,1-2.41406.95459,3.44487,3.44487,0,0,1-2.4375-.94336,1.05624,1.05624,0,0,1-.42774-.67383A.46286.46286,0,0,1,178.10364,168.00858Z"/><path class="cls-2" d="M201.93372,159.65311v-5.4917a.40626.40626,0,0,1,.47265-.47168h1.00977a.40626.40626,0,0,1,.47265.47168V169.345a.40626.40626,0,0,1-.47265.47168h-1.00977a.40626.40626,0,0,1-.47265-.47168v-.86474a5.908,5.908,0,0,1-3.95313,1.51611,5.94243,5.94243,0,0,1-5.96289-5.95215,5.67016,5.67016,0,0,1,1.71875-4.1665,5.7974,5.7974,0,0,1,4.24414-1.74072A5.908,5.908,0,0,1,201.93372,159.65311Zm-3.98633.438a3.911,3.911,0,1,0,2.84179,1.1455A3.83579,3.83579,0,0,0,197.94739,160.0911Z"/><path class="cls-2" d="M211.62317,158.137a5.90345,5.90345,0,0,1,5.86133,5.90722,5.93136,5.93136,0,0,1-10.12891,4.21143,5.93545,5.93545,0,0,1-.02344-8.37793A5.80651,5.80651,0,0,1,211.62317,158.137Zm-.08008,1.9541a3.9142,3.9142,0,1,0,2.8418,1.1455A3.842,3.842,0,0,0,211.54309,160.0911Z"/><path class="cls-2" d="M235.40833,166.23416l1,.33692c.209.0747.31445.187.31445.33691q0,.49438-.97656,1.46a5.66194,5.66194,0,0,1-4.12305,1.62842,5.92984,5.92984,0,1,1-.04492-11.85937,5.8953,5.8953,0,0,1,4.02148,1.62841q.59473.52807.5957.73a.46279.46279,0,0,1-.21484.34815l-.78516.59521a.48925.48925,0,0,1-.293.12354.43867.43867,0,0,1-.33594-.19092,3.61869,3.61869,0,0,0-2.95313-1.28027,3.85845,3.85845,0,0,0-2.85351,1.168,3.97061,3.97061,0,0,0,2.85351,6.76074,4.146,4.146,0,0,0,2.043-.5166,3.26756,3.26756,0,0,0,1.123-.99952q.21387-.32592.39258-.32568A.69466.69466,0,0,1,235.40833,166.23416Z"/><path class="cls-2" d="M238.465,169.345V158.78836a.407.407,0,0,1,.47265-.47168h1.00977a.40627.40627,0,0,1,.47265.47168V169.345a.40626.40626,0,0,1-.47265.47168h-1.00977A.407.407,0,0,1,238.465,169.345Zm.97851-14.50976a.9373.9373,0,0,1,.67383.30322.9059.9059,0,0,1,.291.65137.99244.99244,0,0,1-.291.70752.97348.97348,0,0,1-1.38281-1.37012A.96674.96674,0,0,1,239.44348,154.83524Z"/><path class="cls-2" d="M245.08606,158.49637v-3.06592a.405.405,0,0,1,.4707-.47168h1.01172a.40563.40563,0,0,1,.4707.47168v3.06592h2.8418a.40494.40494,0,0,1,.4707.47168v.83105a.40494.40494,0,0,1-.4707.47168h-2.8418V169.345a.40563.40563,0,0,1-.4707.47168h-1.01172a.40495.40495,0,0,1-.4707-.47168v-9.07422h-2.86523a.40495.40495,0,0,1-.47071-.47168v-.83105a.405.405,0,0,1,.47071-.47168Z"/><path class="cls-2" d="M257.05286,158.137a5.90343,5.90343,0,0,1,5.86132,5.90722,5.93136,5.93136,0,0,1-10.1289,4.21143,5.94019,5.94019,0,0,1-.02344-8.37793A5.80959,5.80959,0,0,1,257.05286,158.137Zm-.07813,1.9541a3.91414,3.91414,0,1,0,2.83985,1.1455A3.84327,3.84327,0,0,0,256.97473,160.0911Z"/><path class="cls-2" d="M274.09192,166.23416l1,.33692c.209.0747.31445.187.31445.33691q0,.49438-.97656,1.46a5.66192,5.66192,0,0,1-4.123,1.62842,5.92984,5.92984,0,1,1-.04492-11.85937,5.89535,5.89535,0,0,1,4.02149,1.62841q.59472.52807.5957.73a.46281.46281,0,0,1-.21485.34815l-.78515.59521a.48929.48929,0,0,1-.293.12354.43869.43869,0,0,1-.33594-.19092,3.61869,3.61869,0,0,0-2.95312-1.28027,3.85849,3.85849,0,0,0-2.85352,1.168,3.97061,3.97061,0,0,0,2.85352,6.76074,4.146,4.146,0,0,0,2.043-.5166,3.26761,3.26761,0,0,0,1.123-.99952q.21387-.32592.39258-.32568A.69461.69461,0,0,1,274.09192,166.23416Z"/><path class="cls-2" d="M279.12512,159.12528a5.71693,5.71693,0,0,1,3.43555-.98828h.21484c.32227-.00733.47852.146.47071.46044v1.04444q.02343.4607-.416.47168h-.06641q-3.62694.09009-3.63867,2.89746v6.334a.40626.40626,0,0,1-.47265.47168H277.6427a.407.407,0,0,1-.47266-.47168V158.78836a.407.407,0,0,1,.47266-.47168h1.00977a.40627.40627,0,0,1,.47265.47168Z"/><path class="cls-2" d="M290.03137,158.137a5.90345,5.90345,0,0,1,5.86133,5.90722,5.93136,5.93136,0,0,1-10.12891,4.21143,5.93546,5.93546,0,0,1-.02343-8.37793A5.80647,5.80647,0,0,1,290.03137,158.137Zm-.08008,1.9541a3.91422,3.91422,0,1,0,2.8418,1.1455A3.842,3.842,0,0,0,289.95129,160.0911Z"/><path class="cls-2" d="M306.82043,160.06864a5.17679,5.17679,0,0,1,7.70508-.4043,4.35087,4.35087,0,0,1,1.35742,3.17822V169.345a.40494.40494,0,0,1-.4707.47168h-1.01172a.40563.40563,0,0,1-.4707-.47168v-6.22168a3.15,3.15,0,0,0-3.06641-3.05468,3.14215,3.14215,0,0,0-2.0332.74121,2.60749,2.60749,0,0,0-1.06641,2.08886V169.345a.40494.40494,0,0,1-.4707.47168h-.9668a.40495.40495,0,0,1-.4707-.47168v-6.22168a2.90069,2.90069,0,0,0-.92187-2.13379,3.03208,3.03208,0,0,0-2.2461-.92089q-2.95312,0-2.95312,2.89746v6.3789a.40626.40626,0,0,1-.47266.47168h-1.00976a.407.407,0,0,1-.47266-.47168V158.78836a.407.407,0,0,1,.47266-.47168h1.00976a.40627.40627,0,0,1,.47266.47168v.33692a4.95492,4.95492,0,0,1,3.02148-.98828A5.10216,5.10216,0,0,1,306.82043,160.06864Z"/><path class="cls-2" d="M323.6427,158.137a5.90345,5.90345,0,0,1,5.86133,5.90722,5.93136,5.93136,0,0,1-10.12891,4.21143,5.94022,5.94022,0,0,1-.02344-8.37793A5.80959,5.80959,0,0,1,323.6427,158.137Zm-.07812,1.9541a3.91414,3.91414,0,1,0,2.83984,1.1455A3.84328,3.84328,0,0,0,323.56458,160.0911Z"/><path class="cls-2" d="M339.9259,163.26932V169.345a.40494.40494,0,0,1-.4707.47168h-1.14648a.40563.40563,0,0,1-.47071-.47168V153.03836a.40564.40564,0,0,1,.47071-.47168h3.36914a4.79222,4.79222,0,0,1,3.54882,1.42627,5.121,5.121,0,0,1,1.46094,3.751,5.25363,5.25363,0,0,1-1.56054,3.9082,4.72821,4.72821,0,0,1-3.44922,1.38135h-1.51563C339.99817,163.02616,339.92,163.10477,339.9259,163.26932Zm1.79688-8.65869h-1.56055c-.16406-.00733-.24219.07129-.23633.23584v5.90722c-.00586.15723.07227.23584.23633.23584h1.56055a2.53431,2.53431,0,0,0,2.38086-1.33642,3.83968,3.83968,0,0,0,.51758-1.93164,3.60233,3.60233,0,0,0-.47266-1.80811A2.58584,2.58584,0,0,0,341.72278,154.61063Z"/><path class="cls-2" d="M354.11731,166.82938h-6.83984a.407.407,0,0,1-.47266-.47168v-.876a2.12026,2.12026,0,0,1,.37109-1.15674l7.32227-11.41015a.71975.71975,0,0,1,.64062-.34815h.8086a.405.405,0,0,1,.4707.47168v11.48877c0,.16455.08008.24317.23633.23584h1.06641a.40627.40627,0,0,1,.47265.47168v1.12305a.40627.40627,0,0,1-.47265.47168h-1.06641a.20919.20919,0,0,0-.23633.23584V169.345a.40495.40495,0,0,1-.4707.47168h-1.123a.407.407,0,0,1-.47266-.47168v-2.27978Q354.36341,166.82938,354.11731,166.82938Zm.23437-2.30225v-7.749c0-.06006-.01367-.08984-.04492-.08984-.01367,0-.03711.02246-.0664.06738l-5.10938,7.87256a.11744.11744,0,0,0-.02344.06738c0,.04492.03125.06738.08985.06738h4.91992Q354.3634,164.774,354.35168,164.52713Z"/><path class="cls-2" d="M362.83215,159.00174a7.4621,7.4621,0,0,1,2.05469-.33691,5.73111,5.73111,0,0,1,4.22266,1.6958,5.20522,5.20522,0,0,1,1.56054,3.82959,5.78925,5.78925,0,0,1-5.82812,5.80615,5.96382,5.96382,0,0,1-3.99805-1.49365q-.583-.50538-.584-.74121a.53392.53392,0,0,1,.123-.30323l.67383-.93212a.351.351,0,0,1,.28125-.17969.448.448,0,0,1,.31446.20215,3.865,3.865,0,0,0,3.168,1.40381,3.73757,3.73757,0,0,0,3.78321-3.77344,3.32659,3.32659,0,0,0-.97656-2.437,3.7531,3.7531,0,0,0-2.77344-1.07813h-.08985a6.03573,6.03573,0,0,0-2.56054.57275.68421.68421,0,0,1-.28125.08985.60129.60129,0,0,1-.4043-.21338l-.53906-.55029a.75392.75392,0,0,1-.26953-.50537,1.39971,1.39971,0,0,1,.02343-.23584l.93164-6.82813a.43472.43472,0,0,1,.49415-.42676h6.93945a.40627.40627,0,0,1,.47265.47168v1.07813a.40626.40626,0,0,1-.47265.47168h-5.32227c-.209,0-.32617.06006-.34765.17968Z"/><path class="cls-2" d="M372.83411,164.39237v-6.37891a5.67977,5.67977,0,0,1,5.59375-5.58154,5.47453,5.47453,0,0,1,3.97461,1.67334,5.30536,5.30536,0,0,1,1.6289,3.9082v6.37891a5.56645,5.56645,0,0,1-9.54492,3.93066A5.34147,5.34147,0,0,1,372.83411,164.39237Zm2.02148-6.334v6.28906a3.39415,3.39415,0,0,0,1.06836,2.47071,3.442,3.442,0,0,0,2.52539,1.08935,3.36179,3.36179,0,0,0,2.46094-1.0332,3.44869,3.44869,0,0,0,1.05469-2.52686v-6.28906a3.41035,3.41035,0,0,0-1.05469-2.49316,3.34466,3.34466,0,0,0-2.46094-1.04444,3.44653,3.44653,0,0,0-2.53711,1.07813A3.40049,3.40049,0,0,0,374.85559,158.05838Z"/><path class="cls-2" d="M386.80872,167.96366a.93728.93728,0,0,1,.67382.30322.9059.9059,0,0,1,.291.65137.99244.99244,0,0,1-.291.70752.97348.97348,0,0,1-1.38281-1.37012A.9667.9667,0,0,1,386.80872,167.96366Z"/><path class="cls-2" d="M393.795,156.53983a2.9008,2.9008,0,0,1,1.64844,2.5664,3.00489,3.00489,0,0,1-.89062,2.21338,3.12492,3.12492,0,0,1-2.31641.91651,3.781,3.781,0,0,1-2.42383-.89063c-.13476-.10889-.20312-.20508-.20312-.28808a.36457.36457,0,0,1,.05273-.15723l.32031-.58887a.224.224,0,0,1,.1836-.13135.29513.29513,0,0,1,.18359.09864,2.55819,2.55819,0,0,0,1.82617.75293,1.97463,1.97463,0,0,0,1.45508-.57618,1.90931,1.90931,0,0,0,.582-1.40136,1.75358,1.75358,0,0,0-.50976-1.27,2.36084,2.36084,0,0,0-1.70313-.69434l-.55078-.01953a.23707.23707,0,0,1-.26758-.2749V156.324a.23723.23723,0,0,1,.26758-.27539l.459-.01953a1.79663,1.79663,0,0,0,1.38867-.59571,1.45357,1.45357,0,0,0,.33984-.97558,1.19181,1.19181,0,0,0-.35351-.89063,1.57052,1.57052,0,0,0-1.15235-.41894,2.221,2.221,0,0,0-1.03515.2749,2.92277,2.92277,0,0,0-.7129.50439.20874.20874,0,0,1-.14453.07178.185.185,0,0,1-.16992-.13086l-.28711-.58935a.38819.38819,0,0,1-.04687-.1504q0-.1311.21679-.30761a3.37816,3.37816,0,0,1,2.21289-.8252,2.7038,2.7038,0,0,1,1.99024.75293,2.31307,2.31307,0,0,1,.70117,1.709,2.28348,2.28348,0,0,1-.3418,1.19824,2.0313,2.0313,0,0,1-.74609.74609c-.02539.01758-.03906.03516-.03906.05274C393.72864,156.48075,393.75012,156.50955,393.795,156.53983Z"/><path class="cls-2" d="M401.48645,156.52664a3.116,3.116,0,0,1,1.55859,2.606,3.17406,3.17406,0,0,1-3.14257,3.12988,3.16276,3.16276,0,0,1-3.14844-3.12988,3.33086,3.33086,0,0,1,1.55664-2.606,2.58967,2.58967,0,0,1-1.0332-1.93115,2.48007,2.48007,0,0,1,.77148-1.82031,2.51132,2.51132,0,0,1,1.84766-.7793,2.6394,2.6394,0,0,1,1.68945.61572,2.31371,2.31371,0,0,1,.94922,1.87256,2.243,2.243,0,0,1-.34766,1.19141A5.52541,5.52541,0,0,1,401.48645,156.52664Zm-1.58984.62891a1.97826,1.97826,0,0,0-1.96485,1.95752,1.96718,1.96718,0,0,0,1.97071,1.9707,1.84616,1.84616,0,0,0,1.36132-.57617,1.93623,1.93623,0,0,0,.58985-1.40771,1.9221,1.9221,0,0,0-1.957-1.94434Zm0-3.96777a1.44682,1.44682,0,1,0,1.02148,2.46826,1.42712,1.42712,0,0,0,.4375-1.041,1.38051,1.38051,0,0,0-.418-1.00195A1.41829,1.41829,0,0,0,399.89661,153.18778Z"/></g></g></svg>