<svg xmlns="http://www.w3.org/2000/svg" width="394.97567" height="214.08697" viewBox="0 0 394.97567 214.08697"><defs><style>.cls-1{fill:#824195;}.cls-2{fill:#fff;}</style></defs><g id="Camada_2" data-name="Camada 2"><g id="Layer_1" data-name="Layer 1"><path class="cls-1" d="M392.59384,98.80738,332.73609,3.97066A8.51588,8.51588,0,0,0,325.53458,0H0V214.087H325.53458a8.5158,8.5158,0,0,0,7.20151-3.97073l59.85775-94.83673A15.43056,15.43056,0,0,0,392.59384,98.80738Z"/><path class="cls-2" d="M92.924,112.72562l1.916,2.47266a1.15914,1.15914,0,0,1,.29492.66211.811.811,0,0,1-.34766.67969,12.49719,12.49719,0,0,1-7.78515,2.36816A13.30223,13.30223,0,0,1,77.24827,114.92a13.66482,13.66482,0,0,1,9.75391-23.32227,12.53183,12.53183,0,0,1,7.66211,2.31739.94228.94228,0,0,1,.45312.76562,1.14456,1.14456,0,0,1-.29492.64453L92.924,97.78129a1.00692,1.00692,0,0,1-.76757.4707,1.971,1.971,0,0,1-.81836-.34863,8.19821,8.19821,0,0,0-4.3711-1.21973,8.68361,8.68361,0,0,0-4.54687,1.32422,8.1769,8.1769,0,0,0-2.9961,3.10059,8.28769,8.28769,0,0,0-1.06054,4.07519,8.02394,8.02394,0,0,0,3.30859,6.61914,8.63474,8.63474,0,0,0,5.39844,2.01953,8.01563,8.01563,0,0,0,4.26758-1.21875,1.971,1.971,0,0,1,.81836-.34863A1.00692,1.00692,0,0,1,92.924,112.72562Z"/><path class="cls-2" d="M104.95921,108.99809,97.90452,92.86918a1.16323,1.16323,0,0,1-.12109-.43457c0-.37207.2539-.55762.76562-.55762h3.69141a1.14382,1.14382,0,0,1,1.18555.80078l3.93554,9.8584a.12843.12843,0,0,0,.12305.10449c.05664,0,.09766-.03515.12109-.10449l3.97071-9.82324a1.14458,1.14458,0,0,1,1.18554-.80176H116.385q.76466,0,.76563.5752a1.20009,1.20009,0,0,1-.1211.418l-6.98437,16.09375v8.62207a.87663.87663,0,0,1-1.01172,1.00976H105.969q-1.04591.01758-1.00977-1.00976Z"/><path class="cls-2" d="M120.29515,117.62016l.03515-24.7334q-.03514-1.02685,1.01172-1.00977h7.19336a7.43927,7.43927,0,0,1,5.50391,2.21192,7.92086,7.92086,0,0,1,2.28125,5.81738,8.132,8.132,0,0,1-2.42188,6.04394,7.321,7.321,0,0,1-5.36328,2.15918h-2.92773a.18468.18468,0,0,0-.209.22657v9.28418a.87407.87407,0,0,1-1.02734,1.00976h-3.06445Q120.261,118.6475,120.29515,117.62016Zm5.10351-20.41407v5.57422a.18468.18468,0,0,0,.209.22656h2.92773a2.33883,2.33883,0,0,0,2.19336-1.2373,3.67752,3.67752,0,0,0,.48828-1.86328,3.28471,3.28471,0,0,0-.45312-1.707,2.37673,2.37673,0,0,0-2.22852-1.21875h-2.92773A.184.184,0,0,0,125.39866,97.20609Z"/><path class="cls-2" d="M137.71507,113.28324v-2.5957a5.78822,5.78822,0,0,1,.12109-1.376,5.7291,5.7291,0,0,1,.67969-1.30664l9.59766-15.32715a1.51247,1.51247,0,0,1,1.39257-.7666h3.2754c.707-.01074,1.05078.32617,1.02734,1.01074v16.18067a.18407.18407,0,0,0,.209.209h1.27149q1.04589-.01758,1.00976,1.01074v3.15235a.87458.87458,0,0,1-1.00976,1.00976H154.0178c-.14062,0-.209.07618-.209.22657v2.8916c.02344.69629-.32031,1.03906-1.02734,1.02734h-3.06641q-1.04591.03516-1.00977-1.02734v-3.083c0-.13965-.07617-.209-.22656-.209h-9.75391Q137.67894,114.34573,137.71507,113.28324Zm10.99023-3.93652v-8.98731q0-.0703-.05273-.07031a.07085.07085,0,0,0-.07031.03516l-5.25977,9.04a.19121.19121,0,0,0-.01758.08691c0,.081.04688.12207.14063.12207h5.0332A.20077.20077,0,0,0,148.7053,109.34672Z"/><path class="cls-2" d="M160.39476,101.45609l1.62109-8.6914a.9425.9425,0,0,1,1.0625-.8877h10.71094a.85835.85835,0,0,1,1.00976,1.00977v2.99609q.03516,1.062-1.00976,1.02734h-7.73242a.23788.23788,0,0,0-.24414.209l-.78516,3.86719a.43139.43139,0,0,0-.01563.08691.153.153,0,0,0,.17383.17383,1.17312,1.17312,0,0,0,.25977-.06934,9.55732,9.55732,0,0,1,2.75195-.34863A8.41793,8.41793,0,0,1,174.469,103.25a8.63159,8.63159,0,0,1,2.4375,6.32324,9.25,9.25,0,0,1-9.43946,9.35254,10.56043,10.56043,0,0,1-6.33984-2.15918q-.66212-.47022-.66211-.90625a1.70412,1.70412,0,0,1,.12109-.55762l1.11524-3.01269q.19335-.55665.62695-.55762a2.13563,2.13563,0,0,1,.90625.48828,7.22334,7.22334,0,0,0,4.32031,1.60156,4.272,4.272,0,0,0,3.15235-1.23632,4.06042,4.06042,0,0,0-.05274-5.74805,4.08674,4.08674,0,0,0-3.03125-1.23633,7.40885,7.40885,0,0,0-4.10937,1.3584.86469.86469,0,0,1-.50586.1748,1.069,1.069,0,0,1-.74805-.40136l-1.98633-2.05469a.93147.93147,0,0,1-.332-.62695,1.17807,1.17807,0,0,1,.03516-.22657Z"/><path class="cls-2" d="M198.79124,100.69047v9.126a8.79874,8.79874,0,0,1-2.69922,6.41016,8.96019,8.96019,0,0,1-12.78515,0,8.79109,8.79109,0,0,1-2.69922-6.41016v-9.126a9.18879,9.18879,0,0,1,9.10937-9.09278,9.18944,9.18944,0,0,1,9.07422,9.09278Zm-13.11523.06933v8.98731a3.84234,3.84234,0,0,0,1.20117,2.80371,3.89146,3.89146,0,0,0,2.83984,1.21973,3.79517,3.79517,0,0,0,2.76953-1.18457,3.89211,3.89211,0,0,0,1.21875-2.83887V100.7598a3.8921,3.8921,0,0,0-1.21875-2.83886,3.79513,3.79513,0,0,0-2.76953-1.18457,3.89422,3.89422,0,0,0-2.83984,1.21875A3.846,3.846,0,0,0,185.676,100.7598Z"/><path class="cls-2" d="M215.00608,115.05961l1.48047-2.68262a.79785.79785,0,0,1,.67969-.4873,1.45213,1.45213,0,0,1,.76563.43554,5.60354,5.60354,0,0,0,3.64062,1.53223,3.55541,3.55541,0,0,0,2.64844-1.04492,3.21178,3.21178,0,0,0,.93945-2.36914,3.4393,3.4393,0,0,0-1.61914-3.03028,5.43106,5.43106,0,0,0-2.75195-.97558l-.8711-.03418a.88355.88355,0,0,1-.99218-1.02832v-2.43848a.87257.87257,0,0,1,.92187-1.02734l.29688-.01758a3.9324,3.9324,0,0,0,2.45507-.97559,2.816,2.816,0,0,0,1.0625-2.19433,2.11562,2.11562,0,0,0-.67968-1.56738,2.51729,2.51729,0,0,0-1.86328-.71387,5.19247,5.19247,0,0,0-3.27344,1.28906,1.38707,1.38707,0,0,1-.71485.38281.73966.73966,0,0,1-.6621-.50488l-1.14844-2.36914a1.44713,1.44713,0,0,1-.19141-.5752,1.19717,1.19717,0,0,1,.50391-.87011,8.89552,8.89552,0,0,1,5.90429-2.19532,7.1897,7.1897,0,0,1,5.29493,2.00391,6.18973,6.18973,0,0,1,1.86328,4.58008,6.8669,6.8669,0,0,1-2.68164,5.26074.22657.22657,0,0,0-.10352.15625c0,.04688.02735.08106.08594.10449a6.87118,6.87118,0,0,1,2.19531,1.585,7.26456,7.26456,0,0,1,2.00195,5.25977,7.98291,7.98291,0,0,1-2.3496,5.85254,8.27991,8.27991,0,0,1-6.13282,2.43848,9.73633,9.73633,0,0,1-6.44336-2.36915,1.10455,1.10455,0,0,1-.4707-.81835A1.39106,1.39106,0,0,1,215.00608,115.05961Z"/><path class="cls-2" d="M239.551,113.73539l-1.67188,4.09375a1.154,1.154,0,0,1-1.20117.80078h-3.55273q-.76758,0-.76758-.5918a1.07137,1.07137,0,0,1,.10547-.40136l9.94531-24.959A1.143,1.143,0,0,1,243.592,91.877h2.16016a1.143,1.143,0,0,1,1.18359.80078l10.01563,24.959a1.13306,1.13306,0,0,1,.08789.40136q0,.59181-.76758.5918h-3.51758a1.17015,1.17015,0,0,1-1.20117-.80078l-1.77734-4.11133a.17272.17272,0,0,0-.15625-.08691h-9.91016A.16945.16945,0,0,0,239.551,113.73539Zm5.06836-12.749-3.06446,7.71582a.27855.27855,0,0,0-.01758.08691c0,.06934.04688.10449.13868.10449h5.97461c.10546,0,.15625-.03515.15625-.10449a.50632.50632,0,0,0-.01758-.08691l-3.04688-7.71582q-.01758-.05274-.05273-.05274A.06892.06892,0,0,0,244.61937,100.98637Z"/><path class="cls-2" d="M259.31663,113.28324v-2.5957a5.66562,5.66562,0,0,1,.12305-1.376,5.57149,5.57149,0,0,1,.67969-1.30664l9.5957-15.32715a1.51547,1.51547,0,0,1,1.39453-.7666H274.383q1.06347-.01611,1.02734,1.01074v16.18067a.18484.18484,0,0,0,.209.209h1.27148c.69727-.01172,1.0332.3252,1.01172,1.01074v3.15235a.87663.87663,0,0,1-1.01172,1.00976h-1.27148c-.13868,0-.209.07618-.209.22657v2.8916q.03516,1.04443-1.02734,1.02734h-3.06446q-1.04589.03516-1.01171-1.02734v-3.083c0-.13965-.07422-.209-.22657-.209h-9.752Q259.28245,114.34573,259.31663,113.28324Zm10.99024-3.93652v-8.98731c0-.04687-.01758-.07031-.05079-.07031a.07086.07086,0,0,0-.07031.03516l-5.25976,9.04a.19121.19121,0,0,0-.01758.08691c0,.081.04687.12207.13867.12207h5.0332A.2.2,0,0,0,270.30687,109.34672Z"/></g></g></svg>