<svg xmlns="http://www.w3.org/2000/svg" width="410.49919" height="214.08697" viewBox="0 0 410.49919 214.08697"><defs><style>.cls-1{fill:#c1a0ca;}.cls-2{fill:#fff;}</style></defs><g id="Camada_2" data-name="Camada 2"><g id="Layer_1" data-name="Layer 1"><path class="cls-1" d="M410.49919,31.86716A31.86716,31.86716,0,0,0,378.632,0H2.32855A2.32475,2.32475,0,0,0,.36263,3.56556L60.47584,98.80738a15.43081,15.43081,0,0,1,0,16.47213L.36258,210.52143a2.32473,2.32473,0,0,0,1.9659,3.56554H378.632a31.86716,31.86716,0,0,0,31.86716-31.86716Z"/><path class="cls-2" d="M116.70193,83.74516V62.90238a.62679.62679,0,0,1,.72656-.72558h5.19531a6.19652,6.19652,0,0,1,4.5879,1.84277,6.62474,6.62474,0,0,1,1.88671,4.84766,6.78022,6.78022,0,0,1-2.01757,5.03711,6.08212,6.08212,0,0,1-4.457,1.7998h-2.1914a.21783.21783,0,0,0-.2461.24707v7.79395a.62714.62714,0,0,1-.72656.72558h-2.03125A.62714.62714,0,0,1,116.70193,83.74516Zm5.53125-18.11426H120.4324a.21783.21783,0,0,0-.2461.24707v6.125a.21752.21752,0,0,0,.2461.24609h1.80078a3.07106,3.07106,0,0,0,2.90234-1.49414,3.68842,3.68842,0,0,0,.47852-1.88769,3.15117,3.15117,0,0,0-.98633-2.45215A3.44921,3.44921,0,0,0,122.23318,65.6309Z"/><path class="cls-2" d="M137.93826,69.376a7.63066,7.63066,0,0,1,7.57617,7.63477,7.66633,7.66633,0,0,1-13.0918,5.44238,7.67424,7.67424,0,0,1-.02929-10.82812A7.5059,7.5059,0,0,1,137.93826,69.376Zm-.10156,3.29493a4.33724,4.33724,0,1,0,3.14843,1.27636A4.24933,4.24933,0,0,0,137.8367,72.67094Z"/><path class="cls-2" d="M150.47146,69.72367V66.0225a.62715.62715,0,0,1,.72656-.72559h1.8418a.62715.62715,0,0,1,.72656.72559v3.70117h3.1211a.62687.62687,0,0,1,.72461.72559v1.52441a.62653.62653,0,0,1-.72461.72559h-3.1211v11.0459a.62714.62714,0,0,1-.72656.72558H151.198a.62714.62714,0,0,1-.72656-.72558V72.69926H147.3074a.62715.62715,0,0,1-.72656-.72559V70.44926a.6275.6275,0,0,1,.72656-.72559Z"/><path class="cls-2" d="M172.13748,78.22953h-9.92774c-.03906,0-.05664.01465-.05664.044a2.92146,2.92146,0,0,0,.79688,1.69824,4.38887,4.38887,0,0,0,3.6289,1.61035,7.8048,7.8048,0,0,0,3.35352-.75488,2.19191,2.19191,0,0,1,.668-.23145.66275.66275,0,0,1,.56445.4209l.6543,1.21875a.94466.94466,0,0,1,.14453.40625c0,.22266-.1543.43555-.46485.63867a9.46393,9.46393,0,0,1-5.06445,1.42285,7.58534,7.58534,0,0,1-5.57422-2.206,7.89243,7.89243,0,0,1,0-10.94434,7.086,7.086,0,0,1,5.25391-2.14843,6.40821,6.40821,0,0,1,4.73242,1.84375,7.26554,7.26554,0,0,1,2.04688,5.39941c0,.2998-.00586.57129-.01563.8125l-.01367.11621Q172.864,78.27347,172.13748,78.22953Zm-9.91211-2.55469h7.19922c.03711,0,.05664-.06738.05664-.20312a2.74667,2.74667,0,0,0-.69532-1.74219,3.40706,3.40706,0,0,0-2.78711-1.291,3.9031,3.9031,0,0,0-3.26562,1.6836,2.44183,2.44183,0,0,0-.58008,1.43652C162.1531,75.63676,162.17654,75.67484,162.22537,75.67484Z"/><path class="cls-2" d="M178.38943,70.40629a6.04673,6.04673,0,0,1,3.46875-1.03028,6.513,6.513,0,0,1,4.791,1.84278,6.07783,6.07783,0,0,1,1.75585,4.48535v8.041a.62714.62714,0,0,1-.72656.72558H185.8367a.62715.62715,0,0,1-.72657-.72558v-7.8379a3.1282,3.1282,0,0,0-.98633-2.30761,3.23052,3.23052,0,0,0-2.35156-.958,3.16637,3.16637,0,0,0-2.42383.958,3.04472,3.04472,0,0,0-.78515,2.16211v7.9834a.62582.62582,0,0,1-.72461.72558H176.0242a.62715.62715,0,0,1-.72657-.72558V70.334a.62781.62781,0,0,1,.72657-.72656h1.64062q.72363-.02783.72461.668Z"/><path class="cls-2" d="M202.84451,79.44828l1.68359.74023c.29883.126.44922.30567.44922.53711q0,.6255-1.26172,1.8584a7.31652,7.31652,0,0,1-5.29883,2.11914,7.66372,7.66372,0,1,1-.043-15.32715,7.609,7.609,0,0,1,5.3711,2.22071c.43359.40625.65234.71094.65234.91406a.72224.72224,0,0,1-.334.55176l-1.34961,1.001a.85444.85444,0,0,1-.47852.20313,1.21021,1.21021,0,0,1-.668-.40625,4.42541,4.42541,0,0,0-3.10742-1.18945A4.26492,4.26492,0,0,0,195.325,73.9473a4.37645,4.37645,0,0,0,3.12109,7.46094,3.97739,3.97739,0,0,0,3.48438-1.74219.64022.64022,0,0,1,.50781-.333A1.021,1.021,0,0,1,202.84451,79.44828Z"/><path class="cls-2" d="M207.2,83.74516V70.334a.62781.62781,0,0,1,.72656-.72656h1.8418a.62781.62781,0,0,1,.72656.72656V83.74516a.62714.62714,0,0,1-.72656.72558h-1.8418A.62714.62714,0,0,1,207.2,83.74516Zm1.65429-19.02832a1.66344,1.66344,0,0,1,1.627,1.625,1.62709,1.62709,0,0,1-.48047,1.17578,1.64565,1.64565,0,0,1-2.32227,0A1.60138,1.60138,0,0,1,207.2,66.34184a1.56789,1.56789,0,0,1,.46484-1.13184A1.61766,1.61766,0,0,1,208.85427,64.71684Z"/><path class="cls-2" d="M225.07693,70.9141V70.334a.62781.62781,0,0,1,.72656-.72656h1.64063a.62719.62719,0,0,1,.72461.72656V83.74516a.62652.62652,0,0,1-.72461.72558h-1.64063a.62714.62714,0,0,1-.72656-.72558V83.1934a7.69982,7.69982,0,0,1-4.55664,1.50976,7.66358,7.66358,0,0,1-.01563-15.32715A7.7565,7.7565,0,0,1,225.07693,70.9141Zm-4.61523,1.72754a4.19318,4.19318,0,0,0-3.07618,1.27734,4.44884,4.44884,0,1,0,3.07618-1.27734Z"/><path class="cls-2" d="M231.10818,83.74516V70.334a.62781.62781,0,0,1,.72656-.72656h1.8418a.62781.62781,0,0,1,.72656.72656V83.74516a.62714.62714,0,0,1-.72656.72558h-1.8418A.62714.62714,0,0,1,231.10818,83.74516Zm1.6543-19.02832a1.66344,1.66344,0,0,1,1.62695,1.625,1.62709,1.62709,0,0,1-.48047,1.17578,1.64564,1.64564,0,0,1-2.32226,0,1.60139,1.60139,0,0,1-.47852-1.17578A1.56793,1.56793,0,0,1,231.573,65.21,1.61767,1.61767,0,0,1,232.76248,64.71684Z"/><path class="cls-2" d="M237.409,81.61137l1.26367-.8125a.82992.82992,0,0,1,.43555-.16016.8987.8987,0,0,1,.59375.36328,1.56634,1.56634,0,0,0,1.17578.52246,1.31168,1.31168,0,0,0,.94336-.37793,1.22422,1.22422,0,0,0,.377-.89941,2.22567,2.22567,0,0,0-1.07422-1.6543,17.46552,17.46552,0,0,0-1.74023-1.07422,4.20621,4.20621,0,0,1-2.45312-3.78906,4.25278,4.25278,0,0,1,1.248-3.13477A4.083,4.083,0,0,1,241.1824,69.376a4.202,4.202,0,0,1,3.0332,1.36426,1.80024,1.80024,0,0,1,.63867,1.03028.69052.69052,0,0,1-.377.5664l-1.18945.79785a.84661.84661,0,0,1-.43555.17383.69324.69324,0,0,1-.52344-.29,1.36479,1.36479,0,0,0-1.05859-.46386,1.173,1.173,0,0,0-.88672.34765,1.05825,1.05825,0,0,0-.332.79883,1.59955,1.59955,0,0,0,.8418,1.21875c.2207.165.70117.46484,1.43554.90039q2.99121,1.771,2.99024,4.58594a4.19227,4.19227,0,0,1-4.29688,4.29687,4.48975,4.48975,0,0,1-3.33789-1.4375q-.668-.69579-.668-1.07324A.69832.69832,0,0,1,237.409,81.61137Z"/><path class="cls-2" d="M116.47146,115.84867V102.43754a.62649.62649,0,0,1,.72461-.72656h1.84375a.62648.62648,0,0,1,.72461.72656v13.41113a.62582.62582,0,0,1-.72461.72559h-1.84375A.62583.62583,0,0,1,116.47146,115.84867Zm1.6543-19.02832a1.65991,1.65991,0,0,1,1.625,1.625,1.63312,1.63312,0,0,1-.47852,1.17578,1.64254,1.64254,0,0,1-2.33789-2.30762A1.62513,1.62513,0,0,1,118.12576,96.82035Z"/><path class="cls-2" d="M125.825,102.5098a6.0467,6.0467,0,0,1,3.46875-1.03027,6.513,6.513,0,0,1,4.791,1.84277,6.07786,6.07786,0,0,1,1.75586,4.48536v8.041a.62715.62715,0,0,1-.72656.72559h-1.8418a.62715.62715,0,0,1-.72656-.72559v-7.83789a3.12826,3.12826,0,0,0-.98633-2.30762,3.23053,3.23053,0,0,0-2.35156-.958,3.16635,3.16635,0,0,0-2.42383.958,3.04471,3.04471,0,0,0-.78516,2.16211v7.9834a.62582.62582,0,0,1-.7246.72559h-1.81446a.62715.62715,0,0,1-.72656-.72559V102.43754a.62781.62781,0,0,1,.72656-.72656h1.64063q.72363-.02784.72461.668Z"/><path class="cls-2" d="M141.22732,101.82719V98.126a.62714.62714,0,0,1,.72656-.72558h1.8418a.62714.62714,0,0,1,.72656.72558v3.70118h3.1211a.62687.62687,0,0,1,.72461.72558v1.52442a.62652.62652,0,0,1-.72461.72558h-3.1211v11.0459a.62715.62715,0,0,1-.72656.72559h-1.8418a.62715.62715,0,0,1-.72656-.72559v-11.0459h-3.16406a.62714.62714,0,0,1-.72656-.72558v-1.52442a.62749.62749,0,0,1,.72656-.72558Z"/><path class="cls-2" d="M162.89334,110.33305H152.9656c-.03906,0-.05664.01464-.05664.04394a2.92143,2.92143,0,0,0,.79688,1.69824,4.38885,4.38885,0,0,0,3.6289,1.61036,7.80466,7.80466,0,0,0,3.35352-.75489,2.192,2.192,0,0,1,.668-.23144.66275.66275,0,0,1,.56445.4209l.6543,1.21875a.94462.94462,0,0,1,.14453.40625c0,.22265-.1543.43554-.46485.63867a9.464,9.464,0,0,1-5.06445,1.42285,7.58531,7.58531,0,0,1-5.57422-2.20606,7.89242,7.89242,0,0,1,0-10.94433,7.086,7.086,0,0,1,5.25391-2.14844,6.40827,6.40827,0,0,1,4.73242,1.84375,7.2656,7.2656,0,0,1,2.04688,5.39941c0,.29981-.00586.57129-.01563.8125l-.01367.11622Q163.6199,110.377,162.89334,110.33305Zm-9.91211-2.55469h7.19922c.0371,0,.05664-.06738.05664-.20313a2.74667,2.74667,0,0,0-.69532-1.74218,3.407,3.407,0,0,0-2.78711-1.291,3.90312,3.90312,0,0,0-3.26562,1.68359,2.44185,2.44185,0,0,0-.58008,1.43653C152.909,107.74027,152.9324,107.77836,152.98123,107.77836Z"/><path class="cls-2" d="M169.20388,102.56742a5.85538,5.85538,0,0,1,3.65821-1.08789h.7539q.74121-.0293.72656.72559v1.87207a.62714.62714,0,0,1-.72656.72558h-.63867q-3.58593.044-3.6582,3.0625v7.9834a.62583.62583,0,0,1-.72461.72559h-1.81446a.62715.62715,0,0,1-.72656-.72559V102.43754a.62781.62781,0,0,1,.72656-.72656h1.69727q.72657-.02784.72656.68261Z"/><path class="cls-2" d="M187.68435,103.01762v-.58008a.62718.62718,0,0,1,.72461-.72656h1.64063a.62781.62781,0,0,1,.72656.72656v13.41113a.62715.62715,0,0,1-.72656.72559H188.409a.62652.62652,0,0,1-.72461-.72559v-.55176a7.70546,7.70546,0,0,1-4.55859,1.50977,7.66358,7.66358,0,0,1-.01367-15.32715A7.76086,7.76086,0,0,1,187.68435,103.01762Zm-4.61523,1.72754a4.19438,4.19438,0,0,0-3.07813,1.27734,4.45125,4.45125,0,1,0,3.07813-1.27734Z"/><path class="cls-2" d="M199.75662,116.71976a7.9255,7.9255,0,0,1-4.76172-2.55468,7.65473,7.65473,0,0,1,5.791-12.68555,7.6056,7.6056,0,0,1,5.3711,2.2207q.65331.60938.65234.91407a.72221.72221,0,0,1-.334.55175l-1.34961,1.001a.85452.85452,0,0,1-.47852.20313,1.22275,1.22275,0,0,1-.668-.40625,4.42405,4.42405,0,0,0-3.10547-1.18946,4.26489,4.26489,0,0,0-3.13476,1.27637,4.37646,4.37646,0,0,0,3.12109,7.46094,3.974,3.974,0,0,0,3.48242-1.74219.64026.64026,0,0,1,.50782-.333,1.00474,1.00474,0,0,1,.40625.11524l1.68359.74023c.30078.126.45117.30566.45117.53711a2.29248,2.29248,0,0,1-.582,1.08887,7.54767,7.54767,0,0,1-5.57226,2.85937l-.97266,1.30664h.0293a1.48974,1.48974,0,0,0,.23242-.02929,2.43309,2.43309,0,0,1,.53711-.05762,2.11748,2.11748,0,0,1,2.2207,2.23437,2.49019,2.49019,0,0,1-1.08984,2.13379,3.63561,3.63561,0,0,1-2.16211.68262,3.99825,3.99825,0,0,1-2.39453-.79883c-.14649-.10644-.21875-.20312-.21875-.29a.43741.43741,0,0,1,.04492-.15918l.23047-.71191c.04883-.14453.12695-.21777.23242-.21777a4.17033,4.17033,0,0,1,.50781.1748,3.93982,3.93982,0,0,0,1.35156.21777q1.20411,0,1.20313-1.002a.91218.91218,0,0,0-.39063-.79785,1.10318,1.10318,0,0,0-.65429-.21777,1.53846,1.53846,0,0,0-.2168.02832,3.0754,3.0754,0,0,1-.36328.02929l-.957-.17383c-.127-.01953-.18946-.082-.18946-.18847a.2166.2166,0,0,1,.0586-.13086Z"/><path class="cls-2" d="M216.743,101.47953a7.634,7.634,0,0,1,7.57812,7.63477,7.66771,7.66771,0,0,1-13.09375,5.44238A7.67661,7.67661,0,0,1,211.2,103.72855,7.50153,7.50153,0,0,1,216.743,101.47953ZM211.95388,97.502l-.20312-1.17578a1.92984,1.92984,0,0,1-.0293-.31934.82655.82655,0,0,1,.34766-.624,3.72224,3.72224,0,0,1,2.498-.98633,7.16237,7.16237,0,0,1,2.14844.49317,6.0282,6.0282,0,0,0,1.74024.40625,3.4958,3.4958,0,0,0,2.07617-.74024.81667.81667,0,0,1,.37695-.18847q.29,0,.36328.3623l.17383.90039a2.40832,2.40832,0,0,1,.07227.4209,1.05748,1.05748,0,0,1-.31836.668,3.16513,3.16513,0,0,1-2.41016,1.18945,7.38078,7.38078,0,0,1-2.10352-.49316,7.24259,7.24259,0,0,0-2.0625-.46485,3.28579,3.28579,0,0,0-2.10351.75489.42986.42986,0,0,1-.24609.11621C212.09841,97.82133,211.993,97.71488,211.95388,97.502Zm4.6875,7.27246a4.3361,4.3361,0,0,0-4.33984,4.33985,4.23822,4.23822,0,0,0,1.293,3.13476,4.38256,4.38256,0,0,0,6.19726-6.19824A4.2537,4.2537,0,0,0,216.64138,104.77445Z"/><path class="cls-2" d="M239.53787,110.33305h-9.92774c-.03906,0-.05664.01464-.05664.04394a2.92143,2.92143,0,0,0,.79688,1.69824,4.38886,4.38886,0,0,0,3.6289,1.61036,7.80466,7.80466,0,0,0,3.35352-.75489,2.19208,2.19208,0,0,1,.668-.23144.66275.66275,0,0,1,.56445.4209l.6543,1.21875a.94462.94462,0,0,1,.14453.40625c0,.22265-.1543.43554-.46484.63867a9.464,9.464,0,0,1-5.06446,1.42285,7.58531,7.58531,0,0,1-5.57422-2.20606,7.89244,7.89244,0,0,1,0-10.94433,7.086,7.086,0,0,1,5.25391-2.14844,6.40825,6.40825,0,0,1,4.73242,1.84375,7.26556,7.26556,0,0,1,2.04688,5.39941c0,.29981-.00586.57129-.01563.8125l-.01367.11622Q240.26443,110.377,239.53787,110.33305Zm-9.91211-2.55469H236.825c.03711,0,.05664-.06738.05664-.20313a2.74667,2.74667,0,0,0-.69532-1.74218,3.407,3.407,0,0,0-2.7871-1.291,3.90312,3.90312,0,0,0-3.26563,1.68359,2.44185,2.44185,0,0,0-.58008,1.43653C229.55349,107.74027,229.57693,107.77836,229.62576,107.77836Z"/><path class="cls-2" d="M242.5906,113.71488l1.26367-.8125a.83.83,0,0,1,.43555-.16015.8987.8987,0,0,1,.59375.36328,1.56637,1.56637,0,0,0,1.17578.52246,1.31172,1.31172,0,0,0,.94336-.37793,1.22424,1.22424,0,0,0,.37695-.89942,2.22568,2.22568,0,0,0-1.07421-1.65429,17.4634,17.4634,0,0,0-1.74024-1.07422,4.20622,4.20622,0,0,1-2.45312-3.78906,4.25276,4.25276,0,0,1,1.248-3.13477,4.083,4.083,0,0,1,3.00391-1.21875,4.202,4.202,0,0,1,3.0332,1.36426,1.80025,1.80025,0,0,1,.63867,1.03027.69053.69053,0,0,1-.37695.56641l-1.18945.79785a.84658.84658,0,0,1-.43555.17383.69327.69327,0,0,1-.52344-.29,1.3648,1.3648,0,0,0-1.05859-.46387,1.173,1.173,0,0,0-.88672.34766,1.05825,1.05825,0,0,0-.332.79883,1.59958,1.59958,0,0,0,.8418,1.21875c.2207.165.70117.46484,1.43554.90039q2.99121,1.771,2.99024,4.58593a4.19229,4.19229,0,0,1-4.29688,4.29688,4.48975,4.48975,0,0,1-3.33789-1.4375q-.668-.69581-.668-1.07324A.69833.69833,0,0,1,242.5906,113.71488Z"/><path class="cls-2" d="M127.9363,135.57133a6.74692,6.74692,0,0,1,4.92188-1.98828,6.47822,6.47822,0,0,1,4.78906,1.82812,6.07,6.07,0,0,1,1.77149,4.5v8.041a.62715.62715,0,0,1-.72657.72558h-1.81445a.62582.62582,0,0,1-.72461-.72558V140.1143a3.13552,3.13552,0,0,0-.97265-2.293,3.186,3.186,0,0,0-2.3086-.97266,3.35849,3.35849,0,0,0-2.16211.76953,2.80054,2.80054,0,0,0-1.13281,2.26367v8.07032a.62651.62651,0,0,1-.72461.72558h-1.81445a.62715.62715,0,0,1-.72657-.72558V140.1143a3.12823,3.12823,0,0,0-.98632-2.30762,3.49258,3.49258,0,0,0-4.77539-.0293,3.04551,3.04551,0,0,0-.78516,2.16309v8.01172a.62582.62582,0,0,1-.72461.72558h-1.81445a.62715.62715,0,0,1-.72657-.72558V134.54105a.62782.62782,0,0,1,.72657-.72656h1.66992q.72363-.02783.72461.668v.13086a5.88523,5.88523,0,0,1,3.42578-1.03027A6.67288,6.67288,0,0,1,127.9363,135.57133Z"/><path class="cls-2" d="M155.17849,142.43656h-9.92773q-.05859,0-.0586.044a2.914,2.914,0,0,0,.79883,1.69824,4.38889,4.38889,0,0,0,3.62891,1.61035,7.80265,7.80265,0,0,0,3.35156-.75488,2.22653,2.22653,0,0,1,.668-.23145.66517.66517,0,0,1,.56641.4209l.65234,1.21875a.92745.92745,0,0,1,.14648.40625c0,.22266-.15625.43555-.46484.63867a9.47053,9.47053,0,0,1-5.06641,1.42285,7.584,7.584,0,0,1-5.57226-2.20605,7.88741,7.88741,0,0,1,0-10.94434,7.086,7.086,0,0,1,5.2539-2.14843,6.40369,6.40369,0,0,1,4.73047,1.84375,7.26554,7.26554,0,0,1,2.04688,5.39941c0,.29981-.00391.57129-.01367.8125l-.01563.11621C155.9031,142.24809,155.66287,142.46586,155.17849,142.43656Zm-9.91406-2.55469h7.19922c.03906,0,.05859-.06738.05859-.20312a2.74963,2.74963,0,0,0-.69726-1.74219,3.40448,3.40448,0,0,0-2.78711-1.291,3.90557,3.90557,0,0,0-3.26563,1.68359,2.44185,2.44185,0,0,0-.58008,1.43652C145.19216,139.84379,145.2156,139.88187,145.26443,139.88187Z"/><path class="cls-2" d="M169.84255,135.03422v-6.44434a.6268.6268,0,0,1,.72657-.72558h1.81445a.62616.62616,0,0,1,.72461.72558v19.36231a.62651.62651,0,0,1-.72461.72558h-1.72852a.62651.62651,0,0,1-.7246-.72558v-.55176a7.64535,7.64535,0,1,1-4.5-13.81738A7.5602,7.5602,0,0,1,169.84255,135.03422Zm-4.45507,1.81445a4.41351,4.41351,0,0,0-3.07813,7.51856,4.40847,4.40847,0,1,0,3.07813-7.51856Z"/><path class="cls-2" d="M175.98123,147.95219V134.54105a.62648.62648,0,0,1,.72461-.72656h1.84375a.62649.62649,0,0,1,.72461.72656v13.41114a.62582.62582,0,0,1-.72461.72558h-1.84375A.62582.62582,0,0,1,175.98123,147.95219Zm1.65429-19.02832a1.65989,1.65989,0,0,1,1.625,1.625,1.63313,1.63313,0,0,1-.47851,1.17578,1.64254,1.64254,0,0,1-2.33789-2.30762A1.62512,1.62512,0,0,1,177.63552,128.92387Z"/><path class="cls-2" d="M193.80935,143.65531l1.6836.74024c.30078.126.45117.30566.45117.53711q0,.62548-1.26367,1.85839a7.30887,7.30887,0,0,1-5.29688,2.11914,7.66371,7.66371,0,1,1-.04492-15.32714,7.6056,7.6056,0,0,1,5.37109,2.2207q.65332.60938.65235.91406a.72223.72223,0,0,1-.334.55176l-1.34961,1.001a.85447.85447,0,0,1-.47851.20312,1.22262,1.22262,0,0,1-.668-.40625,4.42408,4.42408,0,0,0-3.10547-1.18945,4.26493,4.26493,0,0,0-3.13477,1.27637,4.37645,4.37645,0,0,0,3.1211,7.46093,3.974,3.974,0,0,0,3.48242-1.74218.64026.64026,0,0,1,.50781-.333A1.00466,1.00466,0,0,1,193.80935,143.65531Z"/><path class="cls-2" d="M209.71365,135.12113v-.58008a.62781.62781,0,0,1,.72656-.72656h1.64063a.62719.62719,0,0,1,.72461.72656v13.41114a.62652.62652,0,0,1-.72461.72558h-1.64063a.62714.62714,0,0,1-.72656-.72558v-.55176a7.69982,7.69982,0,0,1-4.55664,1.50976,7.66357,7.66357,0,0,1-.01563-15.32714A7.75651,7.75651,0,0,1,209.71365,135.12113Zm-4.61524,1.72754a4.19316,4.19316,0,0,0-3.07617,1.27734,4.44884,4.44884,0,1,0,3.07617-1.27734Z"/><path class="cls-2" d="M227.19607,135.57133A6.74691,6.74691,0,0,1,232.118,133.583a6.47823,6.47823,0,0,1,4.78906,1.82812,6.07,6.07,0,0,1,1.77148,4.5v8.041a.62714.62714,0,0,1-.72656.72558h-1.81445a.62582.62582,0,0,1-.72461-.72558V140.1143a3.1355,3.1355,0,0,0-.97266-2.293,3.18593,3.18593,0,0,0-2.30859-.97266,3.35847,3.35847,0,0,0-2.16211.76953,2.80054,2.80054,0,0,0-1.13281,2.26367v8.07032a.62652.62652,0,0,1-.72461.72558h-1.81446a.62714.62714,0,0,1-.72656-.72558V140.1143a3.1282,3.1282,0,0,0-.98633-2.30762,3.49258,3.49258,0,0,0-4.77539-.0293,3.0455,3.0455,0,0,0-.78515,2.16309v8.01172a.62582.62582,0,0,1-.72461.72558h-1.81446a.62714.62714,0,0,1-.72656-.72558V134.54105a.62781.62781,0,0,1,.72656-.72656h1.66992q.72365-.02783.72461.668v.13086a5.88528,5.88528,0,0,1,3.42579-1.03027A6.67288,6.67288,0,0,1,227.19607,135.57133Z"/><path class="cls-2" d="M254.43826,142.43656h-9.92774c-.03906,0-.05664.01465-.05664.044a2.92143,2.92143,0,0,0,.79688,1.69824,4.38888,4.38888,0,0,0,3.6289,1.61035,7.8048,7.8048,0,0,0,3.35352-.75488,2.19191,2.19191,0,0,1,.668-.23145.66275.66275,0,0,1,.56445.4209l.6543,1.21875a.94466.94466,0,0,1,.14453.40625c0,.22266-.1543.43555-.46484.63867a9.4639,9.4639,0,0,1-5.06446,1.42285,7.58534,7.58534,0,0,1-5.57422-2.20605,7.89246,7.89246,0,0,1,0-10.94434,7.086,7.086,0,0,1,5.25391-2.14843,6.40821,6.40821,0,0,1,4.73242,1.84375,7.26554,7.26554,0,0,1,2.04688,5.39941c0,.29981-.00586.57129-.01563.8125l-.01367.11621Q255.16482,142.48051,254.43826,142.43656Zm-9.91211-2.55469h7.19922c.03711,0,.05664-.06738.05664-.20312a2.74673,2.74673,0,0,0-.69531-1.74219,3.40708,3.40708,0,0,0-2.78711-1.291,3.9031,3.9031,0,0,0-3.26563,1.68359,2.44185,2.44185,0,0,0-.58008,1.43652C244.45388,139.84379,244.47732,139.88187,244.52615,139.88187Z"/><path class="cls-2" d="M260.69021,134.61332A6.04675,6.04675,0,0,1,264.159,133.583a6.51293,6.51293,0,0,1,4.791,1.84277,6.07785,6.07785,0,0,1,1.75586,4.48535v8.041a.62715.62715,0,0,1-.72657.72558h-1.84179a.62715.62715,0,0,1-.72657-.72558V140.1143a3.12823,3.12823,0,0,0-.98632-2.30762,3.23056,3.23056,0,0,0-2.35157-.958,3.16633,3.16633,0,0,0-2.42382.958,3.0447,3.0447,0,0,0-.78516,2.16211v7.9834a.62582.62582,0,0,1-.72461.72558H258.325a.62715.62715,0,0,1-.72657-.72558V134.54105a.62782.62782,0,0,1,.72657-.72656h1.64062q.72363-.02783.72461.668Z"/><path class="cls-2" d="M276.09255,133.9307v-3.70117a.62716.62716,0,0,1,.72657-.72559h1.84179a.62716.62716,0,0,1,.72657.72559v3.70117h3.12109a.62687.62687,0,0,1,.72461.72559v1.52441a.62652.62652,0,0,1-.72461.72559h-3.12109v11.0459a.62715.62715,0,0,1-.72657.72558h-1.84179a.62715.62715,0,0,1-.72657-.72558v-11.0459h-3.16406a.62715.62715,0,0,1-.72656-.72559v-1.52441a.6275.6275,0,0,1,.72656-.72559Z"/><path class="cls-2" d="M292.06521,133.583a7.63062,7.63062,0,0,1,7.57617,7.63476,7.66632,7.66632,0,0,1-13.09179,5.44238,7.67425,7.67425,0,0,1-.0293-10.82812A7.50593,7.50593,0,0,1,292.06521,133.583Zm-.10156,3.29492a4.33725,4.33725,0,1,0,3.14844,1.27637A4.24934,4.24934,0,0,0,291.96365,136.878Z"/><path class="cls-2" d="M301.84255,145.8184l1.26172-.8125a.83557.83557,0,0,1,.43555-.16016.90194.90194,0,0,1,.5957.36328,1.56333,1.56333,0,0,0,1.17578.52246,1.31166,1.31166,0,0,0,.94336-.37793,1.23176,1.23176,0,0,0,.377-.89941,2.22567,2.22567,0,0,0-1.07422-1.6543,17.81856,17.81856,0,0,0-1.74219-1.07422,4.20961,4.20961,0,0,1-2.45312-3.78906,4.25276,4.25276,0,0,1,1.248-3.13476A4.0874,4.0874,0,0,1,305.616,133.583a4.20849,4.20849,0,0,1,3.03321,1.36425,1.80024,1.80024,0,0,1,.63867,1.03028.69483.69483,0,0,1-.377.5664l-1.1914.79786a.84051.84051,0,0,1-.43555.17382.68981.68981,0,0,1-.52148-.29,1.37172,1.37172,0,0,0-1.06055-.46386,1.17158,1.17158,0,0,0-.88477.34765,1.06,1.06,0,0,0-.334.79883,1.60459,1.60459,0,0,0,.8418,1.21875q.334.24756,1.4375.90039,2.98827,1.771,2.99023,4.58594a4.19534,4.19534,0,0,1-4.29687,4.29687,4.48359,4.48359,0,0,1-3.33789-1.4375q-.668-.69579-.668-1.07324A.69834.69834,0,0,1,301.84255,145.8184Z"/><path class="cls-2" d="M323.58474,135.12113v-.58008a.62718.62718,0,0,1,.72461-.72656H325.95a.62781.62781,0,0,1,.72656.72656v13.41114a.62714.62714,0,0,1-.72656.72558h-1.64063a.62652.62652,0,0,1-.72461-.72558v-.55176a7.70551,7.70551,0,0,1-4.55859,1.50976,7.66357,7.66357,0,0,1-.01367-15.32714A7.76082,7.76082,0,0,1,323.58474,135.12113Zm-4.61523,1.72754a4.1944,4.1944,0,0,0-3.07813,1.27734,4.45125,4.45125,0,1,0,3.07813-1.27734Z"/><path class="cls-2" d="M329.63552,145.8184l1.26172-.8125a.83554.83554,0,0,1,.43555-.16016.90194.90194,0,0,1,.5957.36328,1.56333,1.56333,0,0,0,1.17578.52246,1.31168,1.31168,0,0,0,.94336-.37793,1.23176,1.23176,0,0,0,.377-.89941,2.2257,2.2257,0,0,0-1.07422-1.6543,17.81856,17.81856,0,0,0-1.74219-1.07422,4.20961,4.20961,0,0,1-2.45313-3.78906,4.25277,4.25277,0,0,1,1.248-3.13476A4.08737,4.08737,0,0,1,333.409,133.583a4.20846,4.20846,0,0,1,3.0332,1.36425,1.80021,1.80021,0,0,1,.63868,1.03028.69483.69483,0,0,1-.377.5664l-1.1914.79786a.84051.84051,0,0,1-.43555.17382.68981.68981,0,0,1-.52148-.29,1.37172,1.37172,0,0,0-1.06055-.46386,1.17158,1.17158,0,0,0-.88477.34765,1.06,1.06,0,0,0-.334.79883,1.60459,1.60459,0,0,0,.8418,1.21875q.334.24756,1.4375.90039,2.98827,1.771,2.99023,4.58594a4.19534,4.19534,0,0,1-4.29688,4.29687,4.48362,4.48362,0,0,1-3.33789-1.4375q-.668-.69579-.668-1.07324A.69832.69832,0,0,1,329.63552,145.8184Z"/></g></g></svg>