<svg xmlns="http://www.w3.org/2000/svg" width="404.16182" height="219.7723" viewBox="0 0 404.16182 219.7723"><defs><style>.cls-1{fill:#1e84b0;}.cls-2{fill:#fff;}</style></defs><g id="Camada_2" data-name="Camada 2"><g id="Layer_1" data-name="Layer 1"><path class="cls-1" d="M333.09357.6691,0,0V219.1032l333.09357.6691a8.7156,8.7156,0,0,0,7.37032-4.0637l61.26033-97.05885a15.79233,15.79233,0,0,0,0-16.85809L340.46389,4.73281A8.71558,8.71558,0,0,0,333.09357.6691Z"/><path class="cls-2" d="M57.20679,95.06143v9.75a.20472.20472,0,0,0,.23194.23144h8.877a.20474.20474,0,0,0,.23169-.23144v-9.75a.87932.87932,0,0,1,1.03393-1.03418h3.155a.87932.87932,0,0,1,1.03394,1.03418V120.373a.87965.87965,0,0,1-1.03394,1.03418h-3.155a.87964.87964,0,0,1-1.03393-1.03418v-9.875a.20474.20474,0,0,0-.23169-.23145h-8.877a.20473.20473,0,0,0-.23194.23145v9.875a.87957.87957,0,0,1-1.03369,1.03418H53.01783a.8794.8794,0,0,1-1.03369-1.03418V95.06143a.87908.87908,0,0,1,1.03369-1.03418H56.1731A.87924.87924,0,0,1,57.20679,95.06143Z"/><path class="cls-2" d="M76.33228,120.373v-16.2207q-.03588-1.06934,1.05176-1.03418h2.88769q1.05177-.03516,1.03394,1.03418V120.373q.01758,1.06933-1.03394,1.03418H77.384Q76.29639,121.44229,76.33228,120.373Zm2.53125-23.72559a2.50452,2.50452,0,1,1-1.80029,4.27832,2.42364,2.42364,0,0,1-.731-1.78222,2.38275,2.38275,0,0,1,.731-1.74707A2.41742,2.41742,0,0,1,78.86353,96.64736Z"/><path class="cls-2" d="M98.40552,104.02725V96.87881q-.0183-1.06934,1.03369-1.0332h2.8877q1.08728-.03516,1.05176,1.0332V120.373q.03552,1.06933-1.05176,1.03418H99.70679q-1.03417.05419-1.05175-.90918v-.10645a10.09538,10.09538,0,0,1-4.75953,1.30079,9.41167,9.41167,0,0,1,0-18.82325A9.54218,9.54218,0,0,1,98.40552,104.02725Zm-4.56347,3.72558a4.23805,4.23805,0,0,0-3.13721,1.30078,4.60572,4.60572,0,0,0,0,6.45313,4.27721,4.27721,0,0,0,3.17285,1.30176,4.33735,4.33735,0,0,0,3.19092-1.30176,4.52762,4.52762,0,0,0-3.22656-7.75391Z"/><path class="cls-2" d="M111.75464,103.956a5.33326,5.33326,0,0,1,3.5293-1.08692h1.51514q1.05175-.03661,1.03393,1.03321v2.92382a.87868.87868,0,0,1-1.03393,1.03321H115.2483a3.10677,3.10677,0,0,0-2.21021.83789,2.81286,2.81286,0,0,0-.96264,2.08594V120.373q.01756,1.06933-1.03394,1.03418h-2.8877q-1.08763.03516-1.05175-1.03418V104.1874q-.03589-1.06933,1.05175-1.0332h2.60254Q111.68287,103.11759,111.75464,103.956Z"/><path class="cls-2" d="M128.99805,102.869a9.37283,9.37283,0,0,1,9.30493,9.376,9.41579,9.41579,0,0,1-16.07861,6.68457,9.42482,9.42482,0,0,1-.03564-13.29785A9.21548,9.21548,0,0,1,128.99805,102.869Zm-.12475,4.95508a4.43854,4.43854,0,1,0,3.155,7.59375,4.43853,4.43853,0,0,0-3.155-7.59375Z"/><path class="cls-2" d="M142.73414,103.1542v-1.74707a5.565,5.565,0,0,1,1.51513-4.11817,5.62636,5.62636,0,0,1,4.1355-1.51464h2.21045q1.08691-.01758,1.05176,1.0332V99.036q.03552,1.06934-1.05176,1.05175h-.89136a1.81259,1.81259,0,0,0-2.01416,2.08594v.98047H151.95q1.06933-.01758,1.03393,1.0332v2.38867q.03552,1.05177-1.03393,1.03418H147.6897V120.373a.87972.87972,0,0,1-1.03393,1.03418h-2.8877a.87956.87956,0,0,1-1.03393-1.03418v-12.7627h-1.925a.87957.87957,0,0,1-1.03394-1.03418V104.1874a.8786.8786,0,0,1,1.03394-1.0332Z"/><path class="cls-2" d="M154.31421,95.97061l5.15162-2.19336a1.27877,1.27877,0,0,1,.46337-.10645q.44568,0,.69532.57031l1.03393,2.2461a1.3644,1.3644,0,0,1,.12476.48144q0,.44532-.58838.67676l-4.72363,1.92578a1.34794,1.34794,0,0,1-.46338.124.877.877,0,0,1-.69531-.499l-1.33692-2.10351a.985.985,0,0,1-.196-.46289Q153.77955,96.202,154.31421,95.97061Zm1.21216,24.40234V104.1874a.8786.8786,0,0,1,1.03394-1.0332h2.353a.8786.8786,0,0,1,1.03369,1.0332V120.373a.87957.87957,0,0,1-1.03369,1.03418h-2.353A.87957.87957,0,0,1,155.52637,120.373Z"/><path class="cls-2" d="M163.74879,120.373V96.87881q-.0359-1.06934,1.05175-1.0332h2.8877q1.05175-.03516,1.03393,1.0332V120.373q.01758,1.06933-1.03393,1.03418h-2.8877Q163.7129,121.44229,163.74879,120.373Z"/><path class="cls-2" d="M172.49122,120.373v-16.2207q-.0359-1.06934,1.05175-1.03418h2.8877q1.05176-.03516,1.03394,1.03418V120.373q.01756,1.06933-1.03394,1.03418H173.543Q172.45534,121.44229,172.49122,120.373Zm2.53125-23.72559a2.50452,2.50452,0,1,1-1.8003,4.27832,2.42363,2.42363,0,0,1-.731-1.78222,2.38274,2.38274,0,0,1,.731-1.74707A2.41744,2.41744,0,0,1,175.02247,96.64736Z"/><path class="cls-2" d="M196.80005,107.61025l-2.10327,1.56836a1.30278,1.30278,0,0,1-.69531.28516,1.21261,1.21261,0,0,1-.7666-.3916,4.72421,4.72421,0,0,0-3.22632-1.24805,4.35969,4.35969,0,0,0-3.2085,1.30078,4.24961,4.24961,0,0,0-1.28344,3.12012,4.44221,4.44221,0,0,0,4.47412,4.45605,4.13084,4.13084,0,0,0,3.13721-1.42578q.67749-.71337,1.06958-.71289a1.39384,1.39384,0,0,1,.55273.19629l2.54883,1.2832a.90805.90805,0,0,1,.6062.80176,3.41238,3.41238,0,0,1-1.01611,1.65821,9.41247,9.41247,0,1,1-7.05884-15.63282,9.18744,9.18744,0,0,1,6.77368,2.86914q.67713.66065.67725,1.07032A1.00359,1.00359,0,0,1,196.80005,107.61025Z"/><path class="cls-2" d="M213.96,104.24111V104.081q0-.9624,1.03393-.92676h2.46a.87876.87876,0,0,1,1.03394,1.0332V120.373a.87973.87973,0,0,1-1.03394,1.03418h-2.46q-1.03382.03516-1.03393-.92676v-.125a9.43629,9.43629,0,0,1-4.884,1.33692,9.41165,9.41165,0,0,1-.03564-18.82325A9.68877,9.68877,0,0,1,213.96,104.24111Zm-4.97315,3.51172a4.27663,4.27663,0,0,0-3.13745,1.30078,4.65085,4.65085,0,0,0,0,6.45313,4.53959,4.53959,0,0,0,6.36377,0,4.52762,4.52762,0,0,0-3.22632-7.75391Z"/></g></g></svg>