<svg xmlns="http://www.w3.org/2000/svg" width="420.11756" height="219.10322" viewBox="0 0 420.11756 219.10322"><defs><style>.cls-1{fill:#c1a0ca;}.cls-2{fill:#fff;}</style></defs><g id="Camada_2" data-name="Camada 2"><g id="Layer_1" data-name="Layer 1"><path class="cls-1" d="M420.11756,32.61384A32.61383,32.61383,0,0,0,387.50373,0H2.38311a2.37921,2.37921,0,0,0-2.012,3.6491l61.52172,97.47343a15.79237,15.79237,0,0,1,0,16.85809L.37107,215.45414a2.3792,2.3792,0,0,0,2.012,3.64908H387.50373a32.61383,32.61383,0,0,0,32.61383-32.61384Z"/><path class="cls-2" d="M130.23823,79.71688l5.74854-16.459a.78684.78684,0,0,1,.84668-.59472h3.5205a.64185.64185,0,0,1,.74268.74316V84.70711a.64151.64151,0,0,1-.74268.74317h-2.0498a.64151.64151,0,0,1-.74268-.74317V68.60555l-5.73388,16.251a.8109.8109,0,0,1-.86182.59375H129.54a.787.787,0,0,1-.84668-.59375L123.03364,68.6202V84.70711a.64168.64168,0,0,1-.74268.74317h-2.10937a.64151.64151,0,0,1-.74268-.74317V63.40633a.64185.64185,0,0,1,.74268-.74316h3.46094a.80077.80077,0,0,1,.84668.59472Z"/><path class="cls-2" d="M156.47114,71.57625v-.59472a.64135.64135,0,0,1,.74268-.74219h1.67871a.64135.64135,0,0,1,.74267.74219V84.70711a.64167.64167,0,0,1-.74267.74317h-1.67871a.64168.64168,0,0,1-.74268-.74317v-.56445a7.88316,7.88316,0,0,1-4.66406,1.54492,7.84326,7.84326,0,0,1-.01514-15.68652A7.9396,7.9396,0,0,1,156.47114,71.57625Zm-4.72363,1.76758a4.29116,4.29116,0,0,0-3.14942,1.30762,4.55375,4.55375,0,1,0,3.14942-1.30762Z"/><path class="cls-2" d="M162.63764,84.70711V70.98153a.64136.64136,0,0,1,.74268-.74219H165.267a.64135.64135,0,0,1,.74267.74219V84.70711a.64167.64167,0,0,1-.74267.74317h-1.88672A.64168.64168,0,0,1,162.63764,84.70711ZM164.331,65.23348a1.69912,1.69912,0,0,1,1.66358,1.66309,1.666,1.666,0,0,1-.48975,1.20312,1.68571,1.68571,0,0,1-2.37695,0,1.63482,1.63482,0,0,1-.49024-1.20312,1.60721,1.60721,0,0,1,.47559-1.15821A1.65834,1.65834,0,0,1,164.331,65.23348Z"/><path class="cls-2" d="M169.07661,82.52352l1.29248-.83105a.85059.85059,0,0,1,.4458-.16407.92134.92134,0,0,1,.60889.37207,1.59827,1.59827,0,0,0,1.20312.53418,1.34494,1.34494,0,0,0,.96582-.38574,1.25837,1.25837,0,0,0,.38623-.9209,2.28227,2.28227,0,0,0-1.09961-1.69336,18.01237,18.01237,0,0,0-1.78222-1.09961,4.30531,4.30531,0,0,1-2.51075-3.877,4.35131,4.35131,0,0,1,1.27784-3.209,4.17677,4.17677,0,0,1,3.0747-1.24805,4.30364,4.30364,0,0,1,3.1045,1.39648,1.84639,1.84639,0,0,1,.6538,1.05469.70922.70922,0,0,1-.38623.58008l-1.21826.81641a.86466.86466,0,0,1-.44531.17871.712.712,0,0,1-.53516-.29786,1.40144,1.40144,0,0,0-1.084-.4746,1.19444,1.19444,0,0,0-.90625.35644,1.08253,1.08253,0,0,0-.3418.81641,1.64028,1.64028,0,0,0,.86182,1.248q.34131.25342,1.47021.9209,3.06006,1.81349,3.06006,4.69434a4.28989,4.28989,0,0,1-4.397,4.39648,4.59108,4.59108,0,0,1-3.4165-1.4707q-.68336-.71192-.68311-1.09863A.71567.71567,0,0,1,169.07661,82.52352Z"/><path class="cls-2" d="M130.57954,99.05379l-1.88623.90625a1.14412,1.14412,0,0,1-.38623.13379.91812.91812,0,0,1-.60889-.37109,2.62933,2.62933,0,0,0-2.05029-.877,2.66536,2.66536,0,0,0-1.9458.832,2.74907,2.74907,0,0,0-.832,1.99121,2.512,2.512,0,0,0,1.20361,2.22754,16.01819,16.01819,0,0,0,2.124,1.11425,19.82818,19.82818,0,0,1,3.28272,1.78223,5.95636,5.95636,0,0,1,2.51074,5.08106,6.51927,6.51927,0,0,1-1.90186,4.7832,6.15891,6.15891,0,0,1-4.51562,1.88574H125.455a6.25639,6.25639,0,0,1-4.63477-1.85644,3.61705,3.61705,0,0,1-1.30713-2.19825.51963.51963,0,0,1,.208-.43066,19.40317,19.40317,0,0,1,2.07959-.72852,1.289,1.289,0,0,1,.312-.05957q.29664,0,.72754.54981a3.182,3.182,0,0,0,2.59961,1.2334,3.09513,3.09513,0,0,0,3.04541-3.06055A3.168,3.168,0,0,0,127,109.31844a12.37192,12.37192,0,0,0-2.06494-1.05469,14.35735,14.35735,0,0,1-3.63916-2.00488,5.522,5.522,0,0,1-1.99073-4.4414,6.35923,6.35923,0,0,1,1.8418-4.69434,6.19544,6.19544,0,0,1,4.56055-1.8418,6.07141,6.07141,0,0,1,4.38183,1.75293q.95068.90528.95118,1.42578Q131.04048,98.816,130.57954,99.05379Z"/><path class="cls-2" d="M134.83149,117.56258V103.837a.64136.64136,0,0,1,.74268-.74219h1.88672a.64135.64135,0,0,1,.74267.74219v13.72558a.64167.64167,0,0,1-.74267.74317h-1.88672A.64168.64168,0,0,1,134.83149,117.56258ZM136.52485,98.089a1.69912,1.69912,0,0,1,1.66358,1.66309,1.666,1.666,0,0,1-.48975,1.20312,1.68574,1.68574,0,0,1-2.37695,0,1.63482,1.63482,0,0,1-.49024-1.20312,1.60721,1.60721,0,0,1,.47559-1.15821A1.6583,1.6583,0,0,1,136.52485,98.089Z"/><path class="cls-2" d="M144.39643,103.91122a6.19645,6.19645,0,0,1,3.5503-1.05469,6.66645,6.66645,0,0,1,4.90185,1.88672,6.21715,6.21715,0,0,1,1.79737,4.59082v8.22851a.64168.64168,0,0,1-.74268.74317h-1.88672a.64168.64168,0,0,1-.74268-.74317V109.5411a3.2034,3.2034,0,0,0-1.00976-2.36133,3.30524,3.30524,0,0,0-2.40674-.98047,3.24132,3.24132,0,0,0-2.48047.98047,3.11732,3.11732,0,0,0-.80224,2.21289v8.16992a.64168.64168,0,0,1-.74268.74317h-1.85693a.6415.6415,0,0,1-.74268-.74317V103.837a.64118.64118,0,0,1,.74268-.74219h1.67871q.74266-.02929.74267.68359Z"/><path class="cls-2" d="M160.15034,103.214V99.42586a.64184.64184,0,0,1,.74268-.74316h1.88671a.642.642,0,0,1,.74268.74316V103.214h3.19336a.64118.64118,0,0,1,.74268.74219v1.55957a.64185.64185,0,0,1-.74268.74316h-3.19336v11.30371a.64168.64168,0,0,1-.74268.74317H160.893a.6415.6415,0,0,1-.74268-.74317V106.25887h-3.23828a.64167.64167,0,0,1-.74268-.74316v-1.55957a.641.641,0,0,1,.74268-.74219Z"/><path class="cls-2" d="M176.49116,102.85653a7.81154,7.81154,0,0,1,7.75391,7.81347,7.8469,7.8469,0,0,1-13.39893,5.57129,7.85519,7.85519,0,0,1-.02978-11.082A7.679,7.679,0,0,1,176.49116,102.85653Zm-.104,3.37207a4.43978,4.43978,0,1,0,3.22314,1.30762A4.34987,4.34987,0,0,0,176.38716,106.2286Z"/><path class="cls-2" d="M198.413,104.89168a6.90273,6.90273,0,0,1,5.03564-2.03515,6.62783,6.62783,0,0,1,4.90186,1.87207,6.20905,6.20905,0,0,1,1.8125,4.60547v8.22851a.642.642,0,0,1-.74317.74317h-1.85644a.64133.64133,0,0,1-.74268-.74317V109.5411a3.21179,3.21179,0,0,0-.99561-2.34668,3.261,3.261,0,0,0-2.36181-.99512,3.44445,3.44445,0,0,0-2.21338.78711,2.86974,2.86974,0,0,0-1.15869,2.31738v8.25879a.64151.64151,0,0,1-.74268.74317h-1.85693a.64168.64168,0,0,1-.74268-.74317V109.5411a3.2034,3.2034,0,0,0-1.00976-2.36133,3.57467,3.57467,0,0,0-4.88721-.03027,3.11969,3.11969,0,0,0-.80225,2.21386v8.19922a.64167.64167,0,0,1-.74267.74317h-1.85694a.6415.6415,0,0,1-.74267-.74317V103.837a.64117.64117,0,0,1,.74267-.74219h1.7085q.74194-.02929.74268.68359v.13282a6.03282,6.03282,0,0,1,3.50537-1.05469A6.83787,6.83787,0,0,1,198.413,104.89168Z"/><path class="cls-2" d="M224.99116,104.43172V103.837a.64135.64135,0,0,1,.74268-.74219h1.67871a.64135.64135,0,0,1,.74267.74219v13.72558a.64167.64167,0,0,1-.74267.74317h-1.67871a.64168.64168,0,0,1-.74268-.74317v-.56445a7.88316,7.88316,0,0,1-4.66406,1.54492,7.84326,7.84326,0,0,1-.01514-15.68652A7.9396,7.9396,0,0,1,224.99116,104.43172Zm-4.72363,1.76758a4.29116,4.29116,0,0,0-3.14942,1.30762,4.55375,4.55375,0,1,0,3.14942-1.30762Z"/><path class="cls-2" d="M231.17378,115.379l1.29248-.83106a.85063.85063,0,0,1,.4458-.16406.9213.9213,0,0,1,.60889.37207,1.59827,1.59827,0,0,0,1.20312.53418,1.34494,1.34494,0,0,0,.96582-.38574,1.25841,1.25841,0,0,0,.38623-.9209,2.28226,2.28226,0,0,0-1.09961-1.69336,18.0104,18.0104,0,0,0-1.78222-1.09961,4.30531,4.30531,0,0,1-2.51075-3.877,4.35134,4.35134,0,0,1,1.27783-3.209,4.17683,4.17683,0,0,1,3.07471-1.248,4.30362,4.30362,0,0,1,3.10449,1.39648,1.84636,1.84636,0,0,1,.65381,1.05469.70922.70922,0,0,1-.38623.58008l-1.21826.8164a.86466.86466,0,0,1-.44531.17871.71194.71194,0,0,1-.53516-.29785,1.40147,1.40147,0,0,0-1.084-.47461,1.19444,1.19444,0,0,0-.90625.35645,1.08253,1.08253,0,0,0-.3418.81641,1.64028,1.64028,0,0,0,.86182,1.248q.34131.25343,1.47021.9209,3.06006,1.81349,3.06006,4.69434a4.28989,4.28989,0,0,1-4.397,4.39648,4.59112,4.59112,0,0,1-3.41651-1.4707q-.68334-.71192-.6831-1.09863A.71566.71566,0,0,1,231.17378,115.379Z"/><path class="cls-2" d="M130.23823,145.42879l5.74854-16.459a.78686.78686,0,0,1,.84668-.59473h3.5205a.64185.64185,0,0,1,.74268.74317V150.419a.6415.6415,0,0,1-.74268.74316h-2.0498a.6415.6415,0,0,1-.74268-.74316V134.31747l-5.73388,16.251a.81088.81088,0,0,1-.86182.59375H129.54a.787.787,0,0,1-.84668-.59375l-5.65967-16.23633V150.419a.64166.64166,0,0,1-.74268.74316h-2.10937a.6415.6415,0,0,1-.74268-.74316V129.11825a.64185.64185,0,0,1,.74268-.74317h3.46094a.80079.80079,0,0,1,.84668.59473Z"/><path class="cls-2" d="M154.73286,150.31551a5.90151,5.90151,0,0,1-3.55029,1.084,6.62865,6.62865,0,0,1-4.85743-1.85645,6.293,6.293,0,0,1-1.8125-4.64941v-8.16992a.642.642,0,0,1,.74268-.74317h1.85693a.642.642,0,0,1,.74268.74317v7.96191a3.18339,3.18339,0,0,0,.98047,2.332,3.3177,3.3177,0,0,0,2.436,1.00977,3.24493,3.24493,0,0,0,2.52539-1.00977,3.00907,3.00907,0,0,0,.75733-2.1543v-8.13964a.64218.64218,0,0,1,.74316-.74317h1.88623a.64185.64185,0,0,1,.74268.74317V150.419a.6415.6415,0,0,1-.74268.74316h-1.708q-.74341.02929-.74268-.68359Z"/><path class="cls-2" d="M160.99311,148.23543l1.29248-.83105a.8506.8506,0,0,1,.4458-.16406.92128.92128,0,0,1,.60889.37207,1.59833,1.59833,0,0,0,1.20313.53418,1.345,1.345,0,0,0,.96582-.38575,1.2584,1.2584,0,0,0,.38623-.92089,2.28224,2.28224,0,0,0-1.09961-1.69336,18.01021,18.01021,0,0,0-1.78223-1.09961,4.3053,4.3053,0,0,1-2.51074-3.877,4.3513,4.3513,0,0,1,1.27783-3.209,4.17683,4.17683,0,0,1,3.07471-1.248,4.30359,4.30359,0,0,1,3.10449,1.39649,1.84638,1.84638,0,0,1,.65381,1.05468.70922.70922,0,0,1-.38623.58008l-1.21826.81641a.86468.86468,0,0,1-.44532.17871.712.712,0,0,1-.53515-.29785,1.40144,1.40144,0,0,0-1.084-.47461,1.19445,1.19445,0,0,0-.90625.35644,1.08258,1.08258,0,0,0-.34179.81641,1.64028,1.64028,0,0,0,.86181,1.24805q.34131.25341,1.47022.9209,3.06006,1.81347,3.06006,4.69433a4.28991,4.28991,0,0,1-4.397,4.39649,4.5911,4.5911,0,0,1-3.4165-1.47071q-.68335-.71191-.68311-1.09863A.71567.71567,0,0,1,160.99311,148.23543Z"/><path class="cls-2" d="M183.19087,146.02254l1.72314.75782c.30664.1289.46045.31152.46045.5498q0,.63867-1.29248,1.90137a7.48517,7.48517,0,0,1-5.42187,2.168,7.84341,7.84341,0,1,1-.04444-15.68653,7.78184,7.78184,0,0,1,5.4961,2.27344q.668.624.66845.93555a.73739.73739,0,0,1-.34179.56445l-1.38135,1.02539a.87744.87744,0,0,1-.49024.208,1.2513,1.2513,0,0,1-.68359-.416,4.52483,4.52483,0,0,0-3.17871-1.21875,4.36332,4.36332,0,0,0-3.2085,1.30762,4.47827,4.47827,0,0,0,3.19385,7.63477,4.0668,4.0668,0,0,0,3.56494-1.78223.65511.65511,0,0,1,.52-.3418A1.03857,1.03857,0,0,1,183.19087,146.02254Z"/><path class="cls-2" d="M197.64057,150.31551a5.90149,5.90149,0,0,1-3.55029,1.084,6.62861,6.62861,0,0,1-4.85742-1.85645,6.29292,6.29292,0,0,1-1.8125-4.64941v-8.16992a.642.642,0,0,1,.74268-.74317H190.02a.642.642,0,0,1,.74267.74317v7.96191a3.18339,3.18339,0,0,0,.98047,2.332,3.31771,3.31771,0,0,0,2.436,1.00977,3.245,3.245,0,0,0,2.52539-1.00977,3.0091,3.0091,0,0,0,.75732-2.1543v-8.13964a.64219.64219,0,0,1,.74317-.74317h1.88623a.64184.64184,0,0,1,.74267.74317V150.419a.64149.64149,0,0,1-.74267.74316h-1.708q-.74341.02929-.74268-.68359Z"/><path class="cls-2" d="M203.86274,150.419V130.63289a.64118.64118,0,0,1,.74268-.74218h1.88672a.64135.64135,0,0,1,.74267.74218V150.419a.64166.64166,0,0,1-.74267.74316h-1.88672A.6415.6415,0,0,1,203.86274,150.419Z"/><path class="cls-2" d="M222.17866,137.28817v-.59473a.64136.64136,0,0,1,.74268-.74219h1.67871a.64136.64136,0,0,1,.74267.74219V150.419a.64166.64166,0,0,1-.74267.74316h-1.67871a.64166.64166,0,0,1-.74268-.74316v-.56446a7.88311,7.88311,0,0,1-4.66406,1.54493,7.84327,7.84327,0,0,1-.01514-15.68653A7.93954,7.93954,0,0,1,222.17866,137.28817Zm-4.72363,1.76758a4.29115,4.29115,0,0,0-3.14942,1.30761,4.55377,4.55377,0,1,0,3.14942-1.30761Z"/><path class="cls-2" d="M231.583,136.82723a5.99949,5.99949,0,0,1,3.74365-1.11426h.77246q.75732-.0293.74268.74317v1.916a.642.642,0,0,1-.74268.74317h-.65381q-3.6687.04394-3.74316,3.13379V150.419a.64167.64167,0,0,1-.74268.74316h-1.85693a.6415.6415,0,0,1-.74268-.74316V136.69344a.64119.64119,0,0,1,.74268-.74219h1.73779q.74268-.02929.74268.69825Z"/><path class="cls-2" d="M251.812,144.7745H241.65132c-.03955,0-.05957.01464-.05957.04492a2.98626,2.98626,0,0,0,.81738,1.73828,4.49113,4.49113,0,0,0,3.71338,1.64844,8.00307,8.00307,0,0,0,3.43164-.77246,2.25161,2.25161,0,0,1,.6831-.23731.68255.68255,0,0,1,.57959.43067l.66846,1.24707a.96536.96536,0,0,1,.14844.416q0,.34278-.47559.6543a9.6876,9.6876,0,0,1-5.18408,1.45508,7.76048,7.76048,0,0,1-5.7041-2.25782,8.07389,8.07389,0,0,1,0-11.20019,7.25052,7.25052,0,0,1,5.37744-2.19824A6.55575,6.55575,0,0,1,250.4897,137.63a7.43944,7.43944,0,0,1,2.09472,5.52539q0,.46142-.01513.832l-.01465.11914C252.55464,144.58114,252.30708,144.80477,251.812,144.7745Zm-10.14551-2.61426h7.36768c.03955,0,.05957-.06934.05957-.208a2.81147,2.81147,0,0,0-.71338-1.78223,3.48085,3.48085,0,0,0-2.85205-1.32226,3.99846,3.99846,0,0,0-3.34229,1.72265,2.501,2.501,0,0,0-.59423,1.47071C241.59175,142.12118,241.61665,142.16024,241.66645,142.16024Z"/><path class="cls-2" d="M254.92964,148.23543l1.29248-.83105a.85054.85054,0,0,1,.4458-.16406.92126.92126,0,0,1,.60888.37207,1.59834,1.59834,0,0,0,1.20313.53418,1.345,1.345,0,0,0,.96582-.38575,1.2584,1.2584,0,0,0,.38623-.92089,2.28224,2.28224,0,0,0-1.09961-1.69336,18.0077,18.0077,0,0,0-1.78223-1.09961,4.30532,4.30532,0,0,1-2.51074-3.877,4.3513,4.3513,0,0,1,1.27783-3.209,4.17684,4.17684,0,0,1,3.07471-1.248,4.30359,4.30359,0,0,1,3.10449,1.39649,1.84638,1.84638,0,0,1,.65381,1.05468.70919.70919,0,0,1-.38623.58008l-1.21826.81641a.86466.86466,0,0,1-.44531.17871.712.712,0,0,1-.53516-.29785,1.40143,1.40143,0,0,0-1.084-.47461,1.19444,1.19444,0,0,0-.90625.35644,1.08256,1.08256,0,0,0-.3418.81641,1.64028,1.64028,0,0,0,.86182,1.24805q.34131.25341,1.47021.9209,3.06006,1.81347,3.06006,4.69433a4.28991,4.28991,0,0,1-4.397,4.39649,4.59113,4.59113,0,0,1-3.41651-1.47071q-.68334-.71191-.6831-1.09863A.71567.71567,0,0,1,254.92964,148.23543Z"/></g></g></svg>