<svg xmlns="http://www.w3.org/2000/svg" width="423.42568" height="214.08697" viewBox="0 0 423.42568 214.08697"><defs><style>.cls-1{fill:#a170b0;}.cls-2{fill:#fff;}</style></defs><g id="Camada_2" data-name="Camada 2"><g id="Layer_1" data-name="Layer 1"><path class="cls-1" d="M421.04385,98.80738,361.1861,3.97066A8.51674,8.51674,0,0,0,353.9843,0H2.32846A2.3247,2.3247,0,0,0,.36262,3.56556L60.47583,98.80738a15.43056,15.43056,0,0,1,0,16.47213L.36262,210.52134A2.32474,2.32474,0,0,0,2.32846,214.087H353.9843a8.51667,8.51667,0,0,0,7.2018-3.97073l59.85775-94.83673A15.43056,15.43056,0,0,0,421.04385,98.80738Z"/><path class="cls-2" d="M190.23769,92.89164l6.375-18.88086a.93068.93068,0,0,1,.97656-.71387H200.392q.6797,0,.67969.52246a1.141,1.141,0,0,1-.07031.34864l-8.96875,25.18554a.93845.93845,0,0,1-.99219.69629h-1.62109a.93845.93845,0,0,1-.99219-.69629L179.5619,74.168a1.141,1.141,0,0,1-.07031-.34864q0-.52295.67969-.52246h2.76953a.91409.91409,0,0,1,.97461.71387Z"/><path class="cls-2" d="M215.39,83.78226V83.085a.75207.75207,0,0,1,.87109-.87012h1.96875a.75074.75074,0,0,1,.86914.87012V99.17875a.75105.75105,0,0,1-.86914.87109h-1.96875a.75238.75238,0,0,1-.87109-.87109v-.66211a9.24225,9.24225,0,0,1-5.46875,1.81152,9.19629,9.19629,0,0,1-.01758-18.39257A9.31227,9.31227,0,0,1,215.39,83.78226ZM209.851,85.85453a5.0324,5.0324,0,0,0-3.69141,1.5332,5.33763,5.33763,0,1,0,3.69141-1.5332Zm-3.11719-9.12695,5.39844-2.26367a1.05342,1.05342,0,0,1,.38476-.1045c.23047,0,.418.15625.55664.46973l.66211,1.48047a.99991.99991,0,0,1,.10352.40137q0,.331-.48633.53906l-5.19141,2.14258a1.17824,1.17824,0,0,1-.40039.10449c-.209,0-.39453-.14453-.55664-.43555l-.80273-1.41015a.98115.98115,0,0,1-.13867-.418C206.26308,77.02445,206.41933,76.85551,206.73378,76.72758Z"/><path class="cls-2" d="M226.3705,83.24223a7.0293,7.0293,0,0,1,4.38867-1.30664h.90625q.8877-.03516.87109.87109v2.24707a.75206.75206,0,0,1-.87109.87012h-.76758q-4.30078.05273-4.38867,3.67578v9.5791a.75168.75168,0,0,1-.87109.87109h-2.17579a.75168.75168,0,0,1-.87109-.87109V83.085a.75137.75137,0,0,1,.87109-.87012h2.03711q.87012-.03516.8711.81836Z"/><path class="cls-2" d="M234.76894,99.17875V83.085a.75206.75206,0,0,1,.87109-.87012h2.21289a.75206.75206,0,0,1,.87109.87012V99.17875a.75238.75238,0,0,1-.87109.87109H235.64A.75238.75238,0,0,1,234.76894,99.17875Zm1.98632-22.834a1.99181,1.99181,0,0,1,1.95118,1.95118,1.95447,1.95447,0,0,1-.57422,1.41015,1.97087,1.97087,0,0,1-2.80469-2.76953A1.94668,1.94668,0,0,1,236.75526,76.34476Z"/><path class="cls-2" d="M250.86854,81.93559a9.15775,9.15775,0,0,1,9.0918,9.1621,9.20069,9.20069,0,0,1-15.71094,6.53125,9.20792,9.20792,0,0,1-.0332-12.99316A9.00225,9.00225,0,0,1,250.86854,81.93559Zm-.12109,3.9541a5.203,5.203,0,0,0-5.209,5.208,5.08542,5.08542,0,0,0,1.55078,3.76172,5.25922,5.25922,0,0,0,7.4375-7.4375A5.10122,5.10122,0,0,0,250.74745,85.88969Z"/><path class="cls-2" d="M262.54042,96.6182l1.51367-.97461a1.00372,1.00372,0,0,1,.52344-.19238,1.08386,1.08386,0,0,1,.71484.43555,1.87159,1.87159,0,0,0,1.41016.627,1.57636,1.57636,0,0,0,1.13281-.45215,1.47729,1.47729,0,0,0,.45117-1.08008,2.676,2.676,0,0,0-1.28711-1.98535,21.46394,21.46394,0,0,0-2.09179-1.28906,5.05073,5.05073,0,0,1-2.94336-4.5459,5.10585,5.10585,0,0,1,1.498-3.76269,4.90506,4.90506,0,0,1,3.60547-1.46289,5.04493,5.04493,0,0,1,3.64063,1.63769,2.15446,2.15446,0,0,1,.76562,1.23633.829.829,0,0,1-.45117.67969l-1.42969.958a1.02089,1.02089,0,0,1-.52148.209.83311.83311,0,0,1-.62695-.34863,1.64484,1.64484,0,0,0-1.27149-.55762,1.40248,1.40248,0,0,0-1.0625.418,1.27007,1.27007,0,0,0-.40039.958,1.92094,1.92094,0,0,0,1.00977,1.4629q.40137.29736,1.72461,1.08007,3.58593,2.1255,3.58789,5.50391a5.03009,5.03009,0,0,1-5.15625,5.15527,5.383,5.383,0,0,1-4.00586-1.72363q-.79981-.83643-.80078-1.28906A.83644.83644,0,0,1,262.54042,96.6182Z"/><path class="cls-2" d="M146.97206,130.18656l6.74023-19.29883a.92635.92635,0,0,1,.99415-.69726h4.127a.75307.75307,0,0,1,.87109.87109v24.97656a.75238.75238,0,0,1-.87109.8711H156.431a.75168.75168,0,0,1-.87109-.8711V117.15824l-6.72461,19.05469a.94871.94871,0,0,1-1.00976.69629H146.1537a.92124.92124,0,0,1-.99219-.69629l-6.63672-19.03809v18.86328a.75168.75168,0,0,1-.87109.8711H135.181a.75238.75238,0,0,1-.87109-.8711V111.06156a.75308.75308,0,0,1,.87109-.87109h4.0586a.94019.94019,0,0,1,.99219.69726Z"/><path class="cls-2" d="M179.19667,129.42H167.28456c-.04687,0-.07031.01758-.07031.05176a3.49615,3.49615,0,0,0,.957,2.03808,5.26675,5.26675,0,0,0,4.35547,1.9336,9.37192,9.37192,0,0,0,4.02344-.90625,2.64841,2.64841,0,0,1,.80078-.27832.799.799,0,0,1,.67968.50488l.78321,1.46289a1.13336,1.13336,0,0,1,.17383.48828q0,.3999-.55665.76563a11.356,11.356,0,0,1-6.07812,1.707,9.10164,9.10164,0,0,1-6.68945-2.64746,9.46942,9.46942,0,0,1,0-13.13282,8.50432,8.50432,0,0,1,6.30468-2.57714,7.691,7.691,0,0,1,5.67969,2.21191,8.7251,8.7251,0,0,1,2.45508,6.47949q0,.53907-.01758.97559l-.01758.13867Q180.06776,129.47221,179.19667,129.42Zm-11.89648-3.06543h8.64062c.04492,0,.06836-.081.06836-.24414a3.29166,3.29166,0,0,0-.83594-2.08984,4.08192,4.08192,0,0,0-3.34375-1.55079,4.68649,4.68649,0,0,0-3.918,2.02051,2.92943,2.92943,0,0,0-.69726,1.72461C167.21425,126.30766,167.24354,126.35453,167.30019,126.35453Z"/><path class="cls-2" d="M186.13612,119.21293v-4.44141a.75176.75176,0,0,1,.86914-.87109h2.21289a.75309.75309,0,0,1,.8711.87109v4.44141h3.74414a.75308.75308,0,0,1,.87109.87109v1.8291a.75206.75206,0,0,1-.87109.87012h-3.74414v13.25488a.75239.75239,0,0,1-.8711.8711h-2.21289a.75106.75106,0,0,1-.86914-.8711V122.78324h-3.79687a.75138.75138,0,0,1-.8711-.87012V120.084a.75239.75239,0,0,1,.8711-.87109Z"/><path class="cls-2" d="M210.517,120.64164v-.69727a.75207.75207,0,0,1,.8711-.87011h1.96875a.75074.75074,0,0,1,.86914.87011v16.09375a.75106.75106,0,0,1-.86914.8711h-1.96875a.75239.75239,0,0,1-.8711-.8711V135.376a9.24226,9.24226,0,0,1-5.46875,1.81153,9.1963,9.1963,0,0,1-.01758-18.39258A9.31221,9.31221,0,0,1,210.517,120.64164Zm-5.53906,2.07227a5.03239,5.03239,0,0,0-3.69141,1.5332,5.33763,5.33763,0,1,0,3.69141-1.5332Z"/><path class="cls-2" d="M221.53261,135.44633v.59179a.75239.75239,0,0,1-.8711.8711h-2.07226a.75169.75169,0,0,1-.8711-.8711V112.76859a.75239.75239,0,0,1,.8711-.87109h2.21094a.75308.75308,0,0,1,.87109.87109v7.76856a9.16211,9.16211,0,1,1,5.27734,16.65039A9.41426,9.41426,0,0,1,221.53261,135.44633Zm5.36328-12.73242a5.29609,5.29609,0,0,0-3.69141,9.02246,5.29542,5.29542,0,1,0,3.69141-9.02246Z"/><path class="cls-2" d="M247.66347,118.795a9.15777,9.15777,0,0,1,9.09179,9.16211,9.20068,9.20068,0,0,1-15.71093,6.53125,9.2079,9.2079,0,0,1-.03321-12.99316A9.00222,9.00222,0,0,1,247.66347,118.795Zm-.1211,3.9541a5.203,5.203,0,0,0-5.209,5.208,5.08548,5.08548,0,0,0,1.55078,3.76172,5.25922,5.25922,0,0,0,7.4375-7.4375A5.10118,5.10118,0,0,0,247.54237,122.74906Z"/><path class="cls-2" d="M259.59706,136.03812V112.83793a.75137.75137,0,0,1,.87109-.87012h2.21094a.75207.75207,0,0,1,.8711.87012v23.20019a.75239.75239,0,0,1-.8711.8711h-2.21094A.75168.75168,0,0,1,259.59706,136.03812Z"/><path class="cls-2" d="M267.07558,136.03812V119.94437a.75206.75206,0,0,1,.87109-.87011h2.21094a.75136.75136,0,0,1,.87109.87011v16.09375a.75168.75168,0,0,1-.87109.8711h-2.21094A.75238.75238,0,0,1,267.07558,136.03812Zm1.98632-22.834a1.99189,1.99189,0,0,1,1.94922,1.95117,1.95445,1.95445,0,0,1-.57422,1.41016,1.97573,1.97573,0,0,1-2.78711,0,1.91811,1.91811,0,0,1-.57421-1.41016,1.89059,1.89059,0,0,1,.55664-1.35937A1.9479,1.9479,0,0,1,269.0619,113.20414Z"/><path class="cls-2" d="M277.80214,119.21293v-4.44141a.75175.75175,0,0,1,.86914-.87109h2.21289a.75308.75308,0,0,1,.87109.87109v4.44141h3.74414a.75309.75309,0,0,1,.8711.87109v1.8291a.75207.75207,0,0,1-.8711.87012h-3.74414v13.25488a.75238.75238,0,0,1-.87109.8711h-2.21289a.75106.75106,0,0,1-.86914-.8711V122.78324h-3.79688a.75137.75137,0,0,1-.87109-.87012V120.084a.75238.75238,0,0,1,.87109-.87109Z"/><path class="cls-2" d="M296.9037,118.795a9.15777,9.15777,0,0,1,9.0918,9.16211,9.20069,9.20069,0,0,1-15.71094,6.53125,9.20789,9.20789,0,0,1-.0332-12.99316A9.00222,9.00222,0,0,1,296.9037,118.795Zm-.12109,3.9541a5.203,5.203,0,0,0-5.209,5.208,5.08548,5.08548,0,0,0,1.55078,3.76172,5.25922,5.25922,0,0,0,7.4375-7.4375A5.10116,5.10116,0,0,0,296.78261,122.74906Z"/><path class="cls-2" d="M308.57558,133.47758l1.51562-.97461a.9981.9981,0,0,1,.52149-.19238,1.08384,1.08384,0,0,1,.71484.43554,1.87461,1.87461,0,0,0,1.41016.627,1.5732,1.5732,0,0,0,1.13281-.45215,1.47162,1.47162,0,0,0,.45312-1.08008,2.67366,2.67366,0,0,0-1.28906-1.98535,21.10917,21.10917,0,0,0-2.08984-1.28907,5.04733,5.04733,0,0,1-2.94336-4.54589,5.09824,5.09824,0,0,1,1.498-3.7627,4.89884,4.89884,0,0,1,3.60547-1.46289,5.0482,5.0482,0,0,1,3.64063,1.6377,2.16562,2.16562,0,0,1,.76562,1.23632.8273.8273,0,0,1-.45312.67969l-1.42774.958a1.02,1.02,0,0,1-.52343.209.83312.83312,0,0,1-.627-.34863,1.6391,1.6391,0,0,0-1.27148-.55762,1.40542,1.40542,0,0,0-1.0625.418,1.27009,1.27009,0,0,0-.40039.958,1.92093,1.92093,0,0,0,1.00976,1.46289q.40137.29736,1.72461,1.08008,3.58887,2.12548,3.58789,5.5039a5.03,5.03,0,0,1-5.15429,5.15528,5.38,5.38,0,0,1-4.00586-1.72363q-.80274-.83643-.80274-1.28907A.8405.8405,0,0,1,308.57558,133.47758Z"/></g></g></svg>