<svg xmlns="http://www.w3.org/2000/svg" width="404.23031" height="219.10322" viewBox="0 0 404.23031 219.10322"><defs><style>.cls-1{fill:#824195;}.cls-2{fill:#fff;}</style></defs><g id="Camada_2" data-name="Camada 2"><g id="Layer_1" data-name="Layer 1"><path class="cls-1" d="M401.79267,101.12253,340.5324,4.06369A8.71543,8.71543,0,0,0,333.16215,0H0V219.10322H333.16215a8.71532,8.71532,0,0,0,7.37025-4.06377l61.26027-97.05883A15.79212,15.79212,0,0,0,401.79267,101.12253Z"/><path class="cls-2" d="M80.3426,95.02743v20.92675a.205.205,0,0,0,.23193.23243H88.471a.879.879,0,0,1,1.03393,1.0332v3.15527a.87964.87964,0,0,1-1.03393,1.03418H76.15364a.87941.87941,0,0,1-1.0337-1.03418V95.02743a.87941.87941,0,0,1,1.0337-1.03418h3.15527A.87957.87957,0,0,1,80.3426,95.02743Z"/><path class="cls-2" d="M92.544,120.37508v-16.2207q-.0359-1.06933,1.05175-1.03418h2.8877q1.05176-.03516,1.03394,1.03418v16.2207q.01757,1.06933-1.03394,1.03418h-2.8877Q92.50813,121.44442,92.544,120.37508ZM95.07527,96.6495a2.50452,2.50452,0,1,1-1.8003,4.27832,2.42366,2.42366,0,0,1-.73095-1.78223,2.38276,2.38276,0,0,1,.73095-1.74707A2.41747,2.41747,0,0,1,95.07527,96.6495Z"/><path class="cls-2" d="M106.2635,120.53622v7.32617q.01758,1.06933-1.03394,1.0332h-2.88769q-1.08765.03661-1.05176-1.0332V104.18954q-.03589-1.06935,1.05176-1.03321h2.62036q1.01587-.05419,1.05176.89063v.08984a10.02037,10.02037,0,0,1,4.75927-1.26562,9.41167,9.41167,0,0,1,0,18.82324A9.5398,9.5398,0,0,1,106.2635,120.53622Zm4.49194-12.78125a4.29632,4.29632,0,0,0-3.155,1.30078,4.65084,4.65084,0,0,0,0,6.45312,4.3356,4.3356,0,0,0,3.19068,1.30176,4.27846,4.27846,0,0,0,3.17309-1.30176,4.52746,4.52746,0,0,0-3.20874-7.7539Z"/><path class="cls-2" d="M132.0821,102.87118a9.37281,9.37281,0,0,1,9.30493,9.376,9.41579,9.41579,0,0,1-16.07861,6.68457,9.42482,9.42482,0,0,1-.03564-13.29785A9.21547,9.21547,0,0,1,132.0821,102.87118Zm-.12475,4.95507a4.43854,4.43854,0,1,0,3.155,7.59375,4.43853,4.43853,0,0,0-3.155-7.59375Z"/><path class="cls-2" d="M145.81819,103.15633v-1.74707a5.565,5.565,0,0,1,1.51513-4.11816,5.62632,5.62632,0,0,1,4.1355-1.51465h2.21045q1.08691-.01758,1.05176,1.0332v2.22852q.03552,1.06934-1.05176,1.05176h-.89136a1.81258,1.81258,0,0,0-2.01416,2.08593v.98047H155.034q1.06934-.01758,1.03393,1.03321v2.38867q.03552,1.05176-1.03393,1.03418h-4.26026v12.76269a.87972.87972,0,0,1-1.03393,1.03418h-2.8877a.87956.87956,0,0,1-1.03393-1.03418V107.61239h-1.925a.87957.87957,0,0,1-1.03394-1.03418v-2.38867a.8786.8786,0,0,1,1.03394-1.03321Z"/><path class="cls-2" d="M157.39826,95.97274l5.15162-2.19336a1.27877,1.27877,0,0,1,.46337-.10645q.44568,0,.69532.57032l1.03393,2.24609a1.3644,1.3644,0,0,1,.12476.48145q0,.44531-.58838.67675l-4.72363,1.92578a1.348,1.348,0,0,1-.46338.124.877.877,0,0,1-.69531-.499l-1.33692-2.10351a.98492.98492,0,0,1-.196-.46289Q156.8636,96.20418,157.39826,95.97274Zm1.21216,24.40234V104.18954a.8786.8786,0,0,1,1.03394-1.03321h2.353a.8786.8786,0,0,1,1.03369,1.03321v16.18554a.87957.87957,0,0,1-1.03369,1.03418h-2.353A.87957.87957,0,0,1,158.61042,120.37508Z"/><path class="cls-2" d="M166.83308,120.37508V96.88094q-.0359-1.06934,1.05176-1.0332h2.88769q1.05176-.03516,1.03394,1.0332v23.49414q.01758,1.06933-1.03394,1.03418h-2.88769Q166.79719,121.44442,166.83308,120.37508Z"/><path class="cls-2" d="M175.57551,120.37508v-16.2207q-.0359-1.06933,1.05176-1.03418H179.515q1.05177-.03516,1.03394,1.03418v16.2207q.01758,1.06933-1.03394,1.03418h-2.88769Q175.53962,121.44442,175.57551,120.37508Zm2.53125-23.72558a2.50452,2.50452,0,1,1-1.80029,4.27832,2.42367,2.42367,0,0,1-.731-1.78223,2.38277,2.38277,0,0,1,.731-1.74707A2.41745,2.41745,0,0,1,178.10676,96.6495Z"/><path class="cls-2" d="M199.88435,107.61239l-2.10327,1.56836a1.30275,1.30275,0,0,1-.69532.28515,1.21261,1.21261,0,0,1-.7666-.3916,4.72421,4.72421,0,0,0-3.22632-1.248,4.35969,4.35969,0,0,0-3.20849,1.30079,4.24959,4.24959,0,0,0-1.28345,3.12011,4.44221,4.44221,0,0,0,4.47412,4.45606,4.13084,4.13084,0,0,0,3.13721-1.42578q.67749-.71339,1.06958-.71289a1.39389,1.39389,0,0,1,.55273.19628l2.54883,1.28321a.908.908,0,0,1,.6062.80176,3.41236,3.41236,0,0,1-1.01611,1.6582,9.41247,9.41247,0,1,1-7.05884-15.63281,9.1874,9.1874,0,0,1,6.77368,2.86914q.67713.66065.67725,1.07031A1.00363,1.00363,0,0,1,199.88435,107.61239Z"/><path class="cls-2" d="M217.04426,104.24325v-.16016q0-.9624,1.03394-.92676h2.46a.87876.87876,0,0,1,1.03393,1.03321v16.18554a.87972.87972,0,0,1-1.03393,1.03418h-2.46q-1.03382.03516-1.03394-.92676v-.125a9.43618,9.43618,0,0,1-4.884,1.33692,9.41164,9.41164,0,0,1-.03565-18.82324A9.68877,9.68877,0,0,1,217.04426,104.24325Zm-4.97314,3.51172a4.27661,4.27661,0,0,0-3.13746,1.30078,4.65086,4.65086,0,0,0,0,6.45312,4.53959,4.53959,0,0,0,6.36377,0,4.52762,4.52762,0,0,0-3.22631-7.7539Z"/></g></g></svg>