<svg xmlns="http://www.w3.org/2000/svg" width="433.34693" height="219.10322" viewBox="0 0 433.34693 219.10322"><defs><style>.cls-1{fill:#a170b0;}.cls-2{fill:#fff;}</style></defs><g id="Camada_2" data-name="Camada 2"><g id="Layer_1" data-name="Layer 1"><path class="cls-1" d="M430.90929,101.12253,369.649,4.06369A8.71633,8.71633,0,0,0,362.27847,0H2.383A2.37916,2.37916,0,0,0,.37112,3.6491l61.52171,97.47343a15.79212,15.79212,0,0,1,0,16.85809L.37112,215.45405a2.3792,2.3792,0,0,0,2.0119,3.64917H362.27847a8.71622,8.71622,0,0,0,7.37055-4.06377l61.26027-97.05883A15.79212,15.79212,0,0,0,430.90929,101.12253Z"/><path class="cls-2" d="M94.06682,85.7159V64.38485a.64118.64118,0,0,1,.74267-.74219h5.31787a6.34074,6.34074,0,0,1,4.69409,1.88672,6.779,6.779,0,0,1,1.93116,4.96094,6.931,6.931,0,0,1-2.06494,5.15429,6.22422,6.22422,0,0,1-4.56031,1.84278H97.88444a.22292.22292,0,0,0-.25268.25195V85.7159a.64159.64159,0,0,1-.74268.74317H94.80949A.6415.6415,0,0,1,94.06682,85.7159Zm5.65942-18.53808h-1.8418a.22322.22322,0,0,0-.25268.25293V73.6993a.22292.22292,0,0,0,.25268.252h1.8418a3.14345,3.14345,0,0,0,2.971-1.52929,3.78763,3.78763,0,0,0,.49023-1.93164,3.22949,3.22949,0,0,0-1.01-2.51075A3.534,3.534,0,0,0,99.72624,67.17782Z"/><path class="cls-2" d="M121.62468,80.07137H111.464c-.03955,0-.05932.01465-.05932.04492a2.98651,2.98651,0,0,0,.81689,1.73828,4.49143,4.49143,0,0,0,3.71387,1.64844,8.00348,8.00348,0,0,0,3.4314-.77246,2.25381,2.25381,0,0,1,.6831-.2373.68225.68225,0,0,1,.57935.43066l.66845,1.24707a.96308.96308,0,0,1,.14868.416q0,.34277-.47534.65429a9.68955,9.68955,0,0,1-5.18432,1.45508,7.76045,7.76045,0,0,1-5.7041-2.25781,8.07387,8.07387,0,0,1,0-11.2002,7.25052,7.25052,0,0,1,5.37744-2.19824,6.556,6.556,0,0,1,4.84253,1.88672,7.44025,7.44025,0,0,1,2.09448,5.52539q0,.46143-.01489.832l-.0149.11914C122.36735,79.878,122.11979,80.10164,121.62468,80.07137Zm-10.14575-2.61426h7.36792q.05932,0,.05932-.208a2.81208,2.81208,0,0,0-.71289-1.78223,3.48148,3.48148,0,0,0-2.85205-1.32227,3.99749,3.99749,0,0,0-3.34228,1.72266,2.49927,2.49927,0,0,0-.59424,1.4707C111.40471,77.418,111.42937,77.45711,111.47893,77.45711Z"/><path class="cls-2" d="M128.017,72.06454a6.19622,6.19622,0,0,1,3.55-1.05469,6.667,6.667,0,0,1,4.9021,1.88672,6.21715,6.21715,0,0,1,1.79736,4.59082V85.7159a.64159.64159,0,0,1-.74267.74317h-1.88648a.6415.6415,0,0,1-.74267-.74317V77.69442a3.2039,3.2039,0,0,0-1.01026-2.36133,3.30467,3.30467,0,0,0-2.40649-.98047,3.24184,3.24184,0,0,0-2.48071.98047,3.11928,3.11928,0,0,0-.802,2.21289V85.7159a.64167.64167,0,0,1-.74267.74317h-1.85694a.6415.6415,0,0,1-.74267-.74317V71.99032a.64118.64118,0,0,1,.74267-.74219h1.67847q.74268-.0293.74292.68359Z"/><path class="cls-2" d="M154.3759,80.07137H144.21525c-.03955,0-.05932.01465-.05932.04492a2.98651,2.98651,0,0,0,.81689,1.73828,4.49143,4.49143,0,0,0,3.71387,1.64844,8.00348,8.00348,0,0,0,3.4314-.77246,2.25381,2.25381,0,0,1,.6831-.2373.68225.68225,0,0,1,.57935.43066L154.049,84.171a.96313.96313,0,0,1,.14869.416q0,.34277-.47535.65429a9.68953,9.68953,0,0,1-5.18432,1.45508,7.76045,7.76045,0,0,1-5.7041-2.25781,8.07387,8.07387,0,0,1,0-11.2002,7.25052,7.25052,0,0,1,5.37744-2.19824,6.556,6.556,0,0,1,4.84253,1.88672,7.44025,7.44025,0,0,1,2.09448,5.52539q0,.46143-.01489.832l-.0149.11914C155.11857,79.878,154.871,80.10164,154.3759,80.07137Zm-10.14575-2.61426h7.36792q.05933,0,.05932-.208a2.81208,2.81208,0,0,0-.71289-1.78223,3.48148,3.48148,0,0,0-2.852-1.32227,3.99749,3.99749,0,0,0-3.34228,1.72266,2.49933,2.49933,0,0,0-.59424,1.4707C144.15593,77.418,144.18059,77.45711,144.23015,77.45711Z"/><path class="cls-2" d="M160.34221,71.36727V67.57918a.64184.64184,0,0,1,.74267-.74316h1.88648a.64193.64193,0,0,1,.74267.74316v3.78809h3.19385a.64136.64136,0,0,1,.74268.74219V73.669a.642.642,0,0,1-.74268.74316H163.714V85.7159a.64159.64159,0,0,1-.74267.74317h-1.88648a.6415.6415,0,0,1-.74267-.74317V74.41219h-3.23828a.642.642,0,0,1-.74292-.74316V72.10946a.64134.64134,0,0,1,.74292-.74219Z"/><path class="cls-2" d="M172.72893,72.12411a5.99867,5.99867,0,0,1,3.7434-1.11426h.77246q.75734-.0293.74268.74316v1.916a.642.642,0,0,1-.74268.74316h-.65356q-3.66944.044-3.74341,3.13379V85.7159a.64167.64167,0,0,1-.74267.74317h-1.85694a.6415.6415,0,0,1-.74267-.74317V71.99032a.64118.64118,0,0,1,.74267-.74219h1.738q.74268-.0293.74268.69824Z"/><path class="cls-2" d="M191.63493,72.585v-.59472a.64143.64143,0,0,1,.74292-.74219h1.67847a.64126.64126,0,0,1,.74267.74219V85.7159a.64158.64158,0,0,1-.74267.74317h-1.67847a.64176.64176,0,0,1-.74292-.74317v-.56445a7.88334,7.88334,0,0,1-4.66431,1.54492,7.84326,7.84326,0,0,1-.01489-15.68652A7.94012,7.94012,0,0,1,191.63493,72.585Zm-4.72363,1.76758a4.2902,4.2902,0,0,0-3.14917,1.30762,4.55344,4.55344,0,1,0,3.14917-1.30762Z"/><path class="cls-2" d="M209.238,72.06454a6.1962,6.1962,0,0,1,3.55005-1.05469,6.667,6.667,0,0,1,4.9021,1.88672,6.21715,6.21715,0,0,1,1.79736,4.59082V85.7159a.64159.64159,0,0,1-.74268.74317h-1.88647a.6415.6415,0,0,1-.74268-.74317V77.69442a3.20389,3.20389,0,0,0-1.01025-2.36133,3.30469,3.30469,0,0,0-2.40649-.98047,3.24188,3.24188,0,0,0-2.48072.98047,3.11932,3.11932,0,0,0-.802,2.21289V85.7159a.64167.64167,0,0,1-.74267.74317h-1.85694a.6415.6415,0,0,1-.74267-.74317V71.99032a.64118.64118,0,0,1,.74267-.74219H208.495q.74268-.0293.74292.68359Z"/><path class="cls-2" d="M229.78435,71.00985a7.81153,7.81153,0,0,1,7.75415,7.81347,7.8469,7.8469,0,0,1-13.39893,5.57129,7.85432,7.85432,0,0,1-.02954-11.082A7.67868,7.67868,0,0,1,229.78435,71.00985Zm-.104,3.37207a4.43979,4.43979,0,1,0,3.22339,1.30762A4.35042,4.35042,0,0,0,229.68034,74.38192Z"/><path class="cls-2" d="M239.78386,83.53231l1.29223-.83106a.85.85,0,0,1,.44556-.16406.92121.92121,0,0,1,.60913.37207,1.59829,1.59829,0,0,0,1.20313.53418,1.344,1.344,0,0,0,.96557-.38574,1.25744,1.25744,0,0,0,.38623-.9209,2.28213,2.28213,0,0,0-1.09912-1.69336,18.03992,18.03992,0,0,0-1.78271-1.09961,4.30522,4.30522,0,0,1-2.51026-3.87695,4.35189,4.35189,0,0,1,1.27735-3.209,4.17852,4.17852,0,0,1,3.075-1.248,4.305,4.305,0,0,1,3.10473,1.39648,1.84839,1.84839,0,0,1,.65357,1.05469.70924.70924,0,0,1-.38623.58008l-1.218.8164a.866.866,0,0,1-.4458.17872.71109.71109,0,0,1-.53467-.29786,1.40247,1.40247,0,0,0-1.08447-.47461,1.1939,1.1939,0,0,0-.906.35645,1.08255,1.08255,0,0,0-.34179.81641,1.64052,1.64052,0,0,0,.86157,1.248q.34167.25342,1.4707.9209,3.06006,1.81349,3.06006,4.69434a4.29027,4.29027,0,0,1-4.397,4.39648,4.59112,4.59112,0,0,1-3.41651-1.4707q-.68371-.71191-.68335-1.09863A.715.715,0,0,1,239.78386,83.53231Z"/><path class="cls-2" d="M262.5114,71.36727V67.57918a.64184.64184,0,0,1,.74267-.74316h1.88648a.64193.64193,0,0,1,.74267.74316v3.78809h3.19385a.64136.64136,0,0,1,.74268.74219V73.669a.642.642,0,0,1-.74268.74316h-3.19385V85.7159a.64159.64159,0,0,1-.74267.74317h-1.88648a.6415.6415,0,0,1-.74267-.74317V74.41219h-3.23828a.642.642,0,0,1-.74292-.74316V72.10946a.64134.64134,0,0,1,.74292-.74219Z"/><path class="cls-2" d="M284.6801,80.07137H274.51945c-.03955,0-.05932.01465-.05932.04492a2.98651,2.98651,0,0,0,.81689,1.73828,4.49143,4.49143,0,0,0,3.71387,1.64844,8.00348,8.00348,0,0,0,3.4314-.77246,2.25381,2.25381,0,0,1,.6831-.2373.68225.68225,0,0,1,.57935.43066l.66845,1.24707a.96308.96308,0,0,1,.14868.416q0,.34277-.47534.65429a9.68955,9.68955,0,0,1-5.18432,1.45508,7.76045,7.76045,0,0,1-5.7041-2.25781,8.07387,8.07387,0,0,1,0-11.2002,7.25052,7.25052,0,0,1,5.37744-2.19824,6.556,6.556,0,0,1,4.84253,1.88672,7.44025,7.44025,0,0,1,2.09448,5.52539q0,.46143-.01489.832l-.0149.11914C285.42277,79.878,285.17521,80.10164,284.6801,80.07137Zm-10.14575-2.61426h7.36792q.05933,0,.05932-.208a2.81208,2.81208,0,0,0-.71289-1.78223,3.48148,3.48148,0,0,0-2.852-1.32227,3.99749,3.99749,0,0,0-3.34228,1.72266,2.49927,2.49927,0,0,0-.59424,1.4707C274.46013,77.418,274.48479,77.45711,274.53435,77.45711Z"/><path class="cls-2" d="M299.69694,81.31942l1.72315.75781c.30688.12891.46045.31152.46045.54981q0,.63867-1.29224,1.90136a7.48512,7.48512,0,0,1-5.42187,2.168,7.8434,7.8434,0,1,1-.04468-15.68652,7.78194,7.78194,0,0,1,5.49634,2.27344q.66833.624.66845.93554a.73671.73671,0,0,1-.34179.56446l-1.38135,1.02539a.87741.87741,0,0,1-.49024.208,1.251,1.251,0,0,1-.68335-.416,4.52582,4.52582,0,0,0-3.17895-1.21875,4.36366,4.36366,0,0,0-3.2085,1.30762A4.47826,4.47826,0,0,0,295.196,83.3243a4.067,4.067,0,0,0,3.56518-1.78223.65547.65547,0,0,1,.52-.34179A1.03757,1.03757,0,0,1,299.69694,81.31942Z"/><path class="cls-2" d="M304.1486,85.7159V71.99032a.64169.64169,0,0,1,.74317-.74219h1.88672a.641.641,0,0,1,.74218.74219V85.7159a.64134.64134,0,0,1-.74218.74317h-1.88672A.642.642,0,0,1,304.1486,85.7159ZM305.842,66.24227a1.7,1.7,0,0,1,1.66407,1.66309,1.66443,1.66443,0,0,1-.49024,1.20312,1.68571,1.68571,0,0,1-2.37695,0,1.63672,1.63672,0,0,1-.49024-1.20312,1.60721,1.60721,0,0,1,.47559-1.15821A1.65987,1.65987,0,0,1,305.842,66.24227Z"/><path class="cls-2" d="M322.37175,72.49618V65.90047a.64166.64166,0,0,1,.74267-.74316h1.85694a.642.642,0,0,1,.74267.74316V85.7159a.64167.64167,0,0,1-.74267.74317h-1.76807a.64167.64167,0,0,1-.74267-.74317v-.56445a7.82447,7.82447,0,1,1-4.605-14.1416A7.747,7.747,0,0,1,322.37175,72.49618Zm-4.56055,1.85644a4.51641,4.51641,0,0,0-3.14892,7.69434,4.51136,4.51136,0,1,0,3.14892-7.69434Z"/><path class="cls-2" d="M336.028,71.00985a7.81152,7.81152,0,0,1,7.7539,7.81347A7.84689,7.84689,0,0,1,330.383,84.39461a7.85521,7.85521,0,0,1-.02979-11.082A7.679,7.679,0,0,1,336.028,71.00985Zm-.104,3.37207a4.43978,4.43978,0,1,0,3.22315,1.30762A4.34989,4.34989,0,0,0,335.924,74.38192Z"/><path class="cls-2" d="M346.027,83.53231l1.29248-.83106a.85068.85068,0,0,1,.4458-.16406.92132.92132,0,0,1,.60889.37207,1.59829,1.59829,0,0,0,1.20312.53418,1.34492,1.34492,0,0,0,.96582-.38574,1.25838,1.25838,0,0,0,.38624-.9209,2.28226,2.28226,0,0,0-1.09961-1.69336,18.01417,18.01417,0,0,0-1.78223-1.09961,4.3053,4.3053,0,0,1-2.51074-3.87695,4.35134,4.35134,0,0,1,1.27783-3.209,4.1768,4.1768,0,0,1,3.07471-1.248,4.30364,4.30364,0,0,1,3.10449,1.39648,1.84642,1.84642,0,0,1,.65381,1.05469.70924.70924,0,0,1-.38623.58008l-1.21827.8164a.86469.86469,0,0,1-.44531.17872.71193.71193,0,0,1-.53515-.29786,1.40147,1.40147,0,0,0-1.084-.47461,1.19446,1.19446,0,0,0-.90625.35645,1.08253,1.08253,0,0,0-.3418.81641,1.64028,1.64028,0,0,0,.86182,1.248q.34131.25342,1.47022.9209,3.06,1.81349,3.06,4.69434a4.28988,4.28988,0,0,1-4.397,4.39648,4.59108,4.59108,0,0,1-3.4165-1.4707q-.68336-.71191-.68311-1.09863A.71566.71566,0,0,1,346.027,83.53231Z"/><path class="cls-2" d="M107.30217,112.92782H97.14152c-.03955,0-.05932.01465-.05932.04492a2.98653,2.98653,0,0,0,.81689,1.73828,4.49146,4.49146,0,0,0,3.71387,1.64844,8.00363,8.00363,0,0,0,3.4314-.77246,2.25365,2.25365,0,0,1,.6831-.23731.68226.68226,0,0,1,.57935.43067l.66845,1.24707a.96314.96314,0,0,1,.14869.416q0,.34278-.47535.6543a9.68964,9.68964,0,0,1-5.18432,1.45508,7.76046,7.76046,0,0,1-5.7041-2.25782,8.07386,8.07386,0,0,1,0-11.20019,7.25052,7.25052,0,0,1,5.37744-2.19824,6.55591,6.55591,0,0,1,4.84253,1.88672,7.44022,7.44022,0,0,1,2.09448,5.52539q0,.46142-.01489.832l-.0149.11914C108.04484,112.73446,107.79729,112.95809,107.30217,112.92782Zm-10.14575-2.61426h7.36792q.05933,0,.05932-.208a2.81212,2.81212,0,0,0-.71289-1.78223,3.4815,3.4815,0,0,0-2.852-1.32226,3.99749,3.99749,0,0,0-3.34228,1.72266,2.49933,2.49933,0,0,0-.59424,1.4707C97.0822,110.2745,97.10686,110.31356,97.15642,110.31356Z"/><path class="cls-2" d="M121.99138,104.77254l-4.30762,6.87793a.14221.14221,0,0,0-.02979.07422.13931.13931,0,0,0,.02979.07422l4.3374,6.84863a.61956.61956,0,0,1,.104.28223q0,.38526-.47535.38574h-2.59961a1.06313,1.06313,0,0,1-.98046-.56445l-2.34693-4.04a.11.11,0,0,0-.208,0l-2.332,4.04a1.01135,1.01135,0,0,1-.98047.56445H109.6027q-.47534,0-.47534-.38574a.54766.54766,0,0,1,.104-.28223l4.36718-6.86328a.258.258,0,0,0,.02979-.07422.14431.14431,0,0,0-.02979-.07422l-4.36718-6.86328a.54766.54766,0,0,1-.104-.28222q0-.38526.47534-.38575h2.59961a1.00984,1.00984,0,0,1,.98047.56446l2.34693,4.05469c.01977.0498.04956.07519.08911.07519a.12619.12619,0,0,0,.104-.07519l2.34693-4.05469a1.00983,1.00983,0,0,1,.98046-.56446H121.62q.47534,0,.47534.38575A.54773.54773,0,0,1,121.99138,104.77254Z"/><path class="cls-2" d="M127.67326,104.22372v-3.78809a.64184.64184,0,0,1,.74268-.74316h1.88647a.64193.64193,0,0,1,.74268.74316v3.78809h3.19385a.64135.64135,0,0,1,.74267.74218v1.55957a.642.642,0,0,1-.74267.74317h-3.19385v11.30371a.64158.64158,0,0,1-.74268.74316h-1.88647a.64149.64149,0,0,1-.74268-.74316V107.26864H124.435a.642.642,0,0,1-.74292-.74317V104.9659a.64134.64134,0,0,1,.74292-.74218Z"/><path class="cls-2" d="M140.06,104.98055a5.99876,5.99876,0,0,1,3.74341-1.11426h.77246q.75732-.0293.74268.74317v1.916a.642.642,0,0,1-.74268.74317h-.65356q-3.66943.04393-3.74341,3.13379v8.16992a.64167.64167,0,0,1-.74268.74316h-1.85693a.64149.64149,0,0,1-.74268-.74316V104.84676a.64119.64119,0,0,1,.74268-.74219h1.738q.74268-.02929.74268.69825Z"/><path class="cls-2" d="M158.966,105.44149v-.59473a.64144.64144,0,0,1,.74292-.74219h1.67846a.64128.64128,0,0,1,.74268.74219v13.72559a.64158.64158,0,0,1-.74268.74316h-1.67846a.64174.64174,0,0,1-.74292-.74316v-.56446a7.88328,7.88328,0,0,1-4.66431,1.54493,7.84327,7.84327,0,0,1-.01489-15.68653A7.94008,7.94008,0,0,1,158.966,105.44149Zm-4.72364,1.76758a4.29021,4.29021,0,0,0-3.14917,1.30761,4.55346,4.55346,0,1,0,3.14917-1.30761Z"/><path class="cls-2" d="M165.64519,109.214h8.15527a.642.642,0,0,1,.74267.74316v1.24805a.641.641,0,0,1-.74267.74219h-8.15527a.64084.64084,0,0,1-.74268-.74219v-1.24805A.64184.64184,0,0,1,165.64519,109.214Z"/><path class="cls-2" d="M180.77629,104.77254a6.79179,6.79179,0,0,1,3.35718-.90625,6.64774,6.64774,0,0,1,4.8872,1.88672,6.21713,6.21713,0,0,1,1.79737,4.59082v8.22852a.64158.64158,0,0,1-.74268.74316h-1.88647a.64149.64149,0,0,1-.74268-.74316v-8.02149a3.20387,3.20387,0,0,0-1.01025-2.36132,3.51535,3.51535,0,0,0-4.90186.02929,3.23882,3.23882,0,0,0-.78735,2.27344v8.08008a.64167.64167,0,0,1-.74268.74316h-1.85693a.64149.64149,0,0,1-.74268-.74316V98.75692a.64185.64185,0,0,1,.74268-.74317h1.88647a.64194.64194,0,0,1,.74268.74317Z"/><path class="cls-2" d="M206.94206,112.92782H196.78142c-.03955,0-.05933.01465-.05933.04492a2.9866,2.9866,0,0,0,.81689,1.73828,4.49146,4.49146,0,0,0,3.71387,1.64844,8.00363,8.00363,0,0,0,3.4314-.77246,2.25373,2.25373,0,0,1,.6831-.23731.68225.68225,0,0,1,.57935.43067l.66846,1.24707a.96323.96323,0,0,1,.14868.416q0,.34278-.47534.6543a9.68967,9.68967,0,0,1-5.18433,1.45508,7.76046,7.76046,0,0,1-5.7041-2.25782,8.07389,8.07389,0,0,1,0-11.20019,7.25052,7.25052,0,0,1,5.37744-2.19824,6.5559,6.5559,0,0,1,4.84253,1.88672,7.44022,7.44022,0,0,1,2.09448,5.52539q0,.46142-.01489.832l-.01489.11914C207.68474,112.73446,207.43718,112.95809,206.94206,112.92782Zm-10.14575-2.61426h7.36792q.05932,0,.05932-.208a2.81206,2.81206,0,0,0-.71289-1.78223,3.48149,3.48149,0,0,0-2.852-1.32226,3.99749,3.99749,0,0,0-3.34228,1.72266,2.49933,2.49933,0,0,0-.59424,1.4707C196.72209,110.2745,196.74675,110.31356,196.79631,110.31356Z"/><path class="cls-2" d="M213.54216,118.06747v6.74414a.64193.64193,0,0,1-.74268.74316H210.913a.64184.64184,0,0,1-.74268-.74316V104.84676a.64119.64119,0,0,1,.74268-.74219h1.76758a.64144.64144,0,0,1,.74292.74219v.53516a7.90473,7.90473,0,0,1,4.60473-1.51563,7.84391,7.84391,0,1,1-4.48608,14.20118Zm4.45654-10.8584a4.51658,4.51658,0,0,0-3.14917,7.69433,4.5164,4.5164,0,1,0,3.14917-7.69433Z"/><path class="cls-2" d="M240.27238,105.44149v-.59473a.64144.64144,0,0,1,.74292-.74219h1.67847a.64128.64128,0,0,1,.74268.74219v13.72559a.64158.64158,0,0,1-.74268.74316H241.0153a.64175.64175,0,0,1-.74292-.74316v-.56446a7.88328,7.88328,0,0,1-4.6643,1.54493,7.84327,7.84327,0,0,1-.0149-15.68653A7.94006,7.94006,0,0,1,240.27238,105.44149Zm-4.72363,1.76758a4.29019,4.29019,0,0,0-3.14917,1.30761,4.55346,4.55346,0,1,0,3.14917-1.30761Zm-2.65894-7.78418,4.605-1.93067a.89488.89488,0,0,1,.32666-.08886q.297,0,.47535.40039l.56445,1.26269a.83389.83389,0,0,1,.08911.3418q0,.28272-.41577.46094l-4.42676,1.82714a1.03356,1.03356,0,0,1-.34155.08887q-.26771,0-.47534-.37109l-.68335-1.20313a.82631.82631,0,0,1-.1189-.35742Q232.48869,99.589,232.88981,99.42489Z"/><path class="cls-2" d="M249.24333,104.22372v-3.78809a.64184.64184,0,0,1,.74268-.74316h1.88647a.64193.64193,0,0,1,.74268.74316v3.78809H255.809a.64135.64135,0,0,1,.74268.74218v1.55957a.642.642,0,0,1-.74268.74317h-3.19384v11.30371a.64158.64158,0,0,1-.74268.74316H249.986a.64149.64149,0,0,1-.74268-.74316V107.26864h-3.23828a.642.642,0,0,1-.74292-.74317V104.9659a.64134.64134,0,0,1,.74292-.74218Z"/><path class="cls-2" d="M258.392,118.57235V104.84676a.64127.64127,0,0,1,.74268-.74219h1.88672a.64136.64136,0,0,1,.74267.74219v13.72559a.64166.64166,0,0,1-.74267.74316h-1.88672A.64158.64158,0,0,1,258.392,118.57235Zm1.69336-19.47363a1.7,1.7,0,0,1,1.66382,1.66308,1.66543,1.66543,0,0,1-.49024,1.20313,1.68543,1.68543,0,0,1-2.3767,0,1.63388,1.63388,0,0,1-.49024-1.20313,1.60793,1.60793,0,0,1,.47534-1.1582A1.65884,1.65884,0,0,1,260.08537,99.09872Z"/><path class="cls-2" d="M276.633,114.17586l1.72314.75782c.30689.1289.46045.31152.46045.5498q0,.63867-1.29223,1.90137a7.48519,7.48519,0,0,1-5.42188,2.168,7.8434,7.8434,0,1,1-.04468-15.68653,7.782,7.782,0,0,1,5.49634,2.27344q.66834.624.66846.93555a.7367.7367,0,0,1-.3418.56445l-1.38135,1.02539a.87741.87741,0,0,1-.49023.208,1.25092,1.25092,0,0,1-.68335-.416,4.52582,4.52582,0,0,0-3.179-1.21875,4.3637,4.3637,0,0,0-3.20849,1.30762,4.47826,4.47826,0,0,0,3.1936,7.63477,4.067,4.067,0,0,0,3.56519-1.78223.65543.65543,0,0,1,.52-.3418A1.03766,1.03766,0,0,1,276.633,114.17586Z"/><path class="cls-2" d="M288.38371,103.86629a7.81155,7.81155,0,0,1,7.75415,7.81348,7.84689,7.84689,0,0,1-13.39892,5.57129,7.85433,7.85433,0,0,1-.02955-11.082A7.67868,7.67868,0,0,1,288.38371,103.86629Zm-.104,3.37207a4.43979,4.43979,0,1,0,3.22339,1.30762A4.35049,4.35049,0,0,0,288.27971,107.23836Z"/><path class="cls-2" d="M298.38347,116.38875l1.29223-.83105a.84991.84991,0,0,1,.44556-.16406.92117.92117,0,0,1,.60913.37207,1.59833,1.59833,0,0,0,1.20313.53418,1.344,1.344,0,0,0,.96557-.38575,1.25744,1.25744,0,0,0,.38623-.92089,2.28211,2.28211,0,0,0-1.09912-1.69336,18.036,18.036,0,0,0-1.78271-1.09961,4.30522,4.30522,0,0,1-2.51026-3.877,4.35186,4.35186,0,0,1,1.27735-3.209,4.17853,4.17853,0,0,1,3.075-1.248,4.3031,4.3031,0,0,1,3.10425,1.39649,1.84517,1.84517,0,0,1,.65429,1.05469.70877.70877,0,0,1-.38672.58007l-1.21777.81641a.86772.86772,0,0,1-.44531.17871.71157.71157,0,0,1-.53516-.29785,1.40244,1.40244,0,0,0-1.08447-.47461,1.19389,1.19389,0,0,0-.906.35644,1.08258,1.08258,0,0,0-.34179.81641,1.64051,1.64051,0,0,0,.86157,1.24805q.34167.25341,1.4707.9209,3.06006,1.81347,3.05957,4.69433a4.28912,4.28912,0,0,1-4.39648,4.39649,4.59113,4.59113,0,0,1-3.41651-1.47071q-.68371-.71192-.68335-1.09863A.715.715,0,0,1,298.38347,116.38875Z"/><path class="cls-2" d="M106.02458,138.20809v-6.5957a.642.642,0,0,1,.74292-.74317h1.85669a.64194.64194,0,0,1,.74268.74317v19.81543a.64158.64158,0,0,1-.74268.74316h-1.76758a.64166.64166,0,0,1-.74292-.74316v-.56446a7.82439,7.82439,0,1,1-4.60474-14.1416A7.7451,7.7451,0,0,1,106.02458,138.20809Zm-4.5603,1.85645a4.51676,4.51676,0,0,0-3.14917,7.69433,4.51144,4.51144,0,1,0,3.14917-7.69433Z"/><path class="cls-2" d="M125.49016,145.78329H115.32951c-.03955,0-.05932.01464-.05932.04492a2.98653,2.98653,0,0,0,.81689,1.73828,4.49146,4.49146,0,0,0,3.71387,1.64844,8.00355,8.00355,0,0,0,3.43139-.77246,2.25376,2.25376,0,0,1,.68311-.23731.68224.68224,0,0,1,.57934.43066l.66846,1.24707a.96317.96317,0,0,1,.14868.416q0,.34278-.47534.6543a9.68966,9.68966,0,0,1-5.18432,1.45508,7.7605,7.7605,0,0,1-5.70411-2.25782,8.07389,8.07389,0,0,1,0-11.20019,7.25055,7.25055,0,0,1,5.37745-2.19824,6.55592,6.55592,0,0,1,4.84252,1.88671,7.44025,7.44025,0,0,1,2.09449,5.52539q0,.46143-.0149.832l-.01489.11914C126.23283,145.58993,125.98527,145.81356,125.49016,145.78329ZM115.3444,143.169h7.36792q.05932,0,.05933-.208a2.8121,2.8121,0,0,0-.71289-1.78223,3.48152,3.48152,0,0,0-2.85205-1.32226,3.99753,3.99753,0,0,0-3.34229,1.72265,2.49934,2.49934,0,0,0-.59423,1.47071C115.27019,143.13,115.29484,143.169,115.3444,143.169Z"/><path class="cls-2" d="M139.186,137.07918V135.044a4.135,4.135,0,0,1,1.1438-3.06055,3.97616,3.97616,0,0,1,2.98584-1.14355h1.97558q.7577-.02931.74268.74218v1.501q.01464.772-.74268.74219h-1.08447a1.4974,1.4974,0,0,0-1.67847,1.709v1.54492h3.66919a.64137.64137,0,0,1,.74268.74219v1.55957a.642.642,0,0,1-.74268.74317h-3.66919v11.30371a.64158.64158,0,0,1-.74267.74316h-1.85694a.64158.64158,0,0,1-.74267-.74316V140.12411h-1.66358a.642.642,0,0,1-.74292-.74317v-1.55957a.64135.64135,0,0,1,.74292-.74219Z"/><path class="cls-2" d="M156.91179,136.72176a7.81155,7.81155,0,0,1,7.75415,7.81348,7.8469,7.8469,0,0,1-13.39893,5.57129,7.85432,7.85432,0,0,1-.02954-11.082A7.67865,7.67865,0,0,1,156.91179,136.72176Zm-.104,3.37207a4.43979,4.43979,0,1,0,3.22339,1.30762A4.35046,4.35046,0,0,0,156.80778,140.09383Z"/><path class="cls-2" d="M170.352,137.836a5.99876,5.99876,0,0,1,3.74341-1.11426h.77246q.75732-.0293.74268.74317v1.916a.642.642,0,0,1-.74268.74317h-.65356q-3.66943.04394-3.74341,3.13378v8.16993a.64167.64167,0,0,1-.74268.74316h-1.85693a.64149.64149,0,0,1-.74268-.74316V137.70223a.64119.64119,0,0,1,.74268-.74219h1.738q.74267-.02929.74267.69825Z"/><path class="cls-2" d="M189.28093,138.75692a6.9039,6.9039,0,0,1,5.03564-2.03516,6.62842,6.62842,0,0,1,4.9021,1.87207,6.20883,6.20883,0,0,1,1.81226,4.60547v8.22852a.64158.64158,0,0,1-.74268.74316h-1.85693a.64158.64158,0,0,1-.74268-.74316v-8.02149a3.21156,3.21156,0,0,0-.99536-2.34668,3.26065,3.26065,0,0,0-2.36182-.99511,3.44488,3.44488,0,0,0-2.21337.7871,2.8695,2.8695,0,0,0-1.15845,2.31739v8.25879a.64183.64183,0,0,1-.74292.74316H188.36a.64149.64149,0,0,1-.74268-.74316v-8.02149a3.2039,3.2039,0,0,0-1.01025-2.36133,3.57469,3.57469,0,0,0-4.88721-.03027,3.12171,3.12171,0,0,0-.802,2.21387v8.19922a.64166.64166,0,0,1-.74268.74316h-1.85693a.64149.64149,0,0,1-.74267-.74316V137.70223a.64118.64118,0,0,1,.74267-.74219h1.70825q.74268-.02929.74268.6836v.13281a6.03437,6.03437,0,0,1,3.50586-1.05469A6.83711,6.83711,0,0,1,189.28093,138.75692Z"/><path class="cls-2" d="M215.8593,138.297v-.59473a.64144.64144,0,0,1,.74292-.74219h1.67846a.64128.64128,0,0,1,.74268.74219v13.72559a.64158.64158,0,0,1-.74268.74316h-1.67846a.64174.64174,0,0,1-.74292-.74316v-.56446a7.88328,7.88328,0,0,1-4.66431,1.54493,7.84327,7.84327,0,0,1-.01489-15.68653A7.94008,7.94008,0,0,1,215.8593,138.297Zm-4.72364,1.76758a4.29021,4.29021,0,0,0-3.14917,1.30761,4.55348,4.55348,0,1,0,3.14917-1.30761Z"/><path class="cls-2" d="M233.46232,137.77645a6.19622,6.19622,0,0,1,3.55-1.05469,6.667,6.667,0,0,1,4.9021,1.88672,6.21717,6.21717,0,0,1,1.79737,4.59082v8.22852a.64158.64158,0,0,1-.74268.74316h-1.88647a.64149.64149,0,0,1-.74268-.74316v-8.02149a3.2039,3.2039,0,0,0-1.01025-2.36133,3.3047,3.3047,0,0,0-2.4065-.98046,3.24185,3.24185,0,0,0-2.48071.98046,3.11927,3.11927,0,0,0-.802,2.21289v8.16993a.64167.64167,0,0,1-.74268.74316h-1.85693a.64149.64149,0,0,1-.74268-.74316V137.70223a.64119.64119,0,0,1,.74268-.74219h1.67846q.74268-.02929.74292.6836Z"/><path class="cls-2" d="M258.52873,138.297v-.59473a.64144.64144,0,0,1,.74292-.74219h1.67847a.64127.64127,0,0,1,.74267.74219v13.72559a.64158.64158,0,0,1-.74267.74316h-1.67847a.64174.64174,0,0,1-.74292-.74316v-.56446a7.88328,7.88328,0,0,1-4.66431,1.54493,7.84327,7.84327,0,0,1-.01489-15.68653A7.94008,7.94008,0,0,1,258.52873,138.297Zm-9.32861-5.64453-.22266-1.20313a2.429,2.429,0,0,1-.02978-.32715.83965.83965,0,0,1,.35644-.63867,3.80014,3.80014,0,0,1,2.55493-1.01074,7.32131,7.32131,0,0,1,2.19849.50586,6.16468,6.16468,0,0,0,1.78271.416,3.5758,3.5758,0,0,0,2.124-.75781.83555.83555,0,0,1,.38623-.19336q.297,0,.37134.3711l.19311.92089a2.50523,2.50523,0,0,1,.05957.43164,1.083,1.083,0,0,1-.3269.68262,3.23619,3.23619,0,0,1-2.46582,1.21875,7.57942,7.57942,0,0,1-2.13916-.50586,7.54883,7.54883,0,0,0-2.124-.47461,3.35942,3.35942,0,0,0-2.15405.77246.43944.43944,0,0,1-.25244.11817Q249.25944,132.9786,249.20012,132.65243Zm4.605,7.41211a4.29019,4.29019,0,0,0-3.14917,1.30761,4.55346,4.55346,0,1,0,3.14917-1.30761Z"/><path class="cls-2" d="M272.03605,136.72176a7.81153,7.81153,0,0,1,7.75415,7.81348,7.84689,7.84689,0,0,1-13.39892,5.57129,7.85432,7.85432,0,0,1-.02954-11.082A7.67864,7.67864,0,0,1,272.03605,136.72176Zm-.104,3.37207a4.43979,4.43979,0,1,0,3.22339,1.30762A4.35047,4.35047,0,0,0,271.93205,140.09383Z"/><path class="cls-2" d="M291.13908,149.24422l1.29224-.83105a.84985.84985,0,0,1,.44555-.16406.92118.92118,0,0,1,.60914.37207,1.59831,1.59831,0,0,0,1.20312.53418,1.344,1.344,0,0,0,.96558-.38575,1.25744,1.25744,0,0,0,.38623-.92089,2.28214,2.28214,0,0,0-1.09912-1.69336,18.03524,18.03524,0,0,0-1.78272-1.09961,4.30523,4.30523,0,0,1-2.51025-3.877,4.35184,4.35184,0,0,1,1.27734-3.209,4.17853,4.17853,0,0,1,3.075-1.24805,4.30494,4.30494,0,0,1,3.10474,1.39649,1.84837,1.84837,0,0,1,.65356,1.05468.70919.70919,0,0,1-.38623.58008l-1.218.81641a.866.866,0,0,1-.44581.17871.71109.71109,0,0,1-.53466-.29785,1.40247,1.40247,0,0,0-1.08448-.47461,1.19389,1.19389,0,0,0-.906.35644,1.08256,1.08256,0,0,0-.3418.81641,1.64051,1.64051,0,0,0,.86157,1.24805q.34168.25341,1.47071.9209,3.06006,1.81347,3.06006,4.69433a4.2903,4.2903,0,0,1-4.397,4.39649,4.59109,4.59109,0,0,1-3.4165-1.47071q-.68371-.71191-.68335-1.09863A.715.715,0,0,1,291.13908,149.24422Z"/><path class="cls-2" d="M314.65935,145.78329H304.4987c-.03955,0-.05957.01464-.05957.04492a2.98626,2.98626,0,0,0,.81738,1.73828,4.49113,4.49113,0,0,0,3.71338,1.64844,8.003,8.003,0,0,0,3.43164-.77246,2.25155,2.25155,0,0,1,.68311-.23731.68255.68255,0,0,1,.57959.43066l.66846,1.24707a.96538.96538,0,0,1,.14843.416q0,.34278-.47558.6543a9.68764,9.68764,0,0,1-5.18409,1.45508,7.76049,7.76049,0,0,1-5.7041-2.25782,8.07389,8.07389,0,0,1,0-11.20019,7.25052,7.25052,0,0,1,5.37744-2.19824,6.55575,6.55575,0,0,1,4.84229,1.88671,7.43947,7.43947,0,0,1,2.09473,5.52539q0,.46143-.01514.832l-.01465.11914C315.402,145.58993,315.15446,145.81356,314.65935,145.78329ZM304.51384,143.169h7.36767c.03955,0,.05957-.06934.05957-.208a2.81145,2.81145,0,0,0-.71338-1.78223,3.48085,3.48085,0,0,0-2.85205-1.32226,3.99844,3.99844,0,0,0-3.34228,1.72265,2.50093,2.50093,0,0,0-.59424,1.47071C304.43913,143.13,304.464,143.169,304.51384,143.169Z"/><path class="cls-2" d="M317.88737,151.42782V131.64168a.64118.64118,0,0,1,.74268-.74218h1.88672a.64135.64135,0,0,1,.74267.74218v19.78614a.64166.64166,0,0,1-.74267.74316h-1.88672A.6415.6415,0,0,1,317.88737,151.42782Z"/><path class="cls-2" d="M337.49626,145.78329H327.33562c-.03956,0-.05958.01464-.05958.04492a2.98629,2.98629,0,0,0,.81739,1.73828,4.49113,4.49113,0,0,0,3.71338,1.64844,8.00307,8.00307,0,0,0,3.43164-.77246,2.25161,2.25161,0,0,1,.6831-.23731.68255.68255,0,0,1,.57959.43066l.66846,1.24707a.96543.96543,0,0,1,.14844.416q0,.34278-.47559.6543a9.6876,9.6876,0,0,1-5.18408,1.45508,7.76046,7.76046,0,0,1-5.7041-2.25782,8.07386,8.07386,0,0,1,0-11.20019,7.25052,7.25052,0,0,1,5.37744-2.19824,6.55575,6.55575,0,0,1,4.84228,1.88671,7.43943,7.43943,0,0,1,2.09473,5.52539q0,.46143-.01514.832l-.01464.11914C338.23894,145.58993,337.99138,145.81356,337.49626,145.78329ZM327.35075,143.169h7.36768c.03955,0,.05957-.06934.05957-.208a2.8115,2.8115,0,0,0-.71338-1.78223,3.48087,3.48087,0,0,0-2.852-1.32226,3.99846,3.99846,0,0,0-3.34229,1.72265,2.501,2.501,0,0,0-.59424,1.47071C327.276,143.13,327.301,143.169,327.35075,143.169Z"/><path class="cls-2" d="M343.46208,137.07918V133.2911a.64185.64185,0,0,1,.74268-.74317h1.88671a.642.642,0,0,1,.74268.74317v3.78808h3.19336a.64119.64119,0,0,1,.74268.74219v1.55957a.64186.64186,0,0,1-.74268.74317h-3.19336v11.30371a.64166.64166,0,0,1-.74268.74316h-1.88671a.64149.64149,0,0,1-.74268-.74316V140.12411H340.2238a.64168.64168,0,0,1-.74268-.74317v-1.55957a.641.641,0,0,1,.74268-.74219Z"/><path class="cls-2" d="M352.611,151.42782V137.70223a.64136.64136,0,0,1,.74267-.74219h1.88672a.64137.64137,0,0,1,.74268.74219v13.72559a.64167.64167,0,0,1-.74268.74316h-1.88672A.64166.64166,0,0,1,352.611,151.42782Zm1.69336-19.47364a1.69914,1.69914,0,0,1,1.66357,1.66309,1.66594,1.66594,0,0,1-.48975,1.20312,1.68571,1.68571,0,0,1-2.37695,0,1.6348,1.6348,0,0,1-.49023-1.20312,1.60719,1.60719,0,0,1,.47558-1.1582A1.65831,1.65831,0,0,1,354.30437,131.95418Z"/><path class="cls-2" d="M364.20134,146.80868l2.852-9.21a.81209.81209,0,0,1,.832-.63868h2.19873q.57934,0,.5791.46a.84322.84322,0,0,1-.05957.28223l-4.87207,13.875a.801.801,0,0,1-.84668.59375H363.4738a.8003.8003,0,0,1-.84668-.59375l-4.85742-13.875a.96134.96134,0,0,1-.05957-.29687q0-.44532.5791-.44532H360.488a.76709.76709,0,0,1,.83154.6084Z"/><path class="cls-2" d="M383.926,138.297v-.59473a.64136.64136,0,0,1,.74267-.74219h1.67871a.64136.64136,0,0,1,.74268.74219v13.72559a.64166.64166,0,0,1-.74268.74316h-1.67871a.64166.64166,0,0,1-.74267-.74316v-.56446a7.88311,7.88311,0,0,1-4.66407,1.54493,7.84327,7.84327,0,0,1-.01513-15.68653A7.93954,7.93954,0,0,1,383.926,138.297Zm-4.72364,1.76758a4.29113,4.29113,0,0,0-3.14941,1.30761,4.55377,4.55377,0,1,0,3.14941-1.30761Z"/></g></g></svg>