<svg xmlns="http://www.w3.org/2000/svg" viewBox="0 0 265.18 46.43"><defs><style>.cls-1{fill:#2a7de1;}.cls-2{fill:#00b189;}</style></defs><g id="Layer_2" data-name="Layer 2"><g id="Layer_1-2" data-name="Layer 1"><polygon class="cls-1" points="0 44.66 21.53 8.82 3.35 8.94 1.23 1.77 35.38 1.77 14.33 37.56 35.27 37.35 35.27 44.66 0 44.66"/><path class="cls-1" d="M121.23,44.66,102.6,20.84c-1.61-2.06-2.79-3.79-4.1-5.67h-.12c.12,1.43.12,4,.12,6V44.66H89.7V1.77h9l18,22.91c1.66,2.17,2.82,3.83,4,5.61h.14c-.14-2-.14-4.83-.14-6.65V1.77h8.91V44.66Z"/><polygon class="cls-1" points="168.04 9.09 156.56 9.09 156.56 44.66 147.56 44.66 147.56 9.09 135.03 9.09 135.03 1.77 170.06 1.77 168.04 9.09"/><rect class="cls-1" x="174.4" y="1.77" width="8.92" height="42.89"/><path class="cls-1" d="M212.05,45h-6.6L187.87,1.82h9.78l8.68,22.78c1.11,2.81,2.09,5.55,2.93,8h.12c.73-2.36,1.7-4.83,2.87-7.71l9.72-23h9.09Z"/><path class="cls-1" d="M255.6,45l-4.17-10.51H236.85L232.91,45h-8.8L241,1.89h6.73L265.18,45Zm-9.83-26a46.93,46.93,0,0,1-1.54-5.29h-.06a40.39,40.39,0,0,1-1.55,5.17l-3.23,8.45h9.33Z"/><path class="cls-2" d="M74.08,24.56l-.06.36a14.13,14.13,0,0,1-7,10.8,14.32,14.32,0,0,1-17.08-2L81.45,15.35,81.36,15a29.56,29.56,0,0,0-1.61-3.42,24.65,24.65,0,0,0-2.36-3.38A23,23,0,0,0,48.24,3.09a23.21,23.21,0,0,0-8.43,31.73,23.07,23.07,0,0,0,31.51,8.52A23.38,23.38,0,0,0,82.76,25v-.41Zm-28.66-1.3A14.58,14.58,0,0,1,52.6,10.68a14.39,14.39,0,0,1,16.82,1.8c-.86.5-22.81,13.29-23.66,13.76a12.56,12.56,0,0,1-.34-3"/></g></g></svg>