<svg xmlns="http://www.w3.org/2000/svg" width="230.86601" height="60.296" viewBox="0 0 230.86601 60.296"><defs><style>.cls-1{fill:#26a9e0;}.cls-2{fill:#231f20;}.cls-3{fill:#ee4023;}</style></defs><g id="Camada_2" data-name="Camada 2"><g id="Layer_1" data-name="Layer 1"><path class="cls-1" d="M19.23356,41.70043,11.12539,26.6197A.588.588,0,0,0,10.6,26.28781H8.469a.31783.31783,0,0,0-.35963.35963V41.3408a1.36494,1.36494,0,0,1-1.60493,1.60493H1.60676A1.36474,1.36474,0,0,1,.00183,41.3408V2.04777A1.36474,1.36474,0,0,1,1.60676.44284H13.31184A12.09337,12.09337,0,0,1,22.277,3.98459a13.28117,13.28117,0,0,1,3.84622,9.85115,12.12435,12.12435,0,0,1-3.79075,9.10385,11.31567,11.31567,0,0,1-2.68381,1.90908c-.18511.09256-.27673.17577-.27673.24931a.331.331,0,0,0,.08289.16579l8.9097,16.18766a1.3826,1.3826,0,0,1,.19383.63636q0,.85825-1.07888.85794h-6.171A2.10679,2.10679,0,0,1,19.23356,41.70043Zm-5.92172-33.15H8.469a.318.318,0,0,0-.35963.35994v9.76794a.31771.31771,0,0,0,.35963.35963h4.84284A4.32814,4.32814,0,0,0,17.04712,17.184a5.71676,5.71676,0,0,0,1.024-3.4037,5.37128,5.37128,0,0,0-1.494-3.92912A4.43035,4.43035,0,0,0,13.31184,8.55038Z"/><path class="cls-1" d="M76.65886,34.64435,92.43142,9.18706a.47825.47825,0,0,0,.111-.30447q0-.33237-.47058-.33221H76.99107a1.36453,1.36453,0,0,1-1.60493-1.60493V2.04777A1.36474,1.36474,0,0,1,76.99107.44284h23.52047q1.68752-.05516,1.63235,1.60493V4.78706a6.95449,6.95449,0,0,1-.30415,2.269,14.04082,14.04082,0,0,1-.96857,1.771L85.37534,34.20151a.537.537,0,0,0-.11094.27674q0,.35994.47057.35994h14.77657q1.68752-.05515,1.63235,1.60493V41.3408q.05517,1.66039-1.63235,1.60493H76.99107a1.36474,1.36474,0,0,1-1.60493-1.60493V38.65667A7.3903,7.3903,0,0,1,76.65886,34.64435Z"/><path class="cls-1" d="M129.26315,25.65114H115.98057a.318.318,0,0,0-.35963.35994v8.46717a.31793.31793,0,0,0,.35963.35994h13.28258a1.365,1.365,0,0,1,1.60493,1.60493V41.3408a1.365,1.365,0,0,1-1.60493,1.60493H109.11833a1.36474,1.36474,0,0,1-1.60493-1.60493V2.04777A1.36473,1.36473,0,0,1,109.11833.44284h20.14482a1.365,1.365,0,0,1,1.60493,1.60493V6.94545a1.36474,1.36474,0,0,1-1.60493,1.60493H115.98057a.318.318,0,0,0-.35963.35994V17.2117q0,.33189.35963.33189h13.28258q1.66039-.05515,1.60493,1.63267v4.86995A1.36474,1.36474,0,0,1,129.26315,25.65114Z"/><path class="cls-1" d="M153.53155,8.91032V41.3408a1.365,1.365,0,0,1-1.60493,1.60493h-4.89768A1.36474,1.36474,0,0,1,145.424,41.3408V8.91032a.3183.3183,0,0,0-.35963-.35994h-7.44376a1.36474,1.36474,0,0,1-1.60493-1.60493V2.04777A1.365,1.365,0,0,1,137.62062.44284h23.82526a1.365,1.365,0,0,1,1.60493,1.60493V6.94545a1.36474,1.36474,0,0,1-1.60493,1.60493h-7.5547A.318.318,0,0,0,153.53155,8.91032Z"/><path class="cls-1" d="M169.74788.44284h4.89831a1.365,1.365,0,0,1,1.60493,1.60493v39.293a1.365,1.365,0,0,1-1.60493,1.60493h-4.89831A1.36516,1.36516,0,0,1,168.143,41.3408V2.04777A1.36515,1.36515,0,0,1,169.74788.44284Z"/><path class="cls-1" d="M189.70011,16.02156V41.3408a1.365,1.365,0,0,1-1.60493,1.60493H183.1975a1.36474,1.36474,0,0,1-1.60493-1.60493V2.10293Q181.50937.49862,183.1975.44284h4.538l.0829-.02774a2.3485,2.3485,0,0,1,2.18582,1.21757L207.32691,27.367V2.10293A1.38964,1.38964,0,0,1,208.95926.498h4.84222q1.6875-.05469,1.633,1.60493V41.3408q.05517,1.66039-1.633,1.60493h-4.45454a2.502,2.502,0,0,1-2.26934-1.18983Z"/><path class="cls-1" d="M225.21767.75843a5.40662,5.40662,0,0,1,3.98148,1.67415A5.50807,5.50807,0,0,1,230.866,6.46506a5.50844,5.50844,0,0,1-1.66686,4.03248,5.66741,5.66741,0,0,1-8.05767-.01457,5.48391,5.48391,0,0,1-1.68121-4.01791,5.53037,5.53037,0,0,1,1.68121-4.01791A5.50778,5.50778,0,0,1,225.21767.75843Zm-.09448.86611a4.63316,4.63316,0,0,0-3.38473,1.41208,4.683,4.683,0,0,0-1.41208,3.42844,4.68286,4.68286,0,0,0,1.41208,3.42821,4.67419,4.67419,0,0,0,3.42093,1.41208,4.80566,4.80566,0,0,0,3.51586-1.4558,4.62056,4.62056,0,0,0,1.41937-3.38449,4.63652,4.63652,0,0,0-1.41937-3.38472A4.8184,4.8184,0,0,0,225.12319,1.62454Zm.73495,5.481,1.42666,2.36562a.30877.30877,0,0,1,.051.14549q0,.18954-.2402.18943H226.477a.56457.56457,0,0,1-.3422-.08743,4.36215,4.36215,0,0,1-.40755-.64047q-.79336-1.34663-1.13546-1.86358h-.00728c-.02436,0-.03643.00979-.03643.02914V9.442q.01434.37123-.36384.36407h-.42235q-.3784.00717-.36383-.36407V3.517q-.01469-.37123.36383-.36384h1.63772a1.89443,1.89443,0,0,1,1.41209.53847,1.99283,1.99283,0,0,1,.53869,1.46309,2.01993,2.01993,0,0,1-.46584,1.4048,1.54109,1.54109,0,0,1-.96081.47312A.072.072,0,0,0,225.85814,7.10553Zm-1.31008-2.88246V6.09371a.05146.05146,0,0,0,.05829.05829h.74975a.71909.71909,0,0,0,.6259-.32764,1.14258,1.14258,0,0,0,.20378-.68418,1.05259,1.05259,0,0,0-.21106-.66962.753.753,0,0,0-.61862-.2912h-.74975C224.56741,4.17936,224.54806,4.19393,224.54806,4.22307Z"/><path class="cls-2" d="M78.51207,56.32561,80.66789,59.959a.2124.2124,0,0,1,.03731.0999c0,.09148-.05777.13722-.17453.13722h-.85944a.38311.38311,0,0,1-.34907-.19319L77.259,56.59344a.16423.16423,0,0,0-.13722-.07463H76.012c-.09148,0-.13481.04333-.1312.1306v3.28488a.2247.2247,0,0,1-.2612.2618h-.63555a.22551.22551,0,0,1-.26241-.2618v-9.05a.22552.22552,0,0,1,.26241-.2618H77.1844a2.951,2.951,0,0,1,2.18109.84138,3.10346,3.10346,0,0,1,.40565,3.67729,2.51865,2.51865,0,0,1-.86064.88532l-.36111.21185C78.52772,56.251,78.51568,56.27987,78.51207,56.32561ZM77.17116,51.757H76.012c-.09148-.00421-.13481.03973-.1312.1306v3.36613c-.00361.09149.03972.13482.1312.13061h1.15916a1.82783,1.82783,0,0,0,1.4336-.56093,1.80062,1.80062,0,0,0,.443-1.2404,1.77461,1.77461,0,0,0-.57417-1.377A1.8567,1.8567,0,0,0,77.17116,51.757Z"/><path class="cls-2" d="M84.41379,53.7142a3.12545,3.12545,0,0,1,2.293.95995,3.15712,3.15712,0,0,1,.96055,2.31831,3.19843,3.19843,0,0,1-.96656,2.34961,3.29864,3.29864,0,0,1-4.66793-4.66191A3.22328,3.22328,0,0,1,84.41379,53.7142Zm-.04334,1.08453a2.1708,2.1708,0,1,0,1.57684.63555A2.13158,2.13158,0,0,0,84.37045,54.79873Z"/><path class="cls-2" d="M88.67125,59.19281l.461-.32439a.30171.30171,0,0,1,.16129-.062.30547.30547,0,0,1,.21185.12458.81368.81368,0,0,0,.62352.28046.73634.73634,0,0,0,.54286-.21847.67586.67586,0,0,0,.21185-.49231q0-.64186-1.34091-1.44564a3.10767,3.10767,0,0,1-.69092-.51759,1.422,1.422,0,0,1-.38037-1.00327,1.74794,1.74794,0,0,1,.54166-1.27773,1.72782,1.72782,0,0,1,1.25907-.54226,1.89515,1.89515,0,0,1,1.2723.49833.40387.40387,0,0,1,.17454.27444.28381.28381,0,0,1-.10593.19921l-.449.38639a.267.267,0,0,1-.17453.08727.31978.31978,0,0,1-.21185-.12459.74988.74988,0,0,0-.54287-.23652.6801.6801,0,0,0-.50435.18657.59959.59959,0,0,0-.17453.443.58594.58594,0,0,0,.124.35509,3.17734,3.17734,0,0,0,.7174.53625,4.49594,4.49594,0,0,1,1.12786.90337,1.96792,1.96792,0,0,1,.443,1.2717,1.72175,1.72175,0,0,1-.50555,1.2711,1.82941,1.82941,0,0,1-1.33971.53023,1.914,1.914,0,0,1-1.353-.52361A.5852.5852,0,0,1,88.534,59.398.25692.25692,0,0,1,88.67125,59.19281Z"/><path class="cls-2" d="M97.37155,59.72244a2.82637,2.82637,0,0,1-1.71406.57356,2.78014,2.78014,0,0,1-2.03785-.848,2.46069,2.46069,0,0,1-.76675-1.79471V54.088a.22552.22552,0,0,1,.2624-.26181h.56092a.22471.22471,0,0,1,.2612.26181v3.41548a1.61245,1.61245,0,0,0,.51157,1.18443,1.68752,1.68752,0,0,0,1.23981.511A1.44843,1.44843,0,0,0,97.33424,57.566V54.088a.22552.22552,0,0,1,.26241-.26181h.56092a.22472.22472,0,0,1,.2612.26181v5.84634a.2247.2247,0,0,1-.2612.2618H97.634a.22552.22552,0,0,1-.26241-.2618Z"/><path class="cls-2" d="M101.69041,58.46338l1.47814-4.42539a.27556.27556,0,0,1,.29249-.21786h.67889V53.8135c.0337-.02467.08305-.00782.15046.05a.13821.13821,0,0,1,.04935.10592.32884.32884,0,0,1-.01806.09991L102.214,59.98424a.28182.28182,0,0,1-.29852.21185h-.461a.27339.27339,0,0,1-.29371-.21185l-2.0872-5.91495a.30005.30005,0,0,1-.01926-.09991c0-.10351.06861-.15588.20583-.15588H99.939a.27443.27443,0,0,1,.29371.21246Z"/><path class="cls-2" d="M110.25469,54.55558v-.49231a.22471.22471,0,0,1,.26121-.2618h.56092a.22551.22551,0,0,1,.2624.2618v5.871a.22551.22551,0,0,1-.2624.2618h-.56092a.22471.22471,0,0,1-.26121-.2618v-.47967a3.35871,3.35871,0,0,1-2.19433.84138,3.29695,3.29695,0,0,1-2.35563-5.61584,3.21816,3.21816,0,0,1,2.35563-.966A3.35871,3.35871,0,0,1,110.25469,54.55558Zm-2.21239.24315a2.1708,2.1708,0,1,0,1.57684.63555A2.13158,2.13158,0,0,0,108.0423,54.79873Z"/><path class="cls-2" d="M112.3431,59.19281l.461-.32439a.30171.30171,0,0,1,.16129-.062.30547.30547,0,0,1,.21185.12458.81368.81368,0,0,0,.62352.28046.73634.73634,0,0,0,.54286-.21847.67582.67582,0,0,0,.21185-.49231q0-.64186-1.34091-1.44564a3.10767,3.10767,0,0,1-.69092-.51759,1.422,1.422,0,0,1-.38037-1.00327,1.74794,1.74794,0,0,1,.54166-1.27773,1.72782,1.72782,0,0,1,1.25907-.54226,1.89515,1.89515,0,0,1,1.2723.49833.40387.40387,0,0,1,.17454.27444.28381.28381,0,0,1-.10593.19921l-.449.38639a.267.267,0,0,1-.17453.08727.31978.31978,0,0,1-.21185-.12459.74988.74988,0,0,0-.54287-.23652.6801.6801,0,0,0-.50435.18657.59959.59959,0,0,0-.17453.443.58594.58594,0,0,0,.124.35509,3.17758,3.17758,0,0,0,.7174.53625,4.49594,4.49594,0,0,1,1.12786.90337,1.96792,1.96792,0,0,1,.443,1.2717,1.72175,1.72175,0,0,1-.50555,1.2711,1.82941,1.82941,0,0,1-1.33971.53023,1.914,1.914,0,0,1-1.35295-.52361.5852.5852,0,0,1-.23593-.37435A.25692.25692,0,0,1,112.3431,59.19281Z"/><path class="cls-2" d="M118.08954,53.91341V52.212a.2247.2247,0,0,1,.2612-.2618h.56092a.22552.22552,0,0,1,.26241.2618v1.70142h1.57684a.22471.22471,0,0,1,.2612.2618v.461a.2247.2247,0,0,1-.2612.2618h-1.57684v5.03626a.22552.22552,0,0,1-.26241.2618h-.56092a.2247.2247,0,0,1-.2612-.2618V54.898h-1.59008a.2247.2247,0,0,1-.2612-.2618v-.461a.2247.2247,0,0,1,.2612-.2618Z"/><path class="cls-2" d="M126.8404,54.55558v-.49231a.2247.2247,0,0,1,.2612-.2618h.56092a.22551.22551,0,0,1,.2624.2618v5.871a.22551.22551,0,0,1-.2624.2618h-.56092a.2247.2247,0,0,1-.2612-.2618v-.47967a3.35874,3.35874,0,0,1-2.19434.84138,3.297,3.297,0,0,1-2.35563-5.61584,3.21816,3.21816,0,0,1,2.35563-.966A3.35874,3.35874,0,0,1,126.8404,54.55558Zm-2.21239.24315a2.1708,2.1708,0,1,0,1.57684.63555A2.13158,2.13158,0,0,0,124.628,54.79873Z"/><path class="cls-2" d="M130.46833,53.91341V52.212a.2247.2247,0,0,1,.2612-.2618h.56092a.22552.22552,0,0,1,.26241.2618v1.70142h1.57684a.2247.2247,0,0,1,.2612.2618v.461a.2247.2247,0,0,1-.2612.2618h-1.57684v5.03626a.22552.22552,0,0,1-.26241.2618h-.56092a.2247.2247,0,0,1-.2612-.2618V54.898h-1.59008a.2247.2247,0,0,1-.2612-.2618v-.461a.2247.2247,0,0,1,.2612-.2618Z"/><path class="cls-2" d="M134.14441,59.93429v-5.859a.226.226,0,0,1,.26241-.26181h.56092a.22513.22513,0,0,1,.2612.26181v5.859a.2247.2247,0,0,1-.2612.2618h-.56092A.22552.22552,0,0,1,134.14441,59.93429Zm.54287-8.05271a.51954.51954,0,0,1,.37435.16851.5018.5018,0,0,1,.16129.36111.55226.55226,0,0,1-.16129.393.51338.51338,0,0,1-.37435.15588.507.507,0,0,1-.38037-.1625.53274.53274,0,0,1-.012-.75412A.53326.53326,0,0,1,134.68728,51.88158Z"/><path class="cls-2" d="M137.26078,54.26248a2.74148,2.74148,0,0,1,1.67072-.54828,2.79864,2.79864,0,0,1,2.05591.8474,2.41586,2.41586,0,0,1,.75472,1.764v3.60868a.22512.22512,0,0,1-.2612.2618H140.92a.22552.22552,0,0,1-.26241-.2618v-3.4528a1.61241,1.61241,0,0,0-.51157-1.18443,1.67412,1.67412,0,0,0-1.2398-.511,1.48431,1.48431,0,0,0-1.64545,1.63281v3.51539a.22513.22513,0,0,1-.2612.2618h-.56093a.22551.22551,0,0,1-.2624-.2618v-5.859a.22594.22594,0,0,1,.2624-.26181h.56093a.22556.22556,0,0,1,.2612.26181Z"/><path class="cls-2" d="M148.1506,54.55558v-.49231a.2247.2247,0,0,1,.2612-.2618h.56092a.22552.22552,0,0,1,.26241.2618v5.871a.22552.22552,0,0,1-.26241.2618h-.56092a.2247.2247,0,0,1-.2612-.2618v-.47967a3.35874,3.35874,0,0,1-2.19434.84138,3.297,3.297,0,0,1-2.35563-5.61584,3.21816,3.21816,0,0,1,2.35563-.966A3.35874,3.35874,0,0,1,148.1506,54.55558Zm-2.21239.24315a2.1708,2.1708,0,1,0,1.57684.63555A2.13154,2.13154,0,0,0,145.93821,54.79873Z"/><path class="cls-2" d="M157.23127,57.34755v2.53679a.22552.22552,0,0,1-.26241.2618h-.27444c-.17453.00421-.25879-.08305-.25518-.2618V57.34755h-2.54943a.22471.22471,0,0,1-.2612-.2618v-.26782a.22472.22472,0,0,1,.2612-.26181h2.54943V54.07531c-.00361-.17815.08065-.26542.25518-.26181h.27444a.226.226,0,0,1,.26241.26181v2.48081h2.5422a.22553.22553,0,0,1,.26241.26181v.26782a.22552.22552,0,0,1-.26241.2618Z"/><path class="cls-2" d="M169.22849,59.31078v.62351a.2247.2247,0,0,1-.2612.2618h-4.17562a.22551.22551,0,0,1-.2624-.2618v-9.05a.22552.22552,0,0,1,.2624-.2618h4.17562a.22471.22471,0,0,1,.2612.2618v.62352a.22471.22471,0,0,1-.2612.2618h-3.1597a.11546.11546,0,0,0-.1312.1306v2.77993c0,.09149.04333.13482.1312.13061h3.1597a.22512.22512,0,0,1,.2612.2618v.62351a.22472.22472,0,0,1-.2612.26181h-3.1597a.11546.11546,0,0,0-.1312.1306v2.82988a.11546.11546,0,0,0,.1312.1306h3.1597A.22514.22514,0,0,1,169.22849,59.31078Z"/><path class="cls-2" d="M171.65273,59.18619h2.78053a.22513.22513,0,0,1,.2612.26181v.48629a.2247.2247,0,0,1-.2612.2618h-3.90839a.2247.2247,0,0,1-.2612-.2618V59.7411a1.0439,1.0439,0,0,1,.19861-.57356l2.6746-4.11363.03732-.056c.02528-.03731.05176-.077.08065-.11856l.03731-.056h-2.76729a.2247.2247,0,0,1-.2612-.2618v-.48629a.22513.22513,0,0,1,.2612-.26181h3.82052a.226.226,0,0,1,.26241.26181v.28708a1.12081,1.12081,0,0,1-.20583.59222Z"/><path class="cls-2" d="M176.39047,57.44144a2.27083,2.27083,0,0,0,.73546,1.25906,2.219,2.219,0,0,0,1.47091.49833,3.44912,3.44912,0,0,0,1.708-.41106.30385.30385,0,0,1,.14324-.05.22141.22141,0,0,1,.19259.14926l.21185.43032a.34612.34612,0,0,1,.05056.15587c0,.07463-.06741.15167-.19981.23051a4.04218,4.04218,0,0,1-2.11971.59222,3.34574,3.34574,0,0,1-2.36767-5.67843,2.99585,2.99585,0,0,1,2.21239-.90337,2.75854,2.75854,0,0,1,2.03184.8161,3.09268,3.09268,0,0,1,.898,2.28161v.36773a.22552.22552,0,0,1-.26241.2618Zm3.83256-.93527a1.75551,1.75551,0,0,0-.52361-1.15314,1.78825,1.78825,0,0,0-1.32045-.5543,1.89316,1.89316,0,0,0-1.19767.39842,2.33021,2.33021,0,0,0-.76555,1.309Z"/><path class="cls-2" d="M183.65236,53.91341V52.212a.2247.2247,0,0,1,.2612-.2618h.56092a.22552.22552,0,0,1,.26241.2618v1.70142h1.57683a.22471.22471,0,0,1,.26121.2618v.461a.22471.22471,0,0,1-.26121.2618h-1.57683v5.03626a.22552.22552,0,0,1-.26241.2618h-.56092a.2247.2247,0,0,1-.2612-.2618V54.898h-1.59008a.22471.22471,0,0,1-.26121-.2618v-.461a.22471.22471,0,0,1,.26121-.2618Z"/><path class="cls-2" d="M187.32844,59.93429v-5.859a.22594.22594,0,0,1,.2624-.26181h.56093a.22514.22514,0,0,1,.2612.26181v5.859a.2247.2247,0,0,1-.2612.2618h-.56093A.22551.22551,0,0,1,187.32844,59.93429Zm.54286-8.05271a.51951.51951,0,0,1,.37435.16851.50181.50181,0,0,1,.1613.36111.55227.55227,0,0,1-.1613.393.51338.51338,0,0,1-.37435.15588.507.507,0,0,1-.38036-.1625.53274.53274,0,0,1-.012-.75412A.53323.53323,0,0,1,187.8713,51.88158Z"/><path class="cls-2" d="M194.37727,54.78609a2.87269,2.87269,0,0,1,4.27552-.22449,2.41586,2.41586,0,0,1,.75472,1.764v3.60868a.22512.22512,0,0,1-.2612.2618h-.56092a.22552.22552,0,0,1-.26241-.2618v-3.4528a1.74789,1.74789,0,0,0-1.702-1.6954,1.7439,1.7439,0,0,0-1.12786.41106,1.44737,1.44737,0,0,0-.59222,1.15976v3.57738a.2247.2247,0,0,1-.2612.2618H194.104a.22551.22551,0,0,1-.2624-.2618v-3.4528a1.61245,1.61245,0,0,0-.51157-1.18443,1.68,1.68,0,0,0-1.24583-.511,1.43548,1.43548,0,0,0-1.63943,1.60814v3.54006a.22512.22512,0,0,1-.2612.2618h-.56092a.22552.22552,0,0,1-.26241-.2618v-5.859a.226.226,0,0,1,.26241-.26181h.56092a.22556.22556,0,0,1,.2612.26181v.18717a2.75134,2.75134,0,0,1,1.67675-.54828A2.83135,2.83135,0,0,1,194.37727,54.78609Z"/><path class="cls-2" d="M200.42343,59.93429v-5.859a.22594.22594,0,0,1,.2624-.26181h.56093a.22514.22514,0,0,1,.2612.26181v5.859a.2247.2247,0,0,1-.2612.2618h-.56093A.22551.22551,0,0,1,200.42343,59.93429Zm.54286-8.05271a.51951.51951,0,0,1,.37435.16851.50181.50181,0,0,1,.1613.36111.55227.55227,0,0,1-.1613.393.51338.51338,0,0,1-.37435.15588.507.507,0,0,1-.38036-.1625.53274.53274,0,0,1-.012-.75412A.53323.53323,0,0,1,200.96629,51.88158Z"/><path class="cls-2" d="M203.53979,59.45462v.47967a.22512.22512,0,0,1-.2612.2618h-.56092a.22552.22552,0,0,1-.26241-.2618V51.50783a.22553.22553,0,0,1,.26241-.26181h.56092a.22513.22513,0,0,1,.2612.26181v3.04775a3.281,3.281,0,0,1,2.19434-.84138,3.19886,3.19886,0,0,1,2.34961.966,3.29395,3.29395,0,0,1-2.34961,5.61584A3.29451,3.29451,0,0,1,203.53979,59.45462Zm2.17508-4.65589a2.18212,2.18212,0,1,0,1.60212.64819A2.15052,2.15052,0,0,0,205.71487,54.79873Z"/><path class="cls-2" d="M215.44433,54.55558v-.49231a.2247.2247,0,0,1,.2612-.2618h.56092a.22552.22552,0,0,1,.26241.2618v5.871a.22552.22552,0,0,1-.26241.2618h-.56092a.2247.2247,0,0,1-.2612-.2618v-.47967A3.35874,3.35874,0,0,1,213.25,60.296a3.297,3.297,0,0,1-2.35563-5.61584,3.21816,3.21816,0,0,1,2.35563-.966A3.35874,3.35874,0,0,1,215.44433,54.55558Zm-2.21239.24315a2.1708,2.1708,0,1,0,1.57684.63555A2.13154,2.13154,0,0,0,213.23194,54.79873Z"/><path class="cls-3" d="M48.54175,19.521a2.738,2.738,0,0,0-2.83154.69924,2.79888,2.79888,0,0,0-2.88936-.88165c-1.08791.307-2.10309,1.35616-1.68819,3.38234a5.12052,5.12052,0,0,0,1.47955,2.67476,12.56138,12.56138,0,0,0,2.65151,1.85272.89394.89394,0,0,0,.88165,0,12.55212,12.55212,0,0,0,2.65151-1.85272,5.11625,5.11625,0,0,0,1.48015-2.676A2.57239,2.57239,0,0,0,48.54175,19.521Z"/><path class="cls-3" d="M51.18849,17.80534a4.64924,4.64924,0,0,0-4.43687-.1991A4.49545,4.49545,0,0,0,42.406,17.546a4.62622,4.62622,0,0,0-2.31709,4.90005A6.913,6.913,0,0,0,42.158,26.7226a9.94667,9.94667,0,0,0,4.27831,2.38267A1.78242,1.78242,0,0,0,47.517,29.0689a10.05429,10.05429,0,0,0,4.04165-2.56865A7.03946,7.03946,0,0,0,53.41617,22.458,4.53328,4.53328,0,0,0,51.18849,17.80534ZM52.72766,22.374a6.364,6.364,0,0,1-1.67985,3.65715,9.37338,9.37338,0,0,1-3.76625,2.385,1.09528,1.09528,0,0,1-.65453.02146,9.24357,9.24357,0,0,1-3.98144-2.2086A6.23961,6.23961,0,0,1,40.778,22.36561a3.84548,3.84548,0,0,1,3.78293-4.65743,3.47644,3.47644,0,0,1,1.98327.59015l.189.13115.19433-.1228a3.88765,3.88765,0,0,1,3.91289.09835A3.81538,3.81538,0,0,1,52.72766,22.374Z"/><path class="cls-3" d="M54.3157,27.61022a9.04731,9.04731,0,0,0,2.23721-5.40973A6.79965,6.79965,0,0,0,53.80722,16.085a7.09741,7.09741,0,0,0-6.02134-1.23276,6.84692,6.84692,0,0,0-8.73664,7.331A8.87514,8.87514,0,0,0,41.70373,28.049a10.71744,10.71744,0,0,0,5.88245,2.89353,3.28708,3.28708,0,0,0,.50193.03875,3.22521,3.22521,0,0,0,.81488-.10373A10.76255,10.76255,0,0,0,54.3157,27.61022Zm-6.61089,2.57759a9.94668,9.94668,0,0,1-5.46338-2.68013,8.13071,8.13071,0,0,1-2.431-5.37575,6.09372,6.09372,0,0,1,6.075-6.79926,5.60189,5.60189,0,0,1,1.77343.28077l.115.03874.11625-.03517a6.28741,6.28741,0,0,1,5.4592,1.07956,6.05038,6.05038,0,0,1,2.44228,5.44788,8.29181,8.29181,0,0,1-2.05123,4.96324,9.99792,9.99792,0,0,1-5.03179,3.03124A2.5303,2.5303,0,0,1,47.70481,30.18781Z"/><path class="cls-3" d="M49.18078,32.79282a5.58169,5.58169,0,0,0,1.11533-.11087,12.07524,12.07524,0,0,0,6.77542-3.96118,10.97291,10.97291,0,0,0,2.61754-6.77423A9.35054,9.35054,0,0,0,56.414,14.361a9.58177,9.58177,0,0,0-7.59448-2.29325,9.433,9.433,0,0,0-10.80992,9.85853A10.9375,10.9375,0,0,0,41.2489,29.3759a11.96819,11.96819,0,0,0,7.47645,3.39845C48.87557,32.78686,49.02818,32.79282,49.18078,32.79282Zm-10.339-10.89695a8.60482,8.60482,0,0,1,8.584-9.10086,8.32207,8.32207,0,0,1,1.32516.10551l.06379.01014.06438-.00954a8.75453,8.75453,0,0,1,6.99121,2.09057,8.52836,8.52836,0,0,1,2.98653,6.91909,10.15338,10.15338,0,0,1-2.42081,6.2717,11.2434,11.2434,0,0,1-6.30748,3.68339,4.84985,4.84985,0,0,1-1.33529.07869,11.13713,11.13713,0,0,1-6.95664-3.15881A10.11332,10.11332,0,0,1,38.84179,21.89587Z"/><path class="cls-3" d="M66.11308,6.33683A20.784,20.784,0,0,0,50.92143,0,21.0851,21.0851,0,0,0,35.3701,6.33683,21.12533,21.12533,0,0,0,29.03327,21.722,20.9405,20.9405,0,0,0,35.3701,37.05172,21.00456,21.00456,0,0,0,50.755,43.38855a20.97559,20.97559,0,0,0,15.35811-6.33683,20.97455,20.97455,0,0,0,6.33624-15.35744A20.97613,20.97613,0,0,0,66.11308,6.33683ZM40.79526,30.70345a13.42356,13.42356,0,0,0,9.0633,3.90156c.10492.00358.20924.00536.31415.00536a9.276,9.276,0,0,0,1.52069-.12518,13.44607,13.44607,0,0,0,8.13337-4.65266,12.91649,12.91649,0,0,0,2.99845-8.13874,12.06911,12.06911,0,0,0-3.80917-9.05973A12.34011,12.34011,0,0,0,49.85439,9.275,12.17814,12.17814,0,0,0,39.864,13.54828a14.751,14.751,0,0,1,1.26145-1.45586,12.97642,12.97642,0,0,1,9.49124-4.01229,13.14616,13.14616,0,0,1,9.74049,4.01229,13.14746,13.14746,0,0,1,3.98457,9.60186,13.08628,13.08628,0,0,1-3.98457,9.60185,13.52883,13.52883,0,0,1-19.23173,0A13.4793,13.4793,0,0,1,38.08875,26.768,13.00334,13.00334,0,0,0,40.79526,30.70345Zm-2.92215-9.046A11.27261,11.27261,0,0,1,49.15157,10.15781c.22474,0,.45066.00655.67659.02027l.02742.00178.028-.00178a11.39037,11.39037,0,0,1,8.5125,3.1129,11.16479,11.16479,0,0,1,3.5266,8.38433,12.0251,12.0251,0,0,1-2.791,7.58077,12.53833,12.53833,0,0,1-7.58733,4.33852,8.21406,8.21406,0,0,1-1.656.10789,12.52584,12.52584,0,0,1-8.45646-3.63808A12.0041,12.0041,0,0,1,37.87311,21.65743Z"/></g></g></svg>