<svg xmlns="http://www.w3.org/2000/svg" width="345.16" height="188.225" viewBox="0 0 345.16 188.225"><defs><style>.a{fill:#fff;}.b{fill:#231f20;}.c{fill:#eb1c24;}</style></defs><g transform="translate(-1593.714 -6658)"><rect class="a" width="129.885" height="129.893" transform="translate(1701.36 6659.107)"/><path class="b" d="M1831.245,6658.635l-64.958,89.265-64.926-89.265h129.885"/><path class="a" d="M1761.61,6704.092h5.9l-5.9,3.7v2.442h9.383v-2.263h-6.021l6.021-3.8v-2.337h-9.383Zm0,20.208,6.6,1.661-6.479,1.652-.124.033v3.309h9.383v-2.263h-6.341l6.215-1.51.126-.033v-2.295l-6.39-1.575h6.39v-2.247h-9.383Zm7.432-7.3h-2v-4.82h-1.894V6717h-1.6v-5.259h-1.945v7.636h9.383v-7.888h-1.951Zm-7.432-22.252v2.6l9.157,3.574.226.089v-2.523l-1.856-.7v-3.423l1.746-.611.11-.04V6691.1l-9.277,3.606Zm5.633.314v2.039l-2.89-1.03Zm-5.633-14.62h9.383v-2.4h-9.383Zm0-10.118h5.906l-5.906,3.7v2.442h9.383v-2.272h-6.019l6.019-3.793v-2.336h-9.383Zm8.842,11.343a.547.547,0,0,1-.4.293,4.085,4.085,0,0,1-.791.045h-.611a2.924,2.924,0,0,0-1.524.313.719.719,0,1,1-1.413-.211,2.751,2.751,0,0,0-1.361-.371,2.394,2.394,0,0,0-1.014.2,3.249,3.249,0,0,0-.8.541,2.614,2.614,0,0,0-.678,1.014,5.149,5.149,0,0,0-.248,1.672v5.043h9.383v-2.36h-3.547v-1.983a1.84,1.84,0,0,1,.25-1.143,1.378,1.378,0,0,1,1.018-.285l.865-.017a4.476,4.476,0,0,0,.816-.089l.163-.045c.092-.02.2-.049.317-.085l.118-.033v-2.589h-.5Zm-4.837,6.175h-2.1v-2.243a2.291,2.291,0,0,1,.146-.944.927.927,0,0,1,.948-.5.839.839,0,0,1,.873.5,2.961,2.961,0,0,1,.133,1.009Zm-4.005-23.615v2.393h9.383v-2.393Z"/><path class="c" d="M1725.683,6789v-58.9l40.6,58.089,40.627-58.089V6789h-81.231"/><path class="b" d="M1766.286,6790.131v-.024H1724.56v-63.526l41.726,59.668,41.751-59.668v63.526l-41.751.024Zm1.587-2.238h37.95v-54.271l-37.95,54.271Zm-41.1,0h37.973l-37.973-54.271v54.271Z"/><path class="b" d="M1832.36,6790.107H1700.253V6658H1832.36v132.107Zm-129.893-2.214h127.671V6660.206H1702.467v127.687Z"/><path class="b" d="M1601,6825.256h4.827l7.22,20.383h-4.623l-1.352-4.176h-7.5l-1.392,4.176h-4.469Zm-.277,12.683h5.226l-2.588-8.027Z"/><path class="b" d="M1616.051,6841.52h4.2v4.119h-4.2Z"/><path class="b" d="M1646.308,6825.256h6.121v20.383h-3.972V6831.85c0-.4,0-.945.008-1.653,0-.724.025-1.278.025-1.66l-3.9,17.1h-4.123l-3.834-17.1v1.66c.008.708.025,1.254.025,1.653v13.789h-3.981v-20.383h6.211l3.712,16.036Z"/><path class="b" d="M1671.648,6828.87h-10.794v4.339h9.915v3.533h-9.915v5.242h11.3v3.655h-15.466v-20.383h14.961Z"/><path class="b" d="M1675.474,6825.256h4.477l8.084,14.229v-14.229H1692v20.383h-4.245l-8.311-14.465v14.465h-3.973Z"/><path class="b" d="M1701.889,6825.256h4.844l7.2,20.383h-4.608l-1.351-4.176h-7.522l-1.383,4.176h-4.445Zm-.269,12.683h5.218l-2.58-8.027Z"/><path class="b" d="M1729.582,6825.785a4.94,4.94,0,0,1,1.921,1.425,6.391,6.391,0,0,1,1.018,1.709,5.758,5.758,0,0,1,.374,2.149,6.045,6.045,0,0,1-.716,2.857,4.049,4.049,0,0,1-2.426,1.987,3.831,3.831,0,0,1,2,1.611,6.816,6.816,0,0,1,.578,3.183v1.376a10.521,10.521,0,0,0,.114,1.9,1.666,1.666,0,0,0,.79,1.163v.5h-4.705c-.122-.448-.22-.8-.277-1.074a9.432,9.432,0,0,1-.187-1.775l-.017-1.889a3.923,3.923,0,0,0-.683-2.6,3.416,3.416,0,0,0-2.418-.643h-4.176v7.977h-4.159v-20.383h9.76A8.49,8.49,0,0,1,1729.582,6825.785Zm-8.808,3.02v5.47h4.6a4.84,4.84,0,0,0,2.034-.325,2.288,2.288,0,0,0,1.23-2.3,2.551,2.551,0,0,0-1.172-2.483,4.287,4.287,0,0,0-1.986-.358Z"/><path class="b" d="M1740.987,6845.639h-4.234v-20.383h4.234Z"/><path class="b" d="M1745.178,6825.256h4.453l8.1,14.229v-14.229h3.972v20.383h-4.257l-8.3-14.465v14.465h-3.973Z"/><path class="b" d="M1769.99,6845.639h-4.217v-20.383h4.217Z"/><path class="b" d="M1796.112,6836.823a7.653,7.653,0,0,1-5.1,1.5h-4.25v7.318h-4.24v-20.383h8.767a7.068,7.068,0,0,1,4.819,1.571,6.171,6.171,0,0,1,1.8,4.893C1797.9,6834.129,1797.324,6835.838,1796.112,6836.823Zm-3.248-7.35a3.4,3.4,0,0,0-2.263-.668h-3.843v6h3.843a3.246,3.246,0,0,0,2.263-.733,2.986,2.986,0,0,0,.814-2.328A2.819,2.819,0,0,0,1792.864,6829.473Z"/><path class="b" d="M1816.959,6843.84q-2.32,2.38-6.675,2.385c-2.906,0-5.153-.8-6.692-2.385-2.067-1.946-3.085-4.738-3.085-8.417,0-3.728,1.018-6.528,3.085-8.409,1.539-1.587,3.786-2.368,6.692-2.368s5.128.781,6.675,2.368q3.088,2.821,3.085,8.409C1820.044,6839.1,1819.018,6841.894,1816.959,6843.84Zm-2.654-3.1a10.251,10.251,0,0,0,0-10.615,4.867,4.867,0,0,0-4.021-1.872,4.957,4.957,0,0,0-4.046,1.856,10,10,0,0,0,0,10.631,4.95,4.95,0,0,0,4.046,1.872A4.891,4.891,0,0,0,1814.305,6840.739Z"/><path class="b" d="M1836.5,6825.785a4.721,4.721,0,0,1,1.922,1.425,6.215,6.215,0,0,1,1.033,1.709,5.921,5.921,0,0,1,.375,2.149,6,6,0,0,1-.749,2.857,4.014,4.014,0,0,1-2.41,1.987,3.806,3.806,0,0,1,2,1.611,6.845,6.845,0,0,1,.569,3.183v1.376a11.048,11.048,0,0,0,.123,1.9,1.687,1.687,0,0,0,.8,1.163v.5h-4.7c-.13-.448-.228-.8-.277-1.074a9.2,9.2,0,0,1-.187-1.775l-.016-1.889a3.826,3.826,0,0,0-.684-2.6,3.447,3.447,0,0,0-2.425-.643H1827.7v7.977h-4.152v-20.383h9.752A8.44,8.44,0,0,1,1836.5,6825.785Zm-8.8,3.02v5.47h4.591a5,5,0,0,0,2.051-.325,2.3,2.3,0,0,0,1.205-2.3,2.572,2.572,0,0,0-1.156-2.483,4.247,4.247,0,0,0-1.978-.358Z"/><path class="b" d="M1858.734,6825.256v3.614h-6.1v16.769h-4.29V6828.87h-6.126v-3.614Z"/><path class="b" d="M1861.306,6825.256h4.331v12.536a7,7,0,0,0,.505,3.061c.5,1.147,1.62,1.709,3.353,1.709s2.849-.562,3.362-1.709a7.147,7.147,0,0,0,.5-3.061v-12.536h4.338v12.536a10.654,10.654,0,0,1-1.009,5.08c-1.262,2.2-3.647,3.3-7.188,3.3-3.516,0-5.913-1.108-7.171-3.3a10.458,10.458,0,0,1-1.018-5.08Z"/><path class="b" d="M1895.577,6831.622a3.961,3.961,0,0,0-2.353-2.923,5.925,5.925,0,0,0-2.361-.447,5.027,5.027,0,0,0-4.029,1.856,8.454,8.454,0,0,0-1.595,5.576c0,2.507.585,4.273,1.717,5.331a5.619,5.619,0,0,0,3.9,1.547,5.138,5.138,0,0,0,3.533-1.221,5.406,5.406,0,0,0,1.685-3.223h-4.73v-3.411h8.491v10.932h-2.809l-.431-2.532a9.433,9.433,0,0,1-2.206,2.035,7.825,7.825,0,0,1-4.159,1.035,8.662,8.662,0,0,1-6.643-2.8,10.686,10.686,0,0,1-2.686-7.717,11.3,11.3,0,0,1,2.711-7.937,10.456,10.456,0,0,1,13.447-1.017,7.271,7.271,0,0,1,2.719,4.917Z"/><path class="b" d="M1909.761,6825.256h4.831l7.2,20.383h-4.624l-1.335-4.176h-7.513l-1.384,4.176h-4.452Zm-.273,12.683h5.226l-2.58-8.027Z"/><path class="b" d="M1924.425,6825.256h4.266v16.728h10.183v3.655h-14.449Z"/></g></svg>