<svg xmlns="http://www.w3.org/2000/svg" width="90" height="89.7" viewBox="0 0 90 89.7"><defs><style>.a{fill:#6d6e6e;}</style></defs><g transform="translate(-234.222 -2323.824)"><path class="a" d="M305.244,2413.524H252.226a18.023,18.023,0,0,1-18-18v-53.692a18.022,18.022,0,0,1,18-18h53.695a18.023,18.023,0,0,1,18,18v4.265h-5.484v-4.265a12.536,12.536,0,0,0-12.52-12.521H252.226a12.536,12.536,0,0,0-12.52,12.521v53.692a12.535,12.535,0,0,0,12.52,12.52h53.018Z"/><rect class="a" width="28.607" height="2.196" transform="translate(250.467 2356.771)"/><rect class="a" width="28.607" height="2.196" transform="translate(250.467 2362.964)"/><rect class="a" width="28.607" height="2.196" transform="translate(250.467 2370.791)"/><rect class="a" width="28.607" height="2.196" transform="translate(250.467 2378.617)"/><rect class="a" width="28.609" height="2.196" transform="translate(290.273 2356.771)"/><rect class="a" width="28.609" height="2.196" transform="translate(290.273 2362.964)"/><rect class="a" width="28.609" height="2.196" transform="translate(290.273 2370.791)"/><path class="a" d="M301.308,2406.348a13.085,13.085,0,1,1,13.085-13.088A13.1,13.1,0,0,1,301.308,2406.348Zm0-23.428a10.343,10.343,0,1,0,10.343,10.34A10.353,10.353,0,0,0,301.308,2382.92Z"/><path class="a" d="M317.635,2410.9a1.365,1.365,0,0,1-.969-.4l-7.47-7.47a1.371,1.371,0,0,1,1.938-1.939l7.471,7.471a1.371,1.371,0,0,1-.97,2.34Z"/><rect class="a" width="2.742" height="48.584" transform="translate(283.004 2352.65)"/><path class="a" d="M244.53,2403.189v-51.412l.793-.369c.79-.364,19.359-8.807,39.055-.255,3.424-1.443,20.817-7.955,39.035.247l.809.364v51.205l-1.687-.4a103.525,103.525,0,0,0-11.564-1.863l-2.15-.23,1.124-1.848a10.372,10.372,0,1,0-17.588.171l1.108,1.752-2.048.337a36.362,36.362,0,0,0-6.576,1.639l-.386.139-.4-.1c-.23-.059-22.946-5.381-37.689-.042Zm18.218-5.8a105.012,105.012,0,0,1,21.547,2.426,36.384,36.384,0,0,1,4.811-1.291,12.96,12.96,0,0,1-1.122-5.259,13.12,13.12,0,0,1,26.24,0,12.9,12.9,0,0,1-1,4.943c3.615.45,6.533.985,8.252,1.333v-45.989c-18.459-7.845-36.35.262-36.527.345l-.567.266-.573-.257c-16.564-7.463-32.822-1.835-36.541-.341v45.778A55.126,55.126,0,0,1,262.748,2397.384Z"/></g></svg>