<svg xmlns="http://www.w3.org/2000/svg" width="90" height="89.7" viewBox="0 0 90 89.7"><defs><style>.a{fill:#fff;}</style></defs><g transform="translate(-7492.159 -3139.883)"><path class="a" d="M7563.181,3229.583h-53.018a18.023,18.023,0,0,1-18-18v-53.693a18.023,18.023,0,0,1,18-18h53.695a18.023,18.023,0,0,1,18,18v4.265h-5.484v-4.265a12.535,12.535,0,0,0-12.52-12.52h-53.695a12.535,12.535,0,0,0-12.52,12.52v53.693a12.535,12.535,0,0,0,12.52,12.52h53.018Z"/><rect class="a" width="28.607" height="2.196" transform="translate(7508.404 3172.83)"/><rect class="a" width="28.607" height="2.196" transform="translate(7508.404 3179.024)"/><rect class="a" width="28.607" height="2.196" transform="translate(7508.404 3186.85)"/><rect class="a" width="28.607" height="2.196" transform="translate(7508.404 3194.677)"/><rect class="a" width="28.609" height="2.196" transform="translate(7548.21 3172.83)"/><rect class="a" width="28.609" height="2.196" transform="translate(7548.21 3179.024)"/><rect class="a" width="28.609" height="2.196" transform="translate(7548.21 3186.85)"/><path class="a" d="M7559.245,3222.408a13.085,13.085,0,1,1,13.085-13.088A13.1,13.1,0,0,1,7559.245,3222.408Zm0-23.429a10.344,10.344,0,1,0,10.343,10.341A10.354,10.354,0,0,0,7559.245,3198.979Z"/><path class="a" d="M7575.572,3226.959a1.367,1.367,0,0,1-.969-.4l-7.47-7.47a1.371,1.371,0,0,1,1.938-1.939l7.471,7.47a1.37,1.37,0,0,1-.97,2.34Z"/><rect class="a" width="2.742" height="48.584" transform="translate(7540.941 3168.71)"/><path class="a" d="M7502.468,3219.248v-51.411l.792-.37c.79-.364,19.359-8.806,39.055-.254,3.424-1.443,20.818-7.955,39.035.246l.809.364v51.206l-1.687-.4a103.391,103.391,0,0,0-11.564-1.864l-2.15-.23,1.124-1.847a10.371,10.371,0,1,0-17.588.171l1.108,1.751-2.048.338a36.456,36.456,0,0,0-6.576,1.638l-.386.139-.4-.1c-.23-.059-22.946-5.382-37.689-.043Zm18.218-5.8a105.106,105.106,0,0,1,21.546,2.426,36.543,36.543,0,0,1,4.811-1.29,12.967,12.967,0,0,1-1.122-5.259,13.12,13.12,0,0,1,26.24,0,12.91,12.91,0,0,1-1,4.943c3.615.449,6.533.985,8.252,1.333v-45.989c-18.459-7.845-36.35.262-36.527.345l-.567.265-.573-.257c-16.563-7.462-32.821-1.834-36.541-.34V3215.4A55.129,55.129,0,0,1,7520.686,3213.443Z"/></g></svg>