<svg xmlns="http://www.w3.org/2000/svg" width="69.989" height="69.989" viewBox="0 0 69.989 69.989"><defs><style>.a{fill:gray;}</style></defs><g transform="translate(-14491.006 -11651.525)"><path class="a" d="M14523.875,11666.407a18.029,18.029,0,1,0,18.029,18.028A18.05,18.05,0,0,0,14523.875,11666.407Z"/><path class="a" d="M14548.312,11651.525h-44.622a12.683,12.683,0,0,0-12.684,12.683v44.624a12.683,12.683,0,0,0,12.684,12.683h46.036a11.269,11.269,0,0,0,11.27-11.269v-46.038A12.683,12.683,0,0,0,14548.312,11651.525Zm5.215,62.456a2.153,2.153,0,0,1-3.043,0l-12.433-12.434a22.118,22.118,0,0,1-14.176,5.22,22.333,22.333,0,1,1,22.333-22.332,22.114,22.114,0,0,1-5.124,14.06l12.442,12.443A2.153,2.153,0,0,1,14553.526,11713.981Z"/></g></svg>