<svg xmlns="http://www.w3.org/2000/svg" width="90" height="89.819" viewBox="0 0 90 89.819"><defs><style>.a{fill:#ffffff;}</style></defs><g transform="translate(-244.945 -2468.477)"><path class="a" d="M283.222,2545.031a38.277,38.277,0,1,1,38.277-38.277A38.319,38.319,0,0,1,283.222,2545.031Zm0-68.284a30.007,30.007,0,1,0,30.007,30.007A30.041,30.041,0,0,0,283.222,2476.747Z"/><path class="a" d="M330.81,2558.3a4.117,4.117,0,0,1-2.924-1.211l-21.774-21.775a4.134,4.134,0,1,1,5.847-5.846l21.774,21.774a4.134,4.134,0,0,1-2.923,7.058Z"/><path class="a" d="M283.222,2532.356a4.136,4.136,0,0,1-4.135-4.135v-42.937a4.135,4.135,0,1,1,8.27,0v42.937A4.136,4.136,0,0,1,283.222,2532.356Z"/><path class="a" d="M304.689,2510.889H261.755a4.135,4.135,0,0,1,0-8.27h42.934a4.135,4.135,0,0,1,0,8.27Z"/></g></svg>